<?xml version="1.0" encoding="utf-8"?>
<!-- Generator: Adobe Illustrator 19.2.1, SVG Export Plug-In . SVG Version: 6.00 Build 0)  -->
<svg version="1.1" id="Layer_1" xmlns="http://www.w3.org/2000/svg" xmlns:xlink="http://www.w3.org/1999/xlink" x="0px" y="0px"
	 viewBox="0 0 40 37" style="enable-background:new 0 0 40 37;" xml:space="preserve">
<style type="text/css">
	.st0{fill:#FFFFFF;}
</style>
<g>
	<path class="st0" d="M20.6,19.6c2.6,0,4.7-2.7,4.7-5.5s-2.1-4.8-4.7-4.8c-2.6,0-4.7,2-4.7,4.8S18,19.6,20.6,19.6z"/>
	<path class="st0" d="M23.8,20.9c-0.6,0-1.1-0.5-1.1-1.1v-0.1c-1.3,0.7-3,0.7-4.3,0v0.1c0,0.6-0.5,1.1-1.1,1.1c-2.6,0-4.7,2-4.7,4.5
		v1.9h16v-1.9C28.5,23,26.4,20.9,23.8,20.9z"/>
</g>
</svg>
