<?xml version="1.0" encoding="utf-8"?>
<!-- Generator: Adobe Illustrator 19.2.1, SVG Export Plug-In . SVG Version: 6.00 Build 0)  -->
<svg version="1.1" id="Layer_1" xmlns="http://www.w3.org/2000/svg" xmlns:xlink="http://www.w3.org/1999/xlink" x="0px" y="0px"
	 viewBox="0 0 66 53" style="enable-background:new 0 0 66 53;" xml:space="preserve">
<style type="text/css">
	.st0{fill-rule:evenodd;clip-rule:evenodd;fill:#FFFFFF;}
</style>
<g>
	<path class="st0" d="M32.1,17.4c3.2,0,5.8,2.6,5.8,5.8S35.3,29,32.1,29s-5.8-2.6-5.8-5.8S28.9,17.4,32.1,17.4z M32.1,16.5
		c-3.7,0-6.7,3-6.7,6.7s3,6.7,6.7,6.7c1.7,0,3.2-0.6,4.4-1.7l5.1,5.1c0.2,0.2,0.5,0.2,0.6,0c0.2-0.2,0.2-0.5,0-0.6l-5.1-5.1
		c1-1.2,1.7-2.7,1.7-4.4C38.8,19.5,35.8,16.5,32.1,16.5L32.1,16.5z"/>
</g>
</svg>
