<?xml version="1.0" encoding="utf-8"?>
<!-- Generator: Adobe Illustrator 22.0.1, SVG Export Plug-In . SVG Version: 6.00 Build 0)  -->
<svg version="1.1" id="Layer_1" xmlns="http://www.w3.org/2000/svg" xmlns:xlink="http://www.w3.org/1999/xlink" x="0px" y="0px"
	 viewBox="0 0 208 55" style="enable-background:new 0 0 208 55;" xml:space="preserve">
<style type="text/css">
	.st0{fill-rule:evenodd;clip-rule:evenodd;fill:#3F3E44;}
	.st1{fill:#004E9D;stroke:#000000;stroke-width:0.25;stroke-miterlimit:10;}
	.st2{fill:#D8D8D8;stroke:#000000;stroke-width:0.25;stroke-miterlimit:10;}
	.st3{fill:#D9DADA;stroke:#000000;stroke-width:0.25;stroke-miterlimit:10;}
	.st4{fill:#E2000D;stroke:#000000;stroke-width:0.25;stroke-miterlimit:10;}
	.st5{fill:#181716;}
	.st6{fill:none;stroke:#000000;stroke-width:0.25;stroke-miterlimit:10;}
	.st7{fill:#004E9D;stroke:#181716;stroke-width:0.2;stroke-miterlimit:10;}
	.st8{fill:#B7965D;stroke:#181716;stroke-width:0.1;stroke-linecap:round;stroke-linejoin:round;stroke-miterlimit:10;}
	.st9{fill:#B7965D;stroke:#000000;stroke-width:0.1;stroke-miterlimit:10;}
	.st10{fill:none;stroke:#000000;stroke-width:0.1;stroke-miterlimit:10;}
	.st11{fill:none;stroke:#181716;stroke-width:0.1;stroke-linecap:round;stroke-linejoin:round;stroke-miterlimit:10;}
	.st12{fill:#B7955D;stroke:#181716;stroke-width:0.1;stroke-linecap:round;stroke-linejoin:round;stroke-miterlimit:10;}
	.st13{fill:#C19D5B;stroke:#181716;stroke-width:0.1;stroke-miterlimit:10;}
	.st14{fill:#C29E58;stroke:#181716;stroke-width:0.2;stroke-miterlimit:10;}
	.st15{fill:#DD040C;stroke:#000000;stroke-width:0.25;stroke-miterlimit:10;}
	.st16{fill:#C39F58;stroke:#000000;stroke-width:0.25;stroke-miterlimit:10;}
	.st17{fill:none;stroke:#181716;stroke-width:0.25;stroke-linecap:round;stroke-linejoin:round;stroke-miterlimit:10;}
	.st18{fill:none;stroke:#181716;stroke-width:0.4;stroke-linecap:round;stroke-linejoin:round;stroke-miterlimit:10;}
	.st19{fill:#009442;stroke:#181716;stroke-width:0.4;stroke-miterlimit:10;}
	.st20{fill:#009442;stroke:#181716;stroke-width:0.1;stroke-miterlimit:10;}
	.st21{fill:#009442;stroke:#000000;stroke-width:0.1;stroke-miterlimit:10;}
	.st22{fill:#C29E58;stroke:#181716;stroke-width:0.1;stroke-miterlimit:10;}
	.st23{fill:#009442;stroke:#181716;stroke-width:0.15;stroke-miterlimit:10;}
	.st24{fill:#FFFFFF;stroke:#000001;stroke-width:0.15;stroke-miterlimit:10;}
</style>
<g>
	<path class="st0" d="M86.1,7.6h3.6c0.6,0,1.2,0.1,1.6,0.2c0.5,0.2,0.9,0.4,1.2,0.7c0.3,0.3,0.6,0.6,0.7,1c0.2,0.4,0.3,0.9,0.3,1.4
		c0,0.4-0.1,0.8-0.2,1.2c-0.2,0.4-0.4,0.7-0.7,1c-0.3,0.3-0.7,0.5-1.1,0.7c-0.4,0.2-1,0.3-1.5,0.3h-3.9V7.6z M94.1,21.5h1.3v-0.1
		L91.7,15c0.4-0.1,0.9-0.3,1.3-0.6c0.4-0.3,0.7-0.5,1-0.9c0.3-0.4,0.5-0.8,0.6-1.2c0.1-0.4,0.2-0.9,0.2-1.4c0-0.7-0.1-1.3-0.4-1.9
		c-0.2-0.5-0.6-1-1-1.4c-0.4-0.4-1-0.6-1.6-0.8c-0.6-0.2-1.3-0.3-2.1-0.3h-4.8v14.9h1.3v-6.2h4.3L94.1,21.5z"/>
	<path class="st0" d="M103,11.6c0.4,0.2,0.7,0.5,1,0.8c0.3,0.3,0.5,0.7,0.6,1.2c0.1,0.4,0.2,0.9,0.2,1.3V15h-6.6
		c0.1-0.6,0.2-1.1,0.4-1.5c0.2-0.4,0.4-0.8,0.8-1.2c0.3-0.3,0.6-0.6,1-0.8c0.4-0.2,0.8-0.3,1.3-0.3C102.2,11.3,102.6,11.4,103,11.6z
		 M103.3,21.5c0.4-0.1,0.8-0.2,1.1-0.4c0.3-0.2,0.6-0.4,0.8-0.6c0.3-0.2,0.5-0.5,0.7-0.8l-0.8-0.6c-0.4,0.5-0.9,0.9-1.4,1.1
		c-0.5,0.3-1.1,0.4-1.7,0.4c-0.6,0-1.1-0.1-1.6-0.3c-0.5-0.2-0.9-0.5-1.2-0.9c-0.3-0.4-0.6-0.9-0.8-1.4c-0.2-0.5-0.3-1.1-0.3-1.7V16
		h7.9v-0.8c0-0.7-0.1-1.4-0.3-2c-0.2-0.6-0.5-1.2-0.8-1.6c-0.4-0.5-0.8-0.8-1.4-1.1c-0.6-0.3-1.2-0.4-1.9-0.4
		c-0.6,0-1.3,0.1-1.8,0.4c-0.6,0.3-1.1,0.6-1.5,1.1c-0.4,0.5-0.8,1.1-1,1.8c-0.3,0.7-0.4,1.5-0.4,2.3v0.4c0,0.8,0.1,1.5,0.4,2.2
		c0.3,0.7,0.6,1.3,1,1.7c0.4,0.5,1,0.9,1.6,1.1c0.6,0.3,1.3,0.4,2,0.4C102.4,21.7,102.8,21.6,103.3,21.5z"/>
	<path class="st0" d="M116.3,16.1c0,0.7-0.1,1.3-0.2,1.8c-0.1,0.6-0.3,1.1-0.6,1.5c-0.3,0.4-0.6,0.8-1,1c-0.4,0.2-0.9,0.3-1.4,0.3
		c-0.4,0-0.8,0-1.1-0.1c-0.3-0.1-0.6-0.2-0.9-0.4c-0.3-0.2-0.5-0.4-0.7-0.6c-0.2-0.2-0.4-0.5-0.5-0.8v-5.3c0.1-0.3,0.3-0.6,0.4-0.8
		s0.4-0.5,0.7-0.7c0.3-0.2,0.6-0.3,0.9-0.5c0.4-0.1,0.7-0.2,1.2-0.2c0.6,0,1,0.1,1.5,0.3c0.4,0.2,0.8,0.6,1,1
		c0.3,0.4,0.5,0.9,0.6,1.5c0.1,0.6,0.2,1.2,0.2,1.8V16.1z M117.5,15.8c0-0.8-0.1-1.6-0.3-2.3c-0.2-0.7-0.5-1.3-0.8-1.8
		c-0.4-0.5-0.8-0.9-1.3-1.1c-0.5-0.3-1.1-0.4-1.8-0.4c-0.8,0-1.5,0.2-2,0.5c-0.6,0.3-1.1,0.8-1.4,1.3l-0.1-1.6h-1.1v15.4h1.2v-5.7
		c0.4,0.5,0.9,0.9,1.4,1.2c0.6,0.3,1.3,0.4,2.1,0.4c0.6,0,1.3-0.1,1.8-0.4c0.5-0.3,1-0.7,1.3-1.2c0.4-0.5,0.6-1.1,0.8-1.8
		c0.2-0.7,0.3-1.5,0.3-2.3V15.8z"/>
	<path class="st0" d="M127.8,21.5h1.2V10.4h-1.2v8c-0.1,0.3-0.3,0.6-0.4,0.9c-0.2,0.3-0.4,0.5-0.7,0.7c-0.3,0.2-0.6,0.4-1,0.5
		c-0.4,0.1-0.8,0.2-1.3,0.2c-0.4,0-0.7,0-1-0.2c-0.3-0.1-0.6-0.3-0.8-0.5c-0.2-0.2-0.4-0.5-0.5-0.9c-0.1-0.4-0.2-0.9-0.2-1.5v-7.1
		h-1.2v7.1c0,0.8,0.1,1.4,0.3,1.9c0.2,0.5,0.4,1,0.8,1.3c0.3,0.3,0.7,0.6,1.1,0.7c0.4,0.1,0.9,0.2,1.5,0.2c0.9,0,1.6-0.1,2.1-0.4
		c0.6-0.3,1.1-0.7,1.4-1.2L127.8,21.5z"/>
	<path class="st0" d="M140.3,16.1c0,0.7-0.1,1.3-0.2,1.8c-0.1,0.6-0.3,1-0.6,1.5c-0.3,0.4-0.6,0.7-1,1c-0.4,0.2-0.9,0.3-1.4,0.3
		c-0.4,0-0.8,0-1.2-0.2c-0.4-0.1-0.7-0.3-0.9-0.4c-0.3-0.2-0.5-0.4-0.7-0.7c-0.2-0.3-0.4-0.5-0.5-0.8v-5c0.1-0.3,0.2-0.6,0.4-0.9
		c0.2-0.3,0.4-0.5,0.7-0.7c0.3-0.2,0.6-0.4,0.9-0.5c0.4-0.1,0.8-0.2,1.2-0.2c0.6,0,1.1,0.1,1.5,0.3c0.4,0.2,0.8,0.6,1,1
		c0.3,0.4,0.4,0.9,0.6,1.5c0.1,0.6,0.2,1.2,0.2,1.8V16.1z M141.5,15.8c0-0.8-0.1-1.6-0.3-2.3c-0.2-0.7-0.5-1.3-0.8-1.8
		c-0.4-0.5-0.8-0.9-1.3-1.1c-0.5-0.3-1.1-0.4-1.8-0.4c-0.8,0-1.5,0.2-2.1,0.5c-0.6,0.3-1,0.8-1.4,1.3V5.8h-1.2v15.8h1.1l0.1-1.5
		c0.4,0.5,0.8,1,1.4,1.3c0.6,0.3,1.3,0.5,2.1,0.5c0.6,0,1.3-0.1,1.8-0.4c0.5-0.3,1-0.7,1.3-1.2c0.4-0.5,0.6-1.1,0.8-1.8
		c0.2-0.7,0.3-1.5,0.3-2.3V15.8z"/>
	<rect x="144.8" y="5.8" class="st0" width="1.2" height="15.8"/>
	<path class="st0" d="M149.8,7.8c0.2,0.2,0.4,0.2,0.6,0.2c0.3,0,0.4-0.1,0.6-0.2c0.2-0.2,0.2-0.3,0.2-0.6c0-0.2-0.1-0.4-0.2-0.6
		c-0.1-0.2-0.3-0.3-0.6-0.3c-0.3,0-0.5,0.1-0.6,0.3c-0.2,0.2-0.2,0.4-0.2,0.6C149.5,7.4,149.6,7.6,149.8,7.8z M151,10.4h-1.2v11.1
		h1.2V10.4z"/>
	<path class="st0" d="M157.1,20.3c-0.4-0.3-0.8-0.6-1.1-1c-0.3-0.4-0.5-0.9-0.6-1.4c-0.1-0.5-0.2-1.1-0.2-1.7v-0.4
		c0-0.6,0.1-1.1,0.2-1.7c0.1-0.5,0.3-1,0.6-1.4c0.3-0.4,0.6-0.7,1.1-1s1-0.4,1.6-0.4c0.4,0,0.8,0.1,1.2,0.2c0.4,0.1,0.7,0.3,1,0.6
		s0.5,0.6,0.7,0.9c0.2,0.4,0.3,0.8,0.3,1.2h1.2c0-0.6-0.2-1.1-0.4-1.6c-0.2-0.5-0.5-0.9-0.9-1.3c-0.4-0.4-0.8-0.6-1.3-0.8
		c-0.5-0.2-1.1-0.3-1.6-0.3c-0.8,0-1.5,0.2-2.1,0.4c-0.6,0.3-1.1,0.7-1.5,1.2c-0.4,0.5-0.7,1.1-0.9,1.8c-0.2,0.7-0.3,1.4-0.3,2.2
		v0.4c0,0.8,0.1,1.5,0.3,2.2c0.2,0.7,0.5,1.3,0.9,1.8c0.4,0.5,0.9,0.9,1.5,1.2c0.6,0.3,1.3,0.4,2.1,0.4c0.6,0,1.1-0.1,1.6-0.3
		c0.5-0.2,0.9-0.4,1.3-0.8c0.4-0.3,0.7-0.7,0.9-1.2c0.2-0.4,0.4-0.9,0.4-1.5h-1.2c0,0.4-0.1,0.8-0.3,1.1c-0.2,0.3-0.4,0.6-0.7,0.8
		s-0.6,0.4-1,0.5c-0.4,0.1-0.7,0.2-1.1,0.2C158.1,20.7,157.5,20.6,157.1,20.3z"/>
	<path class="st0" d="M171.2,15.8c0-0.6,0.1-1.2,0.2-1.7c0.2-0.6,0.4-1,0.7-1.5c0.3-0.4,0.7-0.8,1.2-1c0.4-0.3,1-0.4,1.6-0.4
		s1.1,0.1,1.6,0.4s0.9,0.6,1.2,1c0.3,0.4,0.6,0.9,0.7,1.5c0.2,0.5,0.3,1.1,0.3,1.7v0.3c0,0.6-0.1,1.2-0.3,1.8
		c-0.2,0.5-0.4,1-0.7,1.4c-0.3,0.4-0.7,0.8-1.2,1s-1,0.4-1.6,0.4c-0.6,0-1.1-0.1-1.6-0.4s-0.9-0.6-1.2-1c-0.3-0.4-0.6-0.9-0.7-1.4
		c-0.2-0.5-0.2-1.1-0.2-1.8V15.8z M169.9,16.1c0,0.8,0.1,1.6,0.4,2.3c0.2,0.7,0.6,1.3,1,1.8s0.9,0.9,1.6,1.2
		c0.6,0.3,1.3,0.4,2.1,0.4s1.4-0.1,2-0.4c0.6-0.3,1.1-0.7,1.6-1.2c0.4-0.5,0.8-1.1,1-1.8c0.2-0.7,0.4-1.4,0.4-2.3v-0.3
		c0-0.8-0.1-1.5-0.4-2.2c-0.2-0.7-0.6-1.3-1-1.8c-0.4-0.5-0.9-0.9-1.6-1.2c-0.6-0.3-1.3-0.4-2.1-0.4s-1.4,0.1-2,0.4
		c-0.6,0.3-1.1,0.7-1.6,1.2c-0.4,0.5-0.8,1.1-1,1.8c-0.2,0.7-0.4,1.4-0.4,2.2V16.1z"/>
	<path class="st0" d="M184.7,21.5V11.4h2.6v-1h-2.6V9c0-0.8,0.2-1.4,0.6-1.8c0.4-0.4,0.9-0.6,1.6-0.6c0.2,0,0.4,0,0.6,0l0.5,0.1
		l0.1-1c-0.2-0.1-0.4-0.1-0.6-0.1c-0.2,0-0.4,0-0.6,0c-0.5,0-1,0.1-1.4,0.2c-0.4,0.2-0.8,0.4-1,0.7c-0.3,0.3-0.5,0.7-0.7,1.1
		c-0.1,0.4-0.2,0.9-0.2,1.5v1.4h-1.8v1h1.8v10.1H184.7z"/>
</g>
<g>
	<polygon class="st0" points="85,28.3 85,49.2 89.3,49.2 89.3,43.5 88.9,33.6 94.4,49.2 97.4,49.2 103,33.6 102.6,43.5 102.6,49.2 
		106.9,49.2 106.9,28.3 101.3,28.3 95.9,43.5 90.6,28.3 	"/>
	<path class="st0" d="M114.3,45.8c-0.4-0.3-0.5-0.8-0.5-1.3c0-0.3,0.1-0.7,0.2-1c0.1-0.3,0.3-0.5,0.6-0.8c0.3-0.2,0.6-0.4,1-0.5
		c0.4-0.1,0.9-0.2,1.4-0.2h1.7v2.7c-0.1,0.2-0.3,0.4-0.4,0.6c-0.2,0.2-0.4,0.3-0.6,0.5c-0.2,0.1-0.5,0.3-0.8,0.3
		c-0.3,0.1-0.6,0.1-1,0.1C115.2,46.3,114.7,46.2,114.3,45.8z M123.4,49.2V49c-0.1-0.2-0.2-0.4-0.3-0.6c-0.1-0.2-0.1-0.5-0.2-0.8
		c-0.1-0.3-0.1-0.6-0.1-1c0-0.3,0-0.7,0-1.2v-6.6c0-0.9-0.2-1.7-0.5-2.4c-0.3-0.7-0.8-1.3-1.3-1.7c-0.5-0.5-1.2-0.8-2-1
		c-0.8-0.2-1.6-0.4-2.5-0.4c-1,0-1.9,0.1-2.7,0.4c-0.8,0.3-1.5,0.6-2.1,1.1c-0.6,0.5-1,1-1.3,1.6c-0.3,0.6-0.5,1.2-0.5,1.9h4.1
		c0-0.6,0.2-1,0.6-1.4c0.4-0.3,0.9-0.5,1.6-0.5c0.8,0,1.4,0.2,1.7,0.6c0.4,0.4,0.6,1,0.6,1.7v0.9h-1.8c-1.2,0-2.2,0.1-3.1,0.4
		c-0.9,0.2-1.6,0.6-2.2,1c-0.6,0.4-1,1-1.3,1.6c-0.3,0.6-0.5,1.4-0.5,2.2c0,0.7,0.1,1.3,0.4,1.9c0.3,0.6,0.6,1.1,1.1,1.5
		c0.5,0.4,1,0.7,1.7,1c0.6,0.2,1.3,0.3,2.1,0.3c0.9,0,1.7-0.2,2.3-0.5c0.6-0.3,1.2-0.7,1.6-1.2c0.1,0.5,0.2,1,0.4,1.4H123.4z"/>
	<path class="st0" d="M135.2,49.2h3.9V33.7h-4.1v11c-0.3,0.5-0.6,0.8-1.1,1.1c-0.5,0.3-1.1,0.4-1.8,0.4c-0.3,0-0.6,0-0.9-0.1
		c-0.3-0.1-0.5-0.2-0.7-0.4c-0.2-0.2-0.4-0.4-0.4-0.7c-0.1-0.3-0.2-0.7-0.2-1.1V33.7h-4.1v10.1c0,1,0.1,1.9,0.4,2.6
		c0.2,0.7,0.6,1.3,1.1,1.8c0.4,0.5,1,0.8,1.6,1c0.6,0.2,1.3,0.3,2.1,0.3c0.9,0,1.8-0.2,2.4-0.5c0.7-0.3,1.3-0.8,1.8-1.4L135.2,49.2z
		"/>
	<path class="st0" d="M150.7,33.6c-0.2,0-0.4-0.1-0.6-0.1c-0.2,0-0.5-0.1-0.7-0.1c-0.8,0-1.4,0.2-2,0.6c-0.6,0.4-1,0.9-1.4,1.6
		l-0.1-1.9H142v15.6h4.1V39c0.2-0.5,0.6-0.9,1.1-1.2c0.5-0.3,1.1-0.4,2-0.4c0.2,0,0.5,0,0.8,0s0.5,0,0.7,0.1L150.7,33.6z"/>
	<path class="st0" d="M152.7,30.5c0.1,0.3,0.3,0.5,0.5,0.7c0.2,0.2,0.4,0.3,0.7,0.4c0.3,0.1,0.6,0.2,0.9,0.2c0.4,0,0.7,0,0.9-0.2
		c0.3-0.1,0.5-0.2,0.7-0.4c0.2-0.2,0.3-0.4,0.5-0.7c0.1-0.3,0.2-0.6,0.2-0.9c0-0.3-0.1-0.6-0.2-0.8c-0.1-0.3-0.3-0.5-0.5-0.7
		c-0.2-0.2-0.4-0.4-0.7-0.5c-0.3-0.1-0.6-0.2-0.9-0.2c-0.7,0-1.3,0.2-1.7,0.6c-0.4,0.4-0.6,0.9-0.6,1.5
		C152.5,30,152.6,30.3,152.7,30.5z M156.9,33.7h-4.1v15.6h4.1V33.7z"/>
	<path class="st0" d="M160.8,29.8v3.8h-2.3v3h2.3v8.2c0,0.8,0.1,1.5,0.3,2.1c0.2,0.6,0.5,1.1,0.9,1.4c0.4,0.4,0.9,0.6,1.4,0.8
		c0.6,0.2,1.2,0.2,1.8,0.2c0.5,0,1,0,1.4-0.1c0.4-0.1,0.8-0.2,1.1-0.3V46c-0.2,0-0.3,0-0.5,0.1c-0.2,0-0.4,0-0.7,0
		c-0.3,0-0.5,0-0.7-0.1c-0.2,0-0.4-0.1-0.5-0.3c-0.1-0.1-0.2-0.3-0.3-0.5c-0.1-0.2-0.1-0.5-0.1-0.8v-7.8h2.6v-3H165v-3.8H160.8z"/>
	<path class="st0" d="M170.1,30.5c0.1,0.3,0.3,0.5,0.5,0.7c0.2,0.2,0.4,0.3,0.7,0.4c0.3,0.1,0.6,0.2,0.9,0.2c0.4,0,0.7,0,1-0.2
		c0.3-0.1,0.5-0.2,0.7-0.4c0.2-0.2,0.3-0.4,0.5-0.7c0.1-0.3,0.2-0.6,0.2-0.9c0-0.3-0.1-0.6-0.2-0.8c-0.1-0.3-0.3-0.5-0.5-0.7
		c-0.2-0.2-0.4-0.4-0.7-0.5c-0.3-0.1-0.6-0.2-1-0.2c-0.7,0-1.3,0.2-1.7,0.6c-0.4,0.4-0.6,0.9-0.6,1.5C169.9,30,170,30.3,170.1,30.5z
		 M174.3,33.7h-4.1v15.6h4.1V33.7z"/>
	<path class="st0" d="M186.8,49.2h3.9V33.7h-4.1v11c-0.3,0.5-0.6,0.8-1.1,1.1c-0.5,0.3-1.1,0.4-1.8,0.4c-0.3,0-0.6,0-0.9-0.1
		c-0.3-0.1-0.5-0.2-0.7-0.4c-0.2-0.2-0.3-0.4-0.5-0.7c-0.1-0.3-0.2-0.7-0.2-1.1V33.7h-4.1v10.1c0,1,0.1,1.9,0.4,2.6
		c0.2,0.7,0.6,1.3,1.1,1.8c0.4,0.5,1,0.8,1.6,1c0.6,0.2,1.3,0.3,2.1,0.3c0.9,0,1.8-0.2,2.4-0.5c0.7-0.3,1.3-0.8,1.8-1.4L186.8,49.2z
		"/>
	<path class="st0" d="M201.4,46.1c-0.4,0.3-1,0.5-1.8,0.5c-0.4,0-0.7,0-1.1-0.1c-0.3-0.1-0.6-0.2-0.9-0.4s-0.5-0.4-0.6-0.7
		c-0.2-0.3-0.3-0.6-0.3-1h-3.9c0,0.6,0.1,1.3,0.4,1.9c0.3,0.6,0.7,1.2,1.3,1.7c0.6,0.5,1.3,0.9,2.1,1.2c0.8,0.3,1.8,0.5,2.9,0.5
		c1,0,1.9-0.1,2.7-0.3c0.8-0.2,1.5-0.6,2.1-1c0.6-0.4,1-0.9,1.3-1.5c0.3-0.6,0.5-1.2,0.5-1.9c0-0.8-0.2-1.4-0.4-2
		c-0.3-0.5-0.7-1-1.2-1.4c-0.5-0.4-1.1-0.7-1.8-0.9c-0.7-0.2-1.5-0.4-2.3-0.6c-0.6-0.1-1-0.2-1.4-0.3c-0.4-0.1-0.7-0.3-0.9-0.4
		c-0.2-0.1-0.4-0.3-0.5-0.5c-0.1-0.2-0.1-0.4-0.1-0.6c0-0.5,0.2-0.9,0.6-1.2c0.4-0.3,0.9-0.5,1.6-0.5c0.8,0,1.4,0.2,1.8,0.6
		c0.4,0.4,0.6,0.9,0.6,1.5h4.1c0-0.7-0.2-1.4-0.5-2c-0.3-0.6-0.7-1.1-1.3-1.6c-0.6-0.4-1.2-0.8-2-1c-0.8-0.3-1.7-0.4-2.7-0.4
		c-1,0-1.8,0.1-2.6,0.4c-0.8,0.3-1.4,0.6-1.9,1.1c-0.5,0.5-0.9,1-1.2,1.5c-0.3,0.6-0.4,1.2-0.4,1.9c0,0.7,0.1,1.3,0.4,1.8
		c0.3,0.5,0.7,1,1.2,1.3c0.5,0.4,1.1,0.7,1.7,1c0.7,0.3,1.4,0.5,2.2,0.6c0.6,0.1,1.2,0.3,1.6,0.4c0.4,0.2,0.7,0.3,1,0.5
		c0.2,0.2,0.4,0.3,0.5,0.5c0.1,0.2,0.1,0.4,0.1,0.6C202,45.4,201.8,45.8,201.4,46.1z"/>
</g>
<g>
	<path id="path4696-7" class="st1" d="M46.9,41.9V32H35.4v15.6L46.9,41.9z"/>
	<g>
		<polygon class="st2" points="41.2,32.5 41.7,33.6 43.1,33.6 42.1,34.4 42.6,35.9 41.2,35 39.8,35.9 40.4,34.4 39.2,33.5 
			40.8,33.5 		"/>
		<polygon class="st2" points="41.2,36 44.6,43 37.2,46.7 		"/>
	</g>
</g>
<path class="st3" d="M43.3,18.6c0,0-0.1-0.4,0.5-0.5c0,0,0.6,0.1,0.8-0.1c0,0,0.6-0.3,1,0.1c0,0,1,0.7,1.2,0.9c0,0,0.2,0.3,0.4,0.3
	c0,0,0.6,0.4,0.8,0.9c0,0,0.5,0.6,0.8,0.6c0,0,1.1,0.3,1.4,0.8c0,0,0.3,0.3,0.5,0.2c0,0,0.5-1.1,0.9-1.2c0,0,0.4,0,0.8,0
	c0,0,0.5-0.7,0.9-0.6l1.4,0.2l1.3,1.9l1.6,4.3l1.7,3.2l2.3,4.2l1,4.3L62,38.8h-0.8l-0.6-0.2l-0.4-0.1c0,0-1.2-1.1-1.3-1.5
	c0,0-0.6,0.2-1,0c0,0-0.3-0.2-0.4,0.1c0,0-0.4,0.4-0.3,0.6c0,0,0.1,0.5-0.1,0.8c0,0-0.1,0.3-0.2,0.5c0,0-0.2,0.3,0,0.5
	c0,0,0.3,0.6-0.1,0.6c0,0-0.8-0.1-1.2,0c0,0-0.7,0.1-1.2-0.1c0,0-0.6-0.3-0.9-0.3l-0.6,0c0,0-0.5,0-0.6,0.2c0,0-0.4,0.5-0.8,0.2
	c0,0-1.3-0.4-1.8-0.3l-0.1-0.7c0,0,1.4-0.7,3.3-0.7l1.7,0c0,0,0.8,0.1,0.6-0.9c0,0-0.3-0.5-0.3-1.5c0,0-0.3-1.7,0.6-2.6
	c0,0-1.1-0.8-1.5-1.9c0,0-0.1-0.5-0.6-0.7c0,0-1.1-0.3-1.5-1.1c0,0-0.2-0.9-0.7-0.8c0,0-2.2,0.1-2.5,1.1c0,0-0.5,1.3-0.6,1.5
	c0,0-0.1,0.8-0.1,1.3c0,0-0.1,0.3-0.4,0.5c0,0-0.3,0.2-0.2,0.4c0,0,0.4,0.3,0.4,0.7c0,0,0,0.8-0.5,1.6L46.8,36l0-5.4
	c0,0,0.5-0.5,0.6-0.8c0,0,0.3-0.7,0.4-1c0,0,0.1-0.8,0.8-1.2c0,0,0.6-0.1,1-0.1c0,0,0,0,0.1,0c0.4,0-0.3-3.5-0.3-3.5
	s-1.1-0.1-1.4-1.1c0,0-0.8-1.8-1.3-2c0,0-0.8-1-1.2-1.1C45.7,19.8,43.4,19.5,43.3,18.6z"/>
<path class="st4" d="M62.3,14.4c2.8-0.2,4.6-2.8,4.6-2.8c1.3-1.3,2.4-3.8,2.4-3.8c0.6-1.2,0.4-1.3,0.4-1.3c-0.3,0-0.5,0.8-0.5,0.8
	c-1,2.4-2.1,3-2.1,3c-0.2-2-0.8-2.1-0.8-2.1v1.8c0,1.6-0.8,1.9-0.8,1.9c-1.1,1.3-1.7,1.3-1.7,1.3c-0.3,0-0.8,0.1-0.8,0.1
	c-1,0.4-1.2-0.1-1.2-0.1c-0.2-0.4,0-0.7,0-0.7c0.4-0.3,0.6-0.8,0.6-0.8c-2.4,1.4-2.2,1.9-2.2,1.9c0.1,0.5-0.2,0.5-0.2,0.5
	c-0.2,0.2-0.5-0.3-0.5-0.3c-0.3-0.5,0.4-1.3,0.4-1.3c0.5-0.8,2.2-2.6,2.2-2.6c0.6-0.6,0.9-1.7,0.9-1.7c0.6-1.6,0.6-3,0.6-3
	c0.1-1.6-0.3-1.6-0.3-1.6c-0.2,0.1-0.2,0.5-0.2,0.5s0.1,2.3-0.6,2.7c0,0-0.1,0.3,0,0.5c0,0,0,0.3-0.4,0.1c0,0-0.8-1.1-0.5-2.3
	c0,0-0.7,0.3-0.2,2.1c0,0,0.6,1.6-0.1,2.3c0,0-2.2,2-2.2,2.6c0,0-0.5-0.5-0.3-2c0,0,0.1-0.2,0-0.2c0,0-0.2-0.1-0.3,0.5
	c0,0-0.3,1.2-0.2,1.8c0,0,0.2,0.2,0.1,0.4c0,0-0.3,0.5,0,0.8c0,0,0.4,0.5,0.1,0.8c0,0-1.1-0.2-1.6,0.1c0,0-1,0.8-2,0.7
	c0,0-1.1-0.3-1.5,0.7c0,0-0.2,0.6,0.8,1.1c0,0-0.1,0.3,0.3,0.4c0,0,1.1-0.1,1.4,0.3c0.3,0.4,1,0.4,0.6,0.9c0,0-0.6,1.2-1.7,1.2
	c0,0-1.1,0.2-1.6,1c0,0-0.1,0.2,0,0.3c0,0,0.3,0.3,0.3,0.3c0,0,0.2,0.1,0.2-0.1c0,0,0.4-0.5,0.6-0.4c0,0,0.2,0.1,0.4,0.8
	c0,0,0,0.2-0.3,0.3c0,0-0.6,0.3-0.3,0.7c0,0,0.4,0.4,0.4,0.8c0,0,0.1,1.1,0.5,1c0,0,0.2-0.2,0.7-0.3c0,0,0.2,0,0.2,0.5
	c0,0,0.1,0.7,0.5,1c0,0,0.4,0.6,0,0.6c0,0-0.7-0.1-0.6,0.5c0,0,0,0.6,0.4,0.9c0,0,0.3,0.3,0.3,0.6c0,0-0.1,0.3,0.3,0.2
	c0,0,0.6-0.4,0.8-0.2c0,0,0.3,0.2,0.3,0.8c0,0,0.1,0.4,0.4,0.8c0,0,0.2,0.4-0.1,0.5c0,0-0.6,0-0.5,0.6c0,0,0.1,1.2,0.8,1.9
	c0,0,0.4,0.2,0.5,0c0,0,0.1-0.2,0.4-0.1c0,0,0.2,0,0.2,0.3c0,0,0.1,0.6,0.5,0.8c0,0,0.3,0.2,0.1,0.5c0,0-0.2,0.1-0.4,0.1
	c0,0-0.3,0.1-0.3,0.2c0,0-0.1,0.1-0.2,0.1c0,0-0.1,0.3,0.1,0.5c0,0,0.5,0.8,0.5,1.1c0,0,0,0.5,0.6,0.4c0,0,0.4-0.2,0.7-0.2
	c0,0,0.3,0.1,0.4,0.8c0,0,0.1,0.3,0.2,0.4c0,0,0.2,0.2,0,0.3c0,0-0.3,0.5-0.6,0.5c0,0-0.8,0.1-0.9,0.4c0,0,1.4,1.3,1.5,1.6
	c0,0,0.8,0.9,0.9,1c0,0,0.3,0.1,0.2,0.5l0.1,2c0,0,0.2,0.5-0.1,0.6c0,0-0.2,0.6,0,1.1c0,0-0.5,0.8-0.5,1L63,47c0,0,0.6-0.5,0.6-0.6
	c0,0-0.2-0.6,0-0.7c0,0,0.1-0.1,0.4-0.1c0,0,0.4,0,0.4-0.5c0,0-0.5-3.2,0.1-4.5c0,0,0-0.2-0.4-0.3c0,0-1.4-1-0.8-3.5
	c0,0,0.6-1.8,0.2-2.5c0,0,0.6,0.2,0.7-0.3c0,0,0.4-0.8,0-1.8c0,0-0.4-1.3-1-1.3c0,0-0.4,0-0.2,1.1l-0.3,0.1c0,0-0.6-1.3-2.1-2.6
	c0,0-3.5-2.5-2.2-6.7c0,0,0.6-2.2,1.6-3.7c0,0,0.6-1.2,0.3-2.2c0,0-0.1-0.2,0-0.4c0,0,0.1-0.1,0.3-0.1c0,0,0.6-0.1,0.9-0.9
	c0,0,0.7-0.6,0.7-1L62.3,14.4z"/>
<path class="st4" d="M58,13.8c0,0,0.2-0.6-0.4-0.7c0,0-0.4-0.1-0.4-0.3c0,0-0.3,0.2-0.2,0.6c0,0,0.2,0.3,0.2,0.4"/>
<g>
	<path class="st5" d="M56.4,17.1c0.2,0.1,0.5,0.2,0.7,0.2c0.2,0,0.5,0.1,0.7-0.1c-0.1,0.3-0.4,0.5-0.6,0.6c-0.3,0.1-0.5,0.2-0.8,0.3
		L56.4,17.1z"/>
</g>
<path class="st5" d="M60.3,15.2c0,0,0.2-0.7,0.7-0.4c0,0,0.5,0.3-0.2,0.7c0,0,0.2-0.3,0.1-0.4C60.8,15.1,60.6,14.9,60.3,15.2z"/>
<path class="st6" d="M62.3,14.4c0,0-0.6-0.7-1.4-0.4c0,0-0.5,0.2-0.9,0.6c0,0-0.3,0.4-0.6,0.4"/>
<path class="st5" d="M53.6,15.3c0,0,0.2-0.2,0.4,0c0,0,0.2,0.2-0.1,0.4c0,0-0.2,0-0.1-0.3C53.8,15.5,53.8,15.3,53.6,15.3z"/>
<path class="st5" d="M58,15c0,0-0.6-0.5-1-0.5c0,0-0.1,0-0.2,0.1c0,0-0.3,0-0.2,0.2c0,0,0.2,0.2,0.5,0.2c0,0,0.1,0,0.1-0.2
	C57.2,14.8,57.9,15.1,58,15z"/>
<g>
	<path class="st5" d="M54,16.2c0.2,0,0.4,0,0.6,0.1c0.1,0,0.2,0,0.3,0c0.1,0,0.2,0,0.3-0.1c0,0.1-0.1,0.2-0.2,0.2
		c-0.1,0.1-0.2,0.1-0.3,0.1c-0.2,0.1-0.4,0.1-0.6,0.2L54,16.2z"/>
</g>
<path class="st6" d="M55.3,33.5c0,0,0.4-0.6,1.5-0.2"/>
<g>
	<path class="st5" d="M58.7,36.9c0.1-0.3,0.2-0.6,0.1-0.9l0,0c-0.1-0.2-0.2-0.5-0.1-0.8l0,0c-0.2-0.3-0.3-0.7-0.1-1
		c-0.1,0.3,0,0.7,0.2,1l0,0l0,0c-0.1,0.2,0.1,0.5,0.2,0.7l0,0c0.2,0.3,0.1,0.7,0,1.1L58.7,36.9z"/>
</g>
<path id="path5212_1_" class="st7" d="M23.9,18.4h11.5V32H23.9V18.4z"/>
<path class="st8" d="M30.1,27.9c0,0.1-0.1,0.1-0.1,0.1l0,0c-0.1,0-0.1-0.1-0.1-0.1l0-4.1c0-0.1,0.1-0.1,0.1-0.1h0"/>
<path class="st8" d="M27,26.4c0.4,0.4,3,2.6,5.4,0.1h1.3c0,0-0.4,3.1-3.8,2.9c0,0-2.3-0.1-3.9-2.3c0,0,0-0.1,0-0.1l0.8-0.5
	C26.9,26.3,27,26.3,27,26.4z"/>
<path class="st9" d="M26.6,25.1h0.1c0.2,0,0.3,0.2,0.3,0.3v0h-1.2v0c0-0.2,0.1-0.3,0.3-0.3h0.3v-1.5c0,0,0.5,0.5,0.9,0.6
	c0,0-0.8,0.2-0.8,0.4L26.6,25.1z"/>
<path class="st9" d="M27,26h-1.1c-0.1,0-0.2-0.1-0.2-0.2v-0.1c0-0.1,0.1-0.2,0.2-0.2H27c0.1,0,0.2,0.1,0.2,0.2v0.1
	C27.3,25.9,27.2,26,27,26z"/>
<circle class="st10" cx="26.5" cy="25.8" r="0.1"/>
<path class="st8" d="M27.2,26.3h-1.4c0,0-0.1,0-0.1-0.1v0c0,0,0-0.1,0.1-0.1h1.4C27.2,26.2,27.3,26.2,27.2,26.3L27.2,26.3
	C27.3,26.3,27.2,26.3,27.2,26.3z"/>
<path class="st8" d="M27,26.1h-1c0,0,0,0,0,0v0c0,0,0,0,0,0L27,26.1C27,26.1,27,26.1,27,26.1L27,26.1C27,26.1,27,26.1,27,26.1z"/>
<path class="st8" d="M27,26.6h-1.1c0,0-0.1,0-0.1-0.1v0c0,0,0-0.1,0.1-0.1H27C27.1,26.4,27.1,26.5,27,26.6L27,26.6
	C27.1,26.6,27.1,26.6,27,26.6z"/>
<rect x="25.9" y="26.3" class="st8" width="1.1" height="0.2"/>
<path class="st8" d="M33.1,25.2h0.1c0.2,0,0.3,0.1,0.3,0.3l0,0.1h-1.1l0-0.1c0-0.2,0.1-0.3,0.3-0.3H33v-1.4c0,0,0.5,0.5,0.9,0.5
	c0,0-0.7,0.2-0.7,0.4L33.1,25.2z"/>
<path class="st8" d="M33.4,26.2h-0.9c-0.2,0-0.3-0.1-0.3-0.3v-0.1c0-0.2,0.1-0.3,0.3-0.3h0.9c0.2,0,0.3,0.1,0.3,0.3v0.1
	C33.7,26.1,33.6,26.2,33.4,26.2z"/>
<circle class="st11" cx="32.9" cy="25.9" r="0.1"/>
<circle class="st11" cx="33.3" cy="25.9" r="0.1"/>
<rect x="32.2" y="26.2" class="st8" width="1.3" height="0.4"/>
<path class="st8" d="M33.8,26.7h-1.1c-0.1,0-0.1,0-0.1-0.1v0c0-0.1,0-0.1,0.1-0.1h1.1c0.1,0,0.1,0,0.1,0.1L33.8,26.7
	C33.9,26.6,33.9,26.7,33.8,26.7z"/>
<path class="st8" d="M33.8,26.9h-1.1c0,0-0.1,0-0.1-0.1v0c0,0,0-0.1,0.1-0.1h1.1c0,0,0.1,0,0.1,0.1L33.8,26.9
	C33.9,26.8,33.9,26.9,33.8,26.9z"/>
<path class="st11" d="M26.6,26.7c0,0,3.2,3.2,6,0.2"/>
<path class="st11" d="M26.4,27c0,0,2.9,3.6,6.6,0.3"/>
<path class="st12" d="M30.2,30l1-1.4c0.1-0.1,0-0.2,0-0.2l0,0c-0.1-0.1-0.2,0-0.2,0l-1,1.4c0,0-0.1-0.1-0.2,0c0,0-0.2,0.2,0.2,0.3
	C29.9,30.1,30.1,30.2,30.2,30z"/>
<path class="st12" d="M29,30l1-1.4c0.1-0.1,0-0.2,0-0.2v0c-0.1-0.1-0.2,0-0.2,0l-1,1.4c0,0-0.1-0.1-0.2,0c0,0-0.2,0.2,0.2,0.3
	C28.7,30.1,28.9,30.2,29,30z"/>
<path class="st12" d="M27.7,29.7l1-1.4c0.1-0.1,0-0.2,0-0.2l0,0c-0.1-0.1-0.2,0-0.2,0l-1,1.4c0,0-0.1-0.1-0.2,0c0,0-0.2,0.2,0.2,0.3
	C27.4,29.8,27.6,29.9,27.7,29.7z"/>
<circle class="st11" cx="32.5" cy="25.9" r="0.1"/>
<circle class="st10" cx="26" cy="25.8" r="0.1"/>
<circle class="st10" cx="26.9" cy="25.8" r="0.1"/>
<path class="st8" d="M29.7,23.8l-1.5,3.4c0,0.1-0.1,0.1-0.2,0.1l0,0c-0.1,0-0.1-0.1-0.1-0.2l1.7-3.7"/>
<path class="st8" d="M29.8,23.9l-0.7,3.7c0,0.1-0.1,0.1-0.2,0.1l0,0c-0.1,0-0.1-0.1-0.1-0.2l0.8-4"/>
<path class="st8" d="M30.1,23.9l1.2,3.5c0,0.1,0.1,0.1,0.2,0.1l0,0c0.1,0,0.1-0.1,0.1-0.2l-1.2-3.6"/>
<path class="st13" d="M30.1,28L30.1,28c-0.2,0-0.2-0.1-0.2-0.2v-7.5c0-0.1,0.1-0.2,0.2-0.2h0.1c0.1,0,0.2,0.1,0.2,0.2v7.5
	C30.3,28,30.2,28,30.1,28z"/>
<g>
	<path class="st9" d="M30.9,25.3c0,0,0.6-0.5,0.7-1.2c0,0,0.1-0.5,0.6-0.8c0,0,0.3-0.2,0.5-0.4c0,0-0.3,0.8-0.6,1
		c0,0-0.3,0.2-0.4,0.5C31.7,24.5,31.5,24.9,30.9,25.3z"/>
	<path class="st9" d="M31,25.6c0,0,0.9-0.3,1.8-2.7c0,0,0,0.7-0.4,1.1c0,0-0.4,0.6-0.4,0.6c0,0-0.6,1.2-1,1.1c0,0-0.1,0-0.2-0.2
		C30.8,25.7,30.9,25.6,31,25.6z"/>
	<path class="st9" d="M27,21.5c0,0,0,0.6,0.1,0.8c0,0,0.2,0.3,0.1,0.5c0,0,0.2,1,0.6,1.3c0,0,0.5,0.2,0.8,1.2l0.1-0.1
		c0,0-0.1-0.5-0.8-1.2c0,0-0.5-0.5-0.6-1.5c0,0,0-0.4-0.1-0.5c0,0-0.1-0.1-0.1-0.4H27z"/>
	<path class="st9" d="M27.4,21.6c0,0,0.2,0.4,0.2,1.1c0,0,0.1,0.6,0.7,1.2c0,0,0.4,0.4,0.6,1c0,0,0.1,0.1,0.2,0c0,0,0,0-0.1-0.2
		c0,0-0.4-0.8-0.6-0.9c0,0-0.7-0.7-0.7-1.8"/>
	<path class="st9" d="M27.8,22.1c0,0,0.1,0.8,0.5,1.1c0,0,0.6,0.7,0.8,1.3l0-0.1c0,0-0.2-0.7-0.6-1.1c0,0-0.3-0.3-0.3-0.7
		c0,0,0-0.3-0.2-0.3L28,22.1L27.8,22.1z"/>
	<path class="st9" d="M27.1,21.1h-0.2c0,0-0.1,0-0.1,0.2c0,0,0,0.3,0.3,0.2c0,0,0.3-0.1,0.4,0.3c0,0,0.2,0.4,0.6,0.3
		c0,0,0.2,0,0.3-0.2c0,0,0.1-0.1,0.3-0.1c0,0,0.3,0,0.4,0.3l0,0v-0.7C29.1,21.5,28.1,21.1,27.1,21.1z"/>
	<path class="st9" d="M29.1,22.2c0,0,0.3,0.3,0.5,0.4c0,0,0.9,0.3,1.3,0V22l-1.8-0.6V22.2z"/>
	<ellipse class="st9" cx="30" cy="23.1" rx="0.4" ry="0.8"/>
	<path class="st9" d="M30.6,22.7c0,0,0.2,0.4,0.9,0.1c0,0,0.4-0.1,1,0.1c0,0,0.8,0.3,1,0.1c0,0,0.1-0.3-0.1-0.3c0,0-0.7-0.2-1-0.3
		c0,0-1.1-0.4-1.5-0.3l-0.3,0V22.7z"/>
	<path class="st9" d="M34,22.6l-7.2-1.9c0,0,0,0,0-0.1l0,0c0,0,0,0,0.1,0l7.2,1.9C34.1,22.4,34.1,22.5,34,22.6L34,22.6
		C34.1,22.6,34,22.6,34,22.6z"/>
	<path class="st9" d="M29.1,21.6L29.1,21.6C29,21.6,29,21.6,29.1,21.6L29,21.2c0,0,0-0.1,0.1-0.1h0c0,0,0.1,0,0.1,0.1L29.1,21.6
		C29.1,21.6,29.1,21.6,29.1,21.6z"/>
	<path class="st9" d="M29.5,21.7L29.5,21.7C29.5,21.7,29.4,21.6,29.5,21.7l-0.1-0.5c0,0,0-0.1,0.1-0.1h0c0,0,0.1,0,0.1,0.1
		L29.5,21.7C29.6,21.6,29.6,21.7,29.5,21.7z"/>
	<path class="st9" d="M30.7,22.1L30.7,22.1C30.6,22.1,30.6,22.1,30.7,22.1l-0.1-0.5c0,0,0-0.1,0.1-0.1h0c0,0,0.1,0,0.1,0.1
		L30.7,22.1C30.7,22.1,30.7,22.1,30.7,22.1z"/>
	<path class="st9" d="M31.2,22.2L31.2,22.2C31.2,22.2,31.1,22.2,31.2,22.2l-0.1-0.5c0,0,0-0.1,0.1-0.1h0c0,0,0.1,0,0.1,0.1
		L31.2,22.2C31.3,22.2,31.3,22.2,31.2,22.2z"/>
	<path class="st9" d="M28.4,20.8c-0.1,0-0.2-0.1-0.3-0.1c-0.2-0.1-0.4-0.3-0.7-0.2c0,0-0.2,0.2,0,0.3c0,0,0.5,0.2,0.8,0.1
		c0,0,0.4,0,0.7,0.1c0,0,0.1,0,0.1,0c0.2,0,0.6,0,1,0c0,0,0.1,0,1.7,0.5c0,0,0,0,0.1,0c0.2,0.1,1.3,0.6,1.9,0.6c0,0,0.2,0,0.2-0.2
		c0,0,0-0.2-0.4-0.2c0,0-0.6,0.1-1.2-0.2l-2-0.6c0,0-0.4-0.1-0.7-0.2c0,0-0.1,0-0.1,0c-0.1,0-0.3,0-0.6,0c0,0,0,0-0.1,0
		C28.8,20.9,28.6,20.8,28.4,20.8z"/>
	<path class="st9" d="M27.4,21.3L27.4,21.3C27.3,21.3,27.3,21.3,27.4,21.3l-0.1-0.5c0,0,0-0.1,0.1-0.1h0c0,0,0.1,0,0.1,0.1
		L27.4,21.3C27.5,21.3,27.4,21.3,27.4,21.3z"/>
	<path class="st9" d="M27.7,21.4L27.7,21.4C27.7,21.4,27.7,21.4,27.7,21.4l-0.1-0.5c0,0,0-0.1,0.1-0.1h0c0,0,0.1,0,0.1,0.1
		L27.7,21.4C27.8,21.4,27.8,21.4,27.7,21.4z"/>
	<path class="st9" d="M32.8,22.6L32.8,22.6C32.7,22.6,32.7,22.6,32.8,22.6l-0.1-0.5c0,0,0-0.1,0.1-0.1h0c0,0,0.1,0,0.1,0.1
		L32.8,22.6C32.9,22.6,32.8,22.6,32.8,22.6z"/>
	<path class="st9" d="M33.2,22.7L33.2,22.7C33.1,22.7,33.1,22.7,33.2,22.7l-0.1-0.5c0,0,0-0.1,0.1-0.1h0c0,0,0.1,0,0.1,0.1
		L33.2,22.7C33.2,22.7,33.2,22.7,33.2,22.7z"/>
	<path class="st9" d="M28.2,21.5L28.2,21.5C28.1,21.5,28.1,21.5,28.2,21.5l-0.1-0.5c0,0,0-0.1,0.1-0.1h0c0,0,0.1,0,0.1,0.1
		L28.2,21.5C28.2,21.5,28.2,21.5,28.2,21.5z"/>
	<path class="st9" d="M28.6,21.6L28.6,21.6C28.6,21.6,28.5,21.6,28.6,21.6l-0.1-0.5c0,0,0-0.1,0.1-0.1h0c0,0,0.1,0,0.1,0.1
		L28.6,21.6C28.7,21.6,28.7,21.6,28.6,21.6z"/>
	<path class="st9" d="M31.8,22.4L31.8,22.4C31.7,22.4,31.7,22.4,31.8,22.4l-0.1-0.5c0,0,0-0.1,0.1-0.1h0c0,0,0.1,0,0.1,0.1
		L31.8,22.4C31.8,22.4,31.8,22.4,31.8,22.4z"/>
	<path class="st9" d="M32.3,22.5L32.3,22.5C32.2,22.5,32.2,22.5,32.3,22.5L32.2,22c0,0,0-0.1,0.1-0.1h0c0,0,0.1,0,0.1,0.1L32.3,22.5
		C32.3,22.5,32.3,22.5,32.3,22.5z"/>
</g>
<path id="path5210_2_" class="st14" d="M24,41.9V32h11.5v15.6L24,41.9z"/>
<path class="st15" d="M30.8,36.5v6.3c0,0.3-0.2,0.5-0.5,0.5h0c-0.3,0-0.5-0.2-0.5-0.5v-6.3"/>
<path class="st15" d="M30.8,42.5c0,0,0.5-0.1,0.4,0.3h0.4c0,0,0-0.3,0.1-0.3c0,0,0.2-0.1,0.2,0.4c0,0,0,0.2,0.2,0.2
	c0,0,0.2,0,0.2-0.2v0h0.1v-0.7c0,0-0.4-0.1-0.4-0.5h-0.4c0,0,0,0.2-0.2,0.2c0,0-0.2,0-0.2-0.3c0-0.4,0.2-0.3,0.2-0.3
	c0.2,0,0.2,0.2,0.2,0.2h0.4c0-0.4,0.4-0.5,0.4-0.5v-0.7h-0.1v0c0-0.2-0.2-0.2-0.2-0.2C32,39.9,32,40,32,40c0,0.5-0.2,0.4-0.2,0.4
	c-0.2,0-0.1-0.3-0.1-0.3h-0.4c0.1,0.4-0.4,0.3-0.4,0.3V42.5z"/>
<ellipse class="st15" cx="30.3" cy="35.1" rx="2" ry="1.5"/>
<path class="st16" d="M30.8,34.6c0.3,0,0.5,0.2,0.5,0.5s-0.2,0.5-0.5,0.5h-1.1c-0.3,0-0.5-0.2-0.5-0.5s0.2-0.5,0.5-0.5
	c0,0,0.2,0,0.4,0.2c0,0,0.1,0.1,0.2,0C30.4,34.8,30.6,34.6,30.8,34.6z"/>
<path class="st3" d="M16.6,20.6c0,0,0.9,1.1,1,2.6c0,0,0.2,0.7,0,1.2s-0.1,1.7,0.2,2.5c0,0,0.9,2.4,0.6,3.9c0,0-0.1,1.5-0.3,1.8
	c0,0-0.2,0.5-0.1,0.9c0,0-0.3,1.6-1.6,2.5c0,0-0.9,0.9-1.4,1.6c0,0-0.6,0.8-1.4,1c0,0-2.1,1.3-2.1,2.5l0.1,1.4c0,0,0.4,1,1.1,0.9
	c0,0,0.6,0.1,0.7,0.2c0,0,0.4-0.4,0.8-0.3c0,0,0.4,0.2,0.4,0.5c0,0-2.6,0-4,0.8c0,0-1.3,0.8-1.6,1c0,0,0.2-0.9,0.9-1.1
	c0,0,0.3-0.9,0.7-1.3l0-1.1c0,0-0.6-0.5-0.4-1.6c0,0,0.1-0.5-0.3-0.4c0,0-1.1,0.8-1.3,0.1l-0.7-0.7l-0.3-0.5l-0.1-1L8,37.3l1.4-4.2
	l3.7-6.3l1.2-3l1.5-2.8l0.4-0.2l0.2-0.1L16.6,20.6z"/>
<path class="st4" d="M14.2,13.6c0,0,0.3-1.1-0.9-1.1c0,0-3.6-0.4-3.7,3.2c0,0,0,2.2,1.7,3.6c0,0,1.6,1.4,0.6,3.5
	c0,0-0.9,1.2-1.3,1.5c0,0-2.3,1.1-3.9,5.3c0,0-0.8,1.7-0.3,4.7c0,0-0.3,0-0.4-0.3c0,0-1.1-0.4-1.4,0.1c0,0-0.7,0.7-0.5,2
	c0,0,0.1,0.4,0,0.6c0,0-0.1,0.5,0,0.6c0,0,0.1,0.1,0.2-0.2c0,0,0.2-0.2,0.3,0c0,0,0.3,0.1,0.4-0.1c0,0,0,0.4,0.1,0.6
	c0,0,0.3,0.3,0.4,0.5c0,0,0.2,0.3,0.3,0.3c0,0,0.1-0.3,0.2-0.3c0,0,0.5,0,0.6,0.3c0,0,0.3,0.2,0.3,0.6c0,0,0,0.7,0.6,0.9
	c0,0,1,0.8,1.4,0.2c0,0,0.5-0.4,0.1-0.8l-0.7-0.5c0,0,0.6-0.6,0.6-1c0,0,0-0.7,0.3-0.7c0,0,0.2-0.1,0.4,0.1c0,0,0.3,0.3,0.5,0.2
	c0,0,0.3-0.1,0.3-0.8c0,0,0.2-0.8,0.6-1l0-0.4c0,0-0.9-0.2-0.9-0.8c0,0,0.3-0.2,0.6-0.8c0,0,0.1-0.2,0.1-0.5c0,0,0.1-0.4,0.3-0.2
	c0,0,0.5,0.4,0.7,0.3c0,0,0.7-0.7,0.7-1.1c0,0,0.2-0.4,0.4-0.4c0,0,0.1-0.3,0-0.5c0,0-0.2-0.6-0.7-0.6c0,0,0.2-0.7,0.5-1
	c0,0,0.5-0.5,0.5-1.2c0,0,0.5,0.1,0.6,0.3c0,0,0.2,0.2,0.3-0.1c0,0,0.4-1.3,0.7-1.6c0,0,0.4-0.5,0-0.7c0,0-1.1-0.2-0.7-0.5
	c0,0,0.4-0.5,0.5-1.1c0,0,0.2-0.5,0.5-0.3c0,0,0.7,0.4,0.7,0.1c0,0,0.3-1,0.9-1.7c0,0,0.2-0.3,0.1-0.6c0,0,0-0.4-0.5-0.2
	c0,0-0.5,0-0.4-0.4c0,0-0.1-0.2,0.5-0.7c0,0,0.3-0.6,0-1c0,0-0.3-0.5-0.7-0.8c0,0-1.4-1-1.2-1.5c0,0,0.2-0.4,0.8,0
	c0,0,1.9,0.9,2.7,0.2c0,0,0.4-0.2,0.6,0.3c0,0,0.6-1,0-1.5c0,0-0.4-0.4-1-0.6c0,0-1-0.6-1.4-1.1C16.5,15.1,15.1,13.6,14.2,13.6z"/>
<path class="st5" d="M13.1,14.4c0,0,0-0.2,0.3-0.2c0,0,0.1,0,0,0.3c0,0-0.7,1.5,0,2.9C13.4,17.3,12.5,16.3,13.1,14.4z"/>
<path class="st5" d="M13.9,15.3c0,0,0.3,0,0.4-0.3c0,0,0.1-0.1,0.2,0c0,0,0.2,0.3,0,0.4C14.5,15.3,14.2,15.4,13.9,15.3z"/>
<path class="st5" d="M17.1,16.5c0,0,0.2-0.4,0.8,0.1C17.8,16.6,17.4,16.8,17.1,16.5z"/>
<g>
	<path class="st5" d="M14.2,16.8c0.4-0.4,1.2-0.4,1.7-0.1l0,0c0.3,0.1,0.6,0.3,0.9,0.4c0.3,0.1,0.6,0.2,1,0.3
		c-0.3,0.3-0.7,0.4-1.1,0.4c-0.4,0-0.8-0.2-1.1-0.4l0,0l0,0C15.1,17.1,14.7,16.9,14.2,16.8z"/>
</g>
<g>
	<path class="st5" d="M18.5,17c0.1-0.1,0.2-0.1,0.3,0c0.1,0,0.1,0.1,0.2,0.2c0,0.1,0,0.1,0,0.2c0,0.1-0.1,0.1-0.2,0.2
		c-0.1,0-0.2-0.1-0.2-0.1c-0.1,0-0.1,0-0.1-0.1c0,0,0,0,0-0.1C18.5,17.2,18.5,17.1,18.5,17z"/>
</g>
<path class="st6" d="M4.9,36c0,0,0.3-0.3,0.6-0.1c0,0,0.4,0.2,0.6,0.8c0,0,0.3,0.5,0.5,0.3c0,0-0.2-0.9,0.2-0.8"/>
<path class="st17" d="M5.4,36.3c0,0-0.6-0.2-0.4,1"/>
<path class="st18" d="M5,37.4c0,0,0.6,0.7,0.7,0.3c0,0,0.1-0.2,0-0.5"/>
<line class="st18" x1="5.9" y1="37.9" x2="5.9" y2="38.2"/>
<path class="st6" d="M6.9,38.5c0,0-0.2-0.5-0.6-0.3c-0.2,0.1,0-0.4,0-0.4c0.1-0.1-0.1-0.2-0.1-0.2c-0.2-0.1-0.2-0.4-0.2-0.4"/>
<path class="st18" d="M10.8,34.4c0,0-0.3,0.5,0,0.7c0,0,0.5,0.1,0.5,0.4l0.3-0.4l0.1-1.3c0,0,0-0.3,0.8-1.1"/>
<path class="st5" d="M12.4,34.4c0,0-0.3,0.5-0.1,0.8c0,0,0.3,0.3,0.5-0.3c0,0,0.4-0.6,0.5-1c0,0,0.9-0.5,1-1.1c0,0-0.1-1.2,0.2-1.3
	c0,0,1.2-0.4,0.6-1.9c0,0-0.1-0.5-0.1-0.8c0,0,0-0.6-0.3-0.5c0,0-0.2-0.1-0.2,1.4c0,0,0.2,1.3-0.3,1.1c0,0-0.5-0.2-0.5,0.3
	c0,0-0.1,0.6,0.1,0.8c0,0,0.2,0.8-0.3,1.1c0,0-0.3,0.2-0.2-0.4c0,0,0.1-0.5-0.2-0.5c0,0-0.3,0-0.1,0.8c0,0,0,0.5-0.1,0.8L12.4,34.4z
	"/>
<path class="st3" d="M18.1,33.7c0,0,0.4,0.7,1.9,0.5c0,0,2.5-0.3,3.2-1.4c0,0,0.2-1,0.7-1.1c0,0-0.8-0.4-0.4-1.4c0,0,0-0.3,0.4-0.3
	c0,0,0.2-0.1,0.2-0.2c0,0,0.1-0.2,0.5-0.1c0,0-0.3,0.3-0.2,0.5c0,0,0.3,0.2,0.3,1.1V32c0,0-0.7,0.9-0.6,1.6c0,0,0.4,1.2,0.2,2.1
	c0,0-0.2,0.7,0.3,1.2c0,0-0.9,0.1-1.1-0.6c0,0,0-1.6-0.5-1.6c0,0-0.5-0.2-1,0.2c0,0-0.6,0.5-1.4,0.3c0,0-0.7,0.1-1.1,0.4
	c0,0-1.4,1.1-2.3-0.1C17.1,35.6,17.9,34.9,18.1,33.7z"/>
<path class="st5" d="M21.1,16.7l0.1-0.4c0,0,0,0,0,0l0.1-0.4c0,0,0.1-0.1,0.1-0.1l0.3,0c0,0,0.1,0,0.1,0.1c0,0.1,0.1,0.1,0.1,0.2
	c0.1,0.1,0.1,0.2,0.1,0.3s0,0.4,0,0.5c0,0,0,0.1-0.1,0.2c0,0.1-0.1,0.1-0.1,0.2h0c0,0-0.1,0-0.1,0l0,0c0,0,0,0,0,0L21.5,17
	c0,0,0,0-0.1,0l-0.2-0.1c0,0,0,0-0.1,0L21.1,16.7C21.1,16.8,21.1,16.7,21.1,16.7z"/>
<path class="st5" d="M48.8,16.8v-0.4c0,0,0,0,0,0l0.1-0.4c0,0,0.1-0.1,0.1-0.1h0.3c0,0,0.1,0,0.1,0c0,0,0.1,0.1,0.1,0.2
	c0.1,0,0.1,0.2,0.1,0.3c0,0.1,0.1,0.4,0.1,0.5c0,0,0,0.1,0,0.2c0,0.1-0.1,0.2-0.1,0.2l0,0c0,0-0.1,0-0.1,0l-0.1,0c0,0,0,0,0,0
	l-0.1-0.1c0,0,0,0-0.1,0L49,17c0,0,0,0-0.1,0L48.8,16.8C48.8,16.9,48.8,16.8,48.8,16.8z"/>
<ellipse class="st19" cx="21.7" cy="35.6" rx="0.1" ry="0.2"/>
<path class="st20" d="M21.6,16.9c0,0,0-0.3-0.3-0.5c0,0-0.3-1.1,0.1-2c0,0,0.6-1.5,1.1-2.3c0,0,1.5-2.1,1-3c0,0-0.7-1.8-2.5-0.5
	c0,0-1,0.6-1.2,3.5c0,0-0.9-3.8,1.7-4.9c0,0,2.7-0.8,3,2.2c0,0,0.8-0.5,0.3-3.6c0,0-0.1-1.1,0.1-2c0,0,0.5-1.9,2-2.6
	c0,0-1,1.4-1,2.8c0,0-0.1,1.6,0.1,1.9c0,0,0.6,2-0.5,3.4c0,0,1.9-3.1,2.1-3.6c0,0,2.5-4.7,4.6-2c0,0-1.5-1.1-2.4,0.4
	c0,0-0.9,1.4-1.1,1.6c0,0-0.5,0.7-0.7,1.5c0,0,0.9-0.4,1.7-1.1c0,0,0.4-0.3,0.9-0.3c0,0,0.5-0.1,0.7-0.3c0,0,2.1-1,4.1,0.7
	c0,0-1.4-0.9-3.4-0.4c0,0-0.5,0.1-1.7,0.8L32,6.5c0,0,1.1-0.2,1.7,0.6c0,0,0.3,0.2,0.7,1.2c0,0-1-1.1-1.5-1.3c0,0-0.6-0.3-1.3,0.1
	c0,0,1.8,0.9,1.4,3c0,0-0.5-3-2.6-2.5c0,0-0.9,0.3-1.4,0.9c0,0,2.3-0.3,3,1.7c0,0,0.3,1.3,0,2c0,0-0.4,0.7-0.3,1.1
	c0,0-0.1-0.8,0-1.3c0,0,0.3-1.4-1.4-2.3c0,0-1.4-0.6-1.8-0.2c0,0-0.8,1-1.7,1.2c0,0,2.9-0.2,3.3,1.5c0,0,0.2,0.8-0.2,1.8
	c0,0-1,1.9-1.4,2.3c0,0,0.9-2.3,0.8-2.5c0,0,0.3-1.1-0.3-1.5c0,0-0.2-1.1-1.9-0.9c0,0-0.5,0.1-1-0.1c0,0-0.8,0.6-1.1,0.6
	c0,0-1.3,0.8-1.6,1.6c0,0-0.5,0.6-0.7,1.1s-0.1,0.9-0.5,1.2C21.7,16.1,21.6,16.9,21.6,16.9z"/>
<path class="st5" d="M21.3,42c0,0-0.4-2-0.2-2.8c0,0,0.3-0.9,0.1-1c-0.1,0-0.5-1.5-0.2-2.5c0,0,0-0.6-0.2-0.9c0,0-0.4-1.4,0.1-1.9
	c0,0,0.2-0.1-0.1-0.4c0,0-0.9-1.7-0.2-2.8c0,0,0.1-0.2-0.2-0.5c0,0-0.7-0.8,0.1-3.1c0,0,0-0.2-0.1-0.3c0,0,0-0.8,0-0.8
	c0,0,0.2-0.5,0.2-0.5c0,0,0.1-0.3,0.1-0.4c0,0-0.1-0.4-0.1-0.4l0.1-0.5c0,0,0.2-0.4,0-0.6c0,0-0.5-1.2,0.3-2c0,0,0.1-0.2-0.1-0.3
	l0.1-1.6c0,0,0-0.4-0.2-0.5c0,0-0.3-0.4,0.1-1l0.6,0.4l0.1,0.5l0,0.5v1.6l-0.1,0.7l-0.2,1.5l0,1.1l0,1.7c0,0-0.2,0.6-0.1,1L21.1,28
	l0.1,0.5v0.3L21.1,29c0,0-0.1,0.5,0.1,0.9l0.1,2l0.3,0.4c0,0,0.1,0.7,0,1l0,1.3l0.2,0.6c0,0,0.2,0.8,0,1.3l0.1,1.6
	c0,0,0.1,0.8,0,1.1l0,1.8l0.2,0.8v0.5l-0.3,0.1L21.3,42z"/>
<path class="st20" d="M21.3,45.4c0,0-0.2-1.6,0.2-1.6c0,0,0.9-0.1,0.9,1.1v0.9L21.3,45.4z"/>
<path class="st20" d="M21.5,43.8c0,0-0.5-0.4-0.2-1.8c0,0,0.2-0.3,0.1-0.6c0,0,0.8-0.1,0.9,1c0,0,0.1,1.3-0.1,1.7
	C22.2,44.1,21.9,43.8,21.5,43.8z"/>
<path class="st19" d="M21.4,38.6c0,0,0.5,0.2,0.5,0.9c0,0,0.2,1.9-0.3,1.9c0,0-0.6,0.2-0.5-0.9C21.2,40.5,21,38.5,21.4,38.6z"/>
<path class="st20" d="M21.3,35.7c0,0-0.5,0-0.4,1.5c0,0,0,1.2,0.5,1.2c0,0,0.5,0.1,0.5-0.9C21.9,37.4,22,35.9,21.3,35.7z"/>
<path class="st20" d="M21.3,33c0,0-0.2,0-0.2,0.2c0,0-0.2,0.2-0.2,0.2c0,0-0.2,0.3,0,1.3c0,0,0.1,0.8,0.6,0.8c0,0,0.5,0,0.5-0.5
	C21.8,34.9,21.8,32.7,21.3,33z"/>
<path class="st20" d="M20.8,29.5c0,0,0.4,0.1,0.6,0.8c0,0,0.6,2.3-0.2,2.4c0,0-0.7,0.1-0.8-1.8C20.4,30.9,20.3,29.8,20.8,29.5z"/>
<path class="st20" d="M20.9,26c0,0-0.6-0.1-0.6,2.1c0,0,0,1.2,0.5,1.2c0,0,0.5,0.1,0.6-1.3C21.3,28,21.5,26.2,20.9,26z"/>
<path class="st20" d="M20.8,23.3c0,0,0.5-0.5,0.7,0.7c0,0,0.2,1.8-0.5,2c0,0-0.5,0.1-0.6-0.8c0,0,0-0.4,0.2-0.6c0,0,0.2-0.3,0-0.5
	C20.6,24,20.4,23.5,20.8,23.3z"/>
<path class="st20" d="M21.3,20.9c0,0-0.6,0-0.6,1c0,0,0,0.9,0.3,1c0,0,0,0,0.1,0c0.4,0,0.5-0.8,0.5-0.8S21.8,21,21.3,20.9z"/>
<path class="st20" d="M21.4,18.7c0,0-0.7,0.1-0.6,1c0,0,0,0.8,0.5,0.9c0,0,0.4,0.1,0.4-0.6C21.7,20,21.9,18.7,21.4,18.7z"/>
<path class="st20" d="M21.2,16.4c-0.1,0.3-0.7,1.6,0.1,2.1c0,0,0,0,0,0c0.1,0,0.3,0,0.4-0.8c0,0,0.1-0.7-0.1-0.9
	C21.6,16.9,21.4,16.7,21.2,16.4C21.3,16.4,21.2,16.4,21.2,16.4z"/>
<g>
	<path class="st5" d="M24.3,9.8c0.1,0.3,0,0.7-0.2,0.9l0,0c-0.1,0.2-0.3,0.4-0.3,0.6l0,0c-0.1,0.3-0.2,0.6-0.5,0.7
		c0.3-0.1,0.4-0.4,0.4-0.7l0,0c0-0.3,0.1-0.4,0.3-0.6l0,0c0.2-0.2,0.2-0.5,0.2-0.8L24.3,9.8z"/>
</g>
<g>
	<path class="st5" d="M29,7.3c-0.2,0.3-0.5,0.6-0.7,0.8c-0.3,0.2-0.6,0.5-1,0.5l0,0c0.4-0.1,0.6-0.3,0.9-0.5
		C28.5,7.8,28.8,7.5,29,7.3L29,7.3z"/>
</g>
<g>
	<path class="st5" d="M30.3,6.7c-0.2,0.2-0.5,0.3-0.8,0.3c0.1-0.1,0.2-0.2,0.4-0.3C30,6.7,30.1,6.6,30.3,6.7z"/>
</g>
<g>
	<path class="st5" d="M28,9.1c-0.2,0.2-0.5,0.3-0.7,0.4l0,0c-0.1,0.1-0.2,0.1-0.3,0.2c-0.1,0-0.2,0-0.3,0.1
		c-0.2,0.1-0.3,0.2-0.5,0.3c0.1-0.2,0.2-0.3,0.4-0.4c0.1,0,0.2,0,0.3-0.1c0.1,0,0.2-0.1,0.2-0.1l0,0l0,0C27.5,9.3,27.7,9.1,28,9.1z"
		/>
</g>
<ellipse class="st19" cx="48.9" cy="35.6" rx="0.1" ry="0.2"/>
<path class="st21" d="M49,16.9c0,0,0-0.3,0.3-0.5c0,0,0.3-1.1-0.1-2c0,0-0.6-1.5-1.1-2.3c0,0-1.5-2.1-1-3c0,0,0.7-1.8,2.5-0.5
	c0,0,1,0.6,1.2,3.5c0,0,0.9-3.8-1.7-4.9c0,0-2.7-0.8-3,2.2c0,0-0.8-0.5-0.3-3.6c0,0,0.1-1.1-0.1-2c0,0-0.5-1.9-2-2.6
	c0,0,1,1.4,1,2.8c0,0,0.1,1.6-0.1,1.9c0,0-0.6,2,0.5,3.4c0,0-1.9-3.1-2.1-3.6c0,0-2.5-4.7-4.6-2c0,0,1.5-1.1,2.4,0.4
	c0,0,0.9,1.4,1.1,1.6c0,0,0.5,0.7,0.7,1.5c0,0-0.9-0.4-1.7-1.1c0,0-0.4-0.3-0.9-0.3c0,0-0.5-0.1-0.7-0.3c0,0-2.1-1-4.1,0.7
	c0,0,1.4-0.9,3.4-0.4c0,0,0.5,0.1,1.7,0.8l-1.7-0.2c0,0-1.1-0.2-1.7,0.6c0,0-0.3,0.2-0.7,1.2c0,0,1-1.1,1.5-1.3c0,0,0.6-0.3,1.3,0.1
	c0,0-1.8,0.9-1.4,3c0,0,0.5-3,2.6-2.5c0,0,0.9,0.3,1.4,0.9c0,0-2.3-0.3-3,1.7c0,0-0.3,1.3,0,2c0,0,0.4,0.7,0.3,1.1
	c0,0,0.1-0.8,0-1.3c0,0-0.3-1.4,1.4-2.3c0,0,1.4-0.6,1.8-0.2c0,0,0.8,1,1.7,1.2c0,0-2.9-0.2-3.3,1.5c0,0-0.2,0.8,0.2,1.8
	c0,0,1,1.9,1.4,2.3c0,0-0.9-2.3-0.8-2.5c0,0-0.3-1.1,0.3-1.5c0,0,0.2-1.1,1.9-0.9c0,0,0.5,0.1,1-0.1c0,0,0.8,0.6,1.1,0.6
	c0,0,1.3,0.8,1.6,1.6c0,0,0.5,0.6,0.7,1.1c0.2,0.5,0.1,0.9,0.5,1.2C49,16.1,49,16.9,49,16.9z"/>
<path class="st5" d="M49.4,42c0,0,0.4-2,0.2-2.8c0,0-0.3-0.9-0.1-1c0.1,0,0.5-1.5,0.2-2.5c0,0,0-0.6,0.2-0.9c0,0,0.4-1.4-0.1-1.9
	c0,0-0.2-0.1,0.1-0.4c0,0,0.9-1.7,0.2-2.8c0,0-0.1-0.2,0.2-0.5c0,0,0.7-0.8-0.1-3.1c0,0,0-0.2,0.1-0.3c0,0,0-0.8,0-0.8
	s-0.2-0.5-0.2-0.5S50,24.2,50,24.2c0,0,0.1-0.4,0.1-0.4L50,23.3c0,0-0.2-0.4,0-0.6c0,0,0.5-1.2-0.3-2c0,0-0.1-0.2,0.1-0.3l-0.1-1.6
	c0,0,0-0.4,0.2-0.5c0,0,0.3-0.4-0.1-1l-0.6,0.4L49,18.4l0,0.5v1.6l0.1,0.7l0.2,1.5l0,1.1l0,1.7c0,0,0.2,0.6,0.1,1l0.1,1.5l-0.1,0.5
	v0.3l0.1,0.2c0,0,0.1,0.5-0.1,0.9l-0.1,2l-0.3,0.4c0,0-0.1,0.7,0,1l0,1.3l-0.2,0.6c0,0-0.2,0.8,0,1.3L48.8,38c0,0-0.1,0.8,0,1.1
	l0,1.8l-0.2,0.8v0.5l0.3,0.1L49.4,42z"/>
<path class="st19" d="M49.3,45.4c0,0,0.2-1.6-0.2-1.6c0,0-0.9-0.1-0.9,1.1v0.9L49.3,45.4z"/>
<path class="st20" d="M49.2,43.8c0,0,0.5-0.4,0.2-1.8c0,0-0.2-0.3-0.1-0.6c0,0-0.8-0.1-0.9,1c0,0-0.1,1.3,0.1,1.7
	C48.5,44.1,48.7,43.8,49.2,43.8z"/>
<path class="st19" d="M49.2,38.6c0,0-0.5,0.2-0.5,0.9c0,0-0.2,1.9,0.3,1.9c0,0,0.6,0.2,0.5-0.9C49.5,40.5,49.6,38.5,49.2,38.6z"/>
<path class="st20" d="M49.3,35.7c0,0,0.5,0,0.4,1.5c0,0,0,1.2-0.5,1.2c0,0-0.5,0.1-0.5-0.9C48.7,37.4,48.7,35.9,49.3,35.7z"/>
<path class="st20" d="M49.4,33c0,0,0.2,0,0.2,0.2c0,0,0.2,0.2,0.2,0.2c0,0,0.2,0.3,0,1.3c0,0-0.1,0.8-0.6,0.8c0,0-0.5,0-0.5-0.5
	C48.8,34.9,48.8,32.7,49.4,33z"/>
<path class="st20" d="M49.8,29.5c0,0-0.4,0.1-0.6,0.8c0,0-0.6,2.3,0.2,2.4c0,0,0.7,0.1,0.8-1.8C50.2,30.9,50.3,29.8,49.8,29.5z"/>
<path class="st20" d="M49.7,26c0,0,0.6-0.1,0.6,2.1c0,0,0,1.2-0.5,1.2c0,0-0.5,0.1-0.6-1.3C49.3,28,49.1,26.2,49.7,26z"/>
<path class="st20" d="M49.9,23.3c0,0-0.5-0.5-0.7,0.7c0,0-0.2,1.8,0.5,2c0,0,0.5,0.1,0.6-0.8c0,0,0-0.4-0.2-0.6c0,0-0.2-0.3,0-0.5
	C50.1,24,50.3,23.5,49.9,23.3z"/>
<path class="st20" d="M49.3,20.9c0,0,0.6,0,0.6,1c0,0,0,0.9-0.3,1c0,0,0,0-0.1,0c-0.4,0-0.5-0.8-0.5-0.8S48.9,21,49.3,20.9z"/>
<path class="st20" d="M49.3,18.7c0,0,0.7,0.1,0.6,1c0,0,0,0.8-0.5,0.9c0,0-0.4,0.1-0.4-0.6C48.9,20,48.7,18.7,49.3,18.7z"/>
<path class="st20" d="M49.4,16.4c0.1,0.3,0.7,1.6-0.1,2.1c0,0,0,0,0,0c-0.1,0-0.3,0-0.4-0.8c0,0-0.1-0.7,0.1-0.9
	C49,16.9,49.2,16.7,49.4,16.4C49.4,16.4,49.4,16.4,49.4,16.4z"/>
<g>
	<path class="st5" d="M46.2,9.4c-0.1,0.3,0,0.7,0.2,1l0,0c0.1,0.2,0.3,0.5,0.3,0.7l0,0c0.1,0.3,0.2,0.7,0.5,0.8
		c-0.3-0.1-0.5-0.5-0.5-0.8l0,0l0,0c0-0.3-0.2-0.5-0.3-0.7l0,0C46.1,10.1,46.1,9.7,46.2,9.4L46.2,9.4z"/>
</g>
<g>
	<path class="st5" d="M41.6,7.3c0.3,0.2,0.6,0.5,0.9,0.7c0.1,0.1,0.3,0.2,0.4,0.3c0.1,0.1,0.3,0.2,0.5,0.3l0,0
		C43,8.5,42.7,8.2,42.4,8C42.1,7.8,41.9,7.6,41.6,7.3L41.6,7.3z"/>
</g>
<g>
	<path class="st5" d="M40.3,6.7c0.2,0,0.3,0,0.4,0c0.1,0.1,0.3,0.1,0.4,0.3C40.8,6.9,40.6,6.9,40.3,6.7z"/>
</g>
<g>
	<path class="st5" d="M41.7,8.5c0.3,0.1,0.6,0.3,0.9,0.4l0,0l0,0C42.7,9,42.8,9,42.9,9.1c0.1,0,0.2,0,0.3,0.1
		c0.2,0.1,0.4,0.3,0.5,0.5c-0.1-0.2-0.3-0.3-0.5-0.4c-0.1,0-0.2,0-0.3-0.1c-0.1,0-0.2-0.1-0.3-0.2l0,0C42.3,8.8,42,8.7,41.7,8.5z"/>
</g>
<g>
	<path class="st22" d="M10.5,48.8c0,0,2.7,3.3,6-0.9c0,0,0.9-2.3,1.1-5.1c0,0,0.5-3.3,3.9-3.7c0,0,3.6,0,4,4.3c0,0,0.2,1.5,0,2
		c0,0-0.3,0.8-0.3,1.6c0,0-0.8,3.3-1.1,4c0,0-0.9,1.4,0,1.4c0,0,0.3,0.1,0.9-0.3c0,0,1.5-0.7,2.4,0.1c0,0,1.1,0.8,0.8,1.1
		c0,0-0.1,0.2-1,0c0,0-1.2-0.3-1.9,0.3c0,0-0.6,0.4-1.7,0.3c0,0-2.2-0.1-2.1-2.2c0,0,0.2-3,1.4-5.8c0,0,1.6-4.2-1-4.3
		c0,0-2.3,0-2,2.9c0,0,0.1,5.5-2.7,7.4c0,0-4,2.8-7.7-0.6C9.8,51.2,9.8,49.6,10.5,48.8z"/>
	<g>
		<path class="st11" d="M9.8,50.7c0,0,0.7,0.7,1.4,1"/>
		<path class="st11" d="M9.9,50c0,0,0.5,0.7,1.4,1.1"/>
		<path class="st11" d="M10.1,49.5c0,0,0.8,0.8,1.5,1.1"/>
		<path class="st11" d="M15.5,50.1c0,0,0.9,0.6,1.1,1.9"/>
		<path class="st11" d="M15.9,49.8c0,0,1.1,1,1.1,1.8"/>
		<path class="st11" d="M16.2,49.4c0,0,1.2,0.9,1.3,1.7"/>
		<path class="st11" d="M16.6,49c0,0,1.2,0.7,1.4,1.5"/>
		<path class="st11" d="M16.9,48.5c0,0,1.2,0.6,1.4,1.5"/>
		<path class="st11" d="M17.4,47.8c0,0,1.4,0.9,1.4,1.6"/>
		<path class="st11" d="M18.1,43c0,0,1.1,0.3,1.6,1.3"/>
		<path class="st11" d="M18.2,42.4c0,0,1.3,0.3,1.8,1.1"/>
		<path class="st11" d="M18.3,41.7c0,0,1.3,0.3,1.7,1.1"/>
		<path class="st11" d="M18.7,41.1c0,0,1.5,0.5,1.7,1.2"/>
		<path class="st11" d="M19.3,40.3c0,0,1.4,0.8,1.5,1.4"/>
		<path class="st11" d="M20.1,39.7c0,0,1.1,0.9,1.1,1.8"/>
		<line class="st11" x1="23" y1="39.9" x2="23" y2="41.4"/>
		<path class="st11" d="M24.5,43c0,0,0.2-0.3,0.8,0"/>
		<path class="st11" d="M24.4,43.8c0,0,0.4-0.4,0.9,0"/>
		<path class="st11" d="M24,44.5c0,0,0.5-0.7,1.3-0.1"/>
		<path class="st11" d="M23.7,45c0,0,0.7-0.5,1.7,0"/>
	</g>
	<path class="st11" d="M22.6,49.3c0,0-0.5,2-0.2,2.9c0,0,0.4,1.9,3.2,0.9"/>
	<path class="st11" d="M24,50.1c0,0-0.1,0.6-0.2,0.8c0,0-0.8,1.1,0.1,1.6c0,0,0.9,0.3,1.4-0.2"/>
</g>
<g>
	<path class="st22" d="M60.9,49c0,0-2.7,3.3-6-0.9c0,0-0.9-2.3-1.1-5.1c0,0-0.5-3.3-3.9-3.7c0,0-3.6,0-4,4.3c0,0-0.2,1.5,0,2
		c0,0,0.3,0.8,0.3,1.6c0,0,0.8,3.3,1.1,4c0,0,0.9,1.4,0,1.4c0,0-0.3,0.1-0.9-0.3c0,0-1.5-0.7-2.4,0.1c0,0-1.1,0.8-0.8,1.1
		c0,0,0.1,0.2,1,0c0,0,1.2-0.3,1.9,0.3c0,0,0.6,0.4,1.7,0.3c0,0,2.2-0.1,2.1-2.2c0,0-0.2-3-1.4-5.8c0,0-1.6-4.2,1-4.3
		c0,0,2.3,0,2,2.9c0,0-0.1,5.5,2.7,7.4c0,0,4,2.8,7.7-0.6C61.7,51.4,61.7,49.8,60.9,49z"/>
	<g>
		<path class="st11" d="M61.7,50.8c0,0-0.7,0.7-1.4,1"/>
		<path class="st11" d="M61.5,50.2c0,0-0.5,0.7-1.4,1.1"/>
		<path class="st11" d="M61.3,49.7c0,0-0.8,0.8-1.5,1.1"/>
		<path class="st11" d="M55.9,50.3c0,0-0.9,0.6-1.1,1.9"/>
		<path class="st11" d="M55.6,49.9c0,0-1.1,1-1.1,1.8"/>
		<path class="st11" d="M55.2,49.5c0,0-1.2,0.9-1.3,1.7"/>
		<path class="st11" d="M54.9,49.1c0,0-1.2,0.7-1.4,1.5"/>
		<path class="st11" d="M54.5,48.7c0,0-1.2,0.6-1.4,1.5"/>
		<path class="st11" d="M54,48c0,0-1.4,0.9-1.4,1.6"/>
		<path class="st11" d="M53.4,43.2c0,0-1.1,0.3-1.6,1.3"/>
		<path class="st11" d="M53.3,42.6c0,0-1.3,0.3-1.8,1.1"/>
		<path class="st11" d="M53.2,41.9c0,0-1.3,0.3-1.7,1.1"/>
		<path class="st11" d="M52.7,41.2c0,0-1.5,0.5-1.7,1.2"/>
		<path class="st11" d="M52.2,40.5c0,0-1.4,0.8-1.5,1.4"/>
		<path class="st11" d="M51.3,39.8c0,0-1.1,0.9-1.1,1.8"/>
		<line class="st11" x1="48.4" y1="40.1" x2="48.4" y2="41.5"/>
		<path class="st11" d="M47,43.2c0,0-0.2-0.3-0.8,0"/>
		<path class="st11" d="M47.1,43.9c0,0-0.4-0.4-0.9,0"/>
		<path class="st11" d="M47.5,44.6c0,0-0.5-0.7-1.3-0.1"/>
		<path class="st11" d="M47.7,45.1c0,0-0.7-0.5-1.7,0"/>
	</g>
	<path class="st11" d="M48.9,49.5c0,0,0.5,2,0.2,2.9c0,0-0.4,1.9-3.2,0.9"/>
	<path class="st11" d="M47.5,50.2c0,0,0.1,0.6,0.2,0.8c0,0,0.8,1.1-0.1,1.6c0,0-0.9,0.3-1.4-0.2"/>
</g>
<path id="path5208_1_" class="st14" d="M46.9,18.4H35.4V32h11.5V18.4z"/>
<path class="st23" d="M40.3,30.3c0,0,0.2,0.2,0.3,0.2c0.1,0.1,0.1,0.1,0.2,0.1c0.1-0.1,0.4-0.2,0.5-0.1c0.1,0,0.3,0.2,0.4,0.1
	s0.3-0.3,0.4-0.3c0.1,0,0.2-0.1,0.2-0.1s-0.2-0.1-0.3-0.1c-0.1,0-0.4-0.4-0.4-0.4s0.1-0.9,0-1s-0.1-1.4,0-1.5c0.1-0.1,0-1.2,0.1-1.2
	s0.5,0.3,0.5,0.3L42,25.8c0,0,0.3,0.2,0.4,0.2s0.1,0,0.1,0s0.2-0.4,0.1-0.5s-0.3-0.1-0.3-0.1s0.3-0.1,0.4-0.1s0.2,0,0.2,0
	s0.1-0.2,0.1-0.3c0-0.1-0.2-0.2-0.2-0.2l0-0.2c0,0,0.3,0,0.3,0c0,0,0.1-0.3,0-0.3c-0.1,0-0.2-0.1-0.2-0.1h-0.2l0-0.2
	c0,0-0.1-0.2-0.2,0s-0.3,0-0.3-0.1c0.1-0.1,0.2-0.3,0.2-0.3s0-0.3-0.2-0.2c-0.2,0.1-0.3,0.1-0.4-0.1c-0.1-0.1-0.2-0.3-0.1-0.3
	c0.1-0.1,0.1-0.2,0-0.2c-0.1,0-0.3-0.1-0.3-0.2c0,0-0.1,0.2-0.2,0.2c-0.1,0-0.3,0-0.2,0.1c0,0.1,0.2,0.3,0,0.4
	c-0.1,0.1-0.2,0.2-0.3,0.2c-0.1,0-0.1-0.2-0.3,0c-0.2,0.1-0.2,0.3-0.1,0.4c0.1,0,0.3,0.2,0.2,0.3c-0.1,0.1-0.3-0.1-0.4-0.1
	c0,0-0.2,0-0.2,0.1c0,0.1,0,0.1-0.1,0.2c-0.1,0-0.2,0.1-0.2,0.2s0,0.2,0,0.2l0.3-0.1c0,0,0.1,0.1,0.1,0.2c0,0.1-0.1,0.3-0.1,0.5
	s0.2,0.1,0.2,0.1s0.2-0.2,0.3-0.1c0,0.1-0.1,0.3-0.1,0.4c0,0,0,0.3,0,0.3s0.3-0.1,0.4-0.1c0.1,0,0,0.3,0,0.4c0.1,0,0.3-0.2,0.4-0.1
	s0,0.3,0,0.4c0,0.1,0.1,0.7,0.1,0.7s0.1,0.6,0.1,0.8c0,0.2,0,0.6-0.1,0.7c-0.1,0.1,0,1,0,1s-0.2,0.2-0.3,0.2s-0.3,0.1-0.3,0.1
	L40.3,30.3z"/>
<path class="st23" d="M37.1,27.1c0,0,0.2,0.2,0.3,0.2s0.1,0.1,0.2,0.1c0.1-0.1,0.4-0.2,0.5-0.1c0.1,0,0.3,0.2,0.4,0.1
	s0.3-0.3,0.4-0.3c0.1,0,0.2-0.1,0.2-0.1s-0.2-0.1-0.3-0.1s-0.4-0.4-0.4-0.4s0.1-0.9,0-1c-0.1-0.1-0.1-1.4,0-1.5
	c0.1-0.1,0-1.2,0.1-1.2s0.5,0.3,0.5,0.3l-0.1-0.6c0,0,0.3,0.2,0.4,0.2s0.1,0,0.1,0s0.2-0.4,0.1-0.5S39,22.2,39,22.2s0.3-0.1,0.4-0.1
	s0.2,0,0.2,0s0.1-0.2,0.1-0.3s-0.2-0.2-0.2-0.2l0-0.2c0,0,0.3,0,0.3,0c0,0,0.1-0.3,0-0.3S39.6,21,39.6,21h-0.2l0-0.2
	c0,0-0.1-0.2-0.2,0c-0.1,0.2-0.3,0-0.3-0.1s0.2-0.3,0.2-0.3s0-0.3-0.2-0.2c-0.2,0.1-0.3,0.1-0.4-0.1s-0.2-0.3-0.1-0.3
	c0.1-0.1,0.1-0.2,0-0.2c-0.1,0-0.3-0.1-0.3-0.2c0,0-0.1,0.2-0.2,0.2c-0.1,0-0.3,0-0.2,0.1c0,0.1,0.2,0.3,0,0.4
	c-0.1,0.1-0.2,0.2-0.3,0.2s-0.1-0.2-0.3,0c-0.2,0.1-0.2,0.3-0.1,0.4c0.1,0,0.3,0.2,0.2,0.3c-0.1,0.1-0.3-0.1-0.4-0.1
	c0,0-0.2,0-0.2,0.1s0,0.1-0.1,0.2c-0.1,0-0.2,0.1-0.2,0.2c0,0.2,0,0.2,0,0.2l0.3-0.1c0,0,0.1,0.1,0.1,0.2c0,0.1-0.1,0.3-0.1,0.5
	c0,0.1,0.2,0.1,0.2,0.1s0.2-0.2,0.3-0.1c0,0.1-0.1,0.3-0.1,0.4c0,0,0,0.3,0,0.3s0.3-0.1,0.4-0.1s0,0.3,0,0.4c0.1,0,0.3-0.2,0.4-0.1
	c0.1,0,0,0.3,0,0.4c0,0.1,0.1,0.7,0.1,0.7s0.1,0.6,0.1,0.8s0,0.6-0.1,0.7c-0.1,0.1,0,1,0,1s-0.2,0.2-0.3,0.2s-0.3,0.1-0.3,0.1
	L37.1,27.1z"/>
<path class="st23" d="M43.7,27.1c0,0,0.2,0.2,0.3,0.2s0.1,0.1,0.2,0.1c0.1-0.1,0.4-0.2,0.5-0.1c0.1,0,0.3,0.2,0.4,0.1
	s0.3-0.3,0.4-0.3c0.1,0,0.2-0.1,0.2-0.1s-0.2-0.1-0.3-0.1S45,26.5,45,26.5s0.1-0.9,0-1c-0.1-0.1-0.1-1.4,0-1.5
	c0.1-0.1,0-1.2,0.1-1.2s0.5,0.3,0.5,0.3l-0.1-0.6c0,0,0.3,0.2,0.4,0.2s0.1,0,0.1,0s0.2-0.4,0.1-0.5c-0.1-0.1-0.3-0.1-0.3-0.1
	s0.3-0.1,0.4-0.1c0.1,0,0.2,0,0.2,0s0.1-0.2,0.1-0.3c0-0.1-0.2-0.2-0.2-0.2l0-0.2c0,0,0.3,0,0.3,0s0.1-0.3,0-0.3S46.3,21,46.3,21
	h-0.2l0-0.2c0,0-0.1-0.2-0.2,0s-0.3,0-0.3-0.1c0.1-0.1,0.2-0.3,0.2-0.3s0-0.3-0.2-0.2c-0.2,0.1-0.3,0.1-0.4-0.1
	C45,20,45,19.9,45,19.8c0.1-0.1,0.1-0.2,0-0.2c-0.1,0-0.3-0.1-0.3-0.2c0,0-0.1,0.2-0.2,0.2c-0.1,0-0.3,0-0.2,0.1
	c0,0.1,0.2,0.3,0,0.4c-0.1,0.1-0.2,0.2-0.3,0.2s-0.1-0.2-0.3,0s-0.2,0.3-0.1,0.4c0.1,0,0.3,0.2,0.2,0.3c-0.1,0.1-0.3-0.1-0.4-0.1
	c0,0-0.2,0-0.2,0.1s0,0.1-0.1,0.2c-0.1,0-0.2,0.1-0.2,0.2c0,0.2,0,0.2,0,0.2l0.3-0.1c0,0,0.1,0.1,0.1,0.2s-0.1,0.3-0.1,0.5
	s0.2,0.1,0.2,0.1s0.2-0.2,0.3-0.1c0,0.1-0.1,0.3-0.1,0.4c0,0,0,0.3,0,0.3s0.3-0.1,0.4-0.1s0,0.3,0,0.4c0.1,0,0.3-0.2,0.4-0.1
	s0,0.3,0,0.4c0,0.1,0.1,0.7,0.1,0.7s0.1,0.6,0.1,0.8s0,0.6-0.1,0.7c-0.1,0.1,0,1,0,1s-0.2,0.2-0.3,0.2s-0.3,0.1-0.3,0.1L43.7,27.1z"
	/>
<path class="st24" d="M8.4,47c0,0,2.1-5.1,11.8-1.9c0,0,6.3,2.5,15.3,2.6c0,0,7.3,0.3,17-3c0,0,6.7-2.3,10.6,2.4
	c0,0-0.7,1.4-0.7,2.3c0,0-0.2,1.5-0.6,1.9c0,0,0.5-2.2-2.3-3.1c0,0-3.7-1.2-8.9,0.8c0,0-9.6,3-15,2.5c0,0-9.9-0.2-14.2-2.3
	c0,0-11.6-4.4-11.5,2.1c0,0-0.9-1.1-0.9-1.8C8.8,49.4,8.7,47.6,8.4,47z"/>
<g>
	<path class="st5" d="M12,47.1c0.1,0,0.1-0.1,0.2-0.1c0-0.1,0-0.1,0-0.2c0-0.1-0.1-0.1-0.3-0.2c-0.1,0-0.1,0-0.2-0.1
		c-0.1,0-0.1,0-0.2,0c-0.1,0-0.1,0-0.2,0c-0.1,0-0.1,0-0.2-0.1C11.1,46.2,11,46.2,11,46c-0.1-0.1,0-0.3,0-0.4
		c0.1-0.1,0.2-0.2,0.3-0.3c0.1,0,0.2-0.1,0.2-0.1c0.1,0,0.2,0,0.2,0c0,0.1,0.1,0.1,0.1,0.2c0,0.1,0.1,0.1,0.1,0.2c0,0,0,0,0,0
		c-0.1,0-0.1,0-0.1,0c0-0.1-0.1-0.2-0.2-0.2c-0.1-0.1-0.2-0.1-0.3-0.1c-0.1,0-0.1,0.1-0.1,0.1c0,0.1,0,0.1,0,0.2
		c0,0.1,0.2,0.2,0.6,0.3c0.1,0,0.1,0,0.2,0c0.1,0,0.1,0,0.2,0.1c0.1,0.1,0.2,0.2,0.3,0.3c0.1,0.1,0,0.3,0,0.4
		c-0.1,0.1-0.2,0.2-0.3,0.3c-0.2,0.1-0.3,0.1-0.5,0.1c-0.1-0.1-0.1-0.2-0.2-0.3c0-0.1-0.1-0.1-0.1-0.1c0,0,0,0,0,0c0,0,0,0,0,0
		c0,0,0,0,0,0c0,0.1,0.1,0.2,0.2,0.2C11.8,47.1,11.9,47.1,12,47.1z"/>
	<path class="st5" d="M14,46.8c-0.3,0-0.6,0-0.8,0.1c0,0,0,0,0-0.1c0,0,0,0,0-0.1c0.1,0,0.1,0,0.1,0c0,0,0,0,0,0c0,0,0-0.1,0-0.1
		c0,0,0-0.1,0-0.2l-0.1-1.4l-0.3,0c-0.1,0-0.1,0.1-0.2,0.1c-0.1,0.1-0.1,0.2-0.1,0.3c0,0,0,0,0,0c0,0-0.1,0-0.1,0l0-0.5c0,0,0,0,0,0
		c0,0,0,0,0,0c0,0,0,0,0,0c0,0,0,0,0.1,0c0.1,0,0.1,0,0.2,0l1-0.1c0.1,0,0.2,0,0.3-0.1c0,0,0,0,0,0c0,0,0,0,0,0l0.1,0.5
		c0,0,0,0-0.1,0c0,0,0,0,0,0c0-0.1-0.1-0.2-0.1-0.2C14,45,13.9,45,13.8,45l-0.3,0l0.1,1.4c0,0.1,0,0.2,0,0.3c0,0,0.1,0,0.2,0
		C13.9,46.7,14,46.7,14,46.8C14,46.8,14,46.8,14,46.8z"/>
	<path class="st5" d="M16.2,45.4C16.1,45.4,16.1,45.4,16.2,45.4c-0.1,0-0.1,0-0.1,0c0-0.1-0.1-0.2-0.1-0.2c0-0.1-0.1-0.1-0.2-0.1
		l-0.2,0c0,0-0.1,0-0.1,0c0,0,0,0-0.1,0c0,0,0,0.1,0,0.2l0,0.5c0,0,0,0,0.1,0l0.2,0c0.1,0,0.1,0,0.2,0c0,0,0,0,0.1-0.1
		c0,0,0-0.1,0-0.1c0,0,0,0,0,0s0,0,0,0l0,0.6c0,0,0,0-0.1,0c0,0,0,0,0,0c0-0.1,0-0.2-0.1-0.2c0,0-0.1,0-0.2,0s-0.2,0-0.2,0l0,0.5
		c0,0.1,0,0.2,0,0.2c0,0,0.1,0.1,0.2,0.1l0.2,0c0.1,0,0.2,0,0.3-0.1c0.1-0.1,0.1-0.1,0.2-0.3c0,0,0,0,0,0c0.1,0,0.1,0,0.1,0
		c0,0,0,0.1-0.1,0.1c0,0,0,0.1-0.1,0.1c0,0.1-0.1,0.2-0.1,0.2c-0.3,0-0.7-0.1-1-0.1l-0.4,0c0,0,0,0,0-0.1c0,0,0,0,0-0.1
		c0,0,0,0,0.1,0c0.1,0,0.1,0,0.1,0c0,0,0-0.1,0-0.3l0.1-1.1c0-0.1,0-0.2,0-0.3c0,0-0.1-0.1-0.2-0.1c0,0,0,0,0-0.1c0,0,0,0,0-0.1
		c0.1,0,0.1,0,0.2,0l0.2,0l0.9,0.1C16.1,45.1,16.1,45.2,16.2,45.4z"/>
	<path class="st5" d="M17.2,45.1c0.1,0,0.3,0,0.4,0c0,0,0,0,0,0.1c0,0,0,0,0,0.1c-0.1,0-0.1,0-0.1,0c0,0-0.1,0-0.1,0
		c0,0,0,0.1,0,0.1c0,0,0,0.1,0,0.2l-0.2,1.1c0,0.1,0,0.1,0,0.2c0,0,0.1,0.1,0.2,0.1l0.2,0c0.1,0,0.2,0,0.3,0c0.1,0,0.1-0.1,0.2-0.2
		c0,0,0,0,0,0c0.1,0,0.1,0,0.1,0c0,0,0,0.1-0.1,0.1c0,0,0,0.1-0.1,0.1c-0.1,0.1-0.1,0.2-0.1,0.2c-0.3-0.1-0.7-0.1-1-0.2l-0.4-0.1
		c0,0,0,0,0-0.1c0,0,0,0,0-0.1c0,0,0,0,0.1,0c0.1,0,0.1,0,0.1,0c0,0,0-0.1,0.1-0.3l0.2-1.1c0-0.1,0-0.2,0-0.3c0,0-0.1-0.1-0.2-0.1
		c0,0,0,0,0-0.1c0,0,0,0,0-0.1C16.9,45.1,17,45.1,17.2,45.1z"/>
	<path class="st5" d="M18.9,45.5c0.1,0,0.3,0.1,0.4,0.1c0,0,0,0,0,0.1c0,0,0,0,0,0.1c-0.1,0-0.1,0-0.1,0c0,0-0.1,0-0.1,0
		c0,0,0,0.1-0.1,0.1c0,0,0,0.1,0,0.2L18.8,47c0,0.1,0,0.1,0,0.2c0,0,0.1,0.1,0.2,0.1l0.2,0c0.1,0,0.2,0,0.3,0c0.1,0,0.1-0.1,0.2-0.2
		c0,0,0,0,0,0c0.1,0,0.1,0,0.1,0c0,0,0,0.1-0.1,0.1c0,0-0.1,0.1-0.1,0.1c-0.1,0.1-0.1,0.2-0.1,0.2c-0.3-0.1-0.7-0.2-1-0.2l-0.4-0.1
		c0,0,0,0,0-0.1c0,0,0,0,0,0c0,0,0,0,0.1,0c0.1,0,0.1,0,0.1,0c0,0,0.1-0.1,0.1-0.3l0.3-1c0-0.1,0-0.2,0-0.3c0,0-0.1-0.1-0.2-0.1
		c0,0,0,0,0-0.1s0,0,0,0C18.7,45.4,18.8,45.4,18.9,45.5z"/>
	<path class="st5" d="M20.2,47.8c-0.1-0.1-0.2-0.1-0.3-0.1c-0.1,0-0.2,0-0.3-0.1c0,0,0,0,0,0s0,0,0-0.1c0,0,0.1,0,0.1,0
		c0,0,0.1,0,0.1,0c0.1-0.1,0.1-0.1,0.2-0.2l1-1.2c0,0,0,0,0.1-0.1c0,0,0.1,0,0.1,0c0,0,0,0,0,0l0.1,1.6c0,0.1,0,0.1,0,0.1
		c0,0,0,0.1,0,0.1c0,0,0,0.1,0,0.1c0,0,0,0,0.1,0.1c0,0,0.1,0,0.1,0c0,0,0,0,0,0.1c0,0,0,0,0,0c-0.2-0.1-0.3-0.1-0.4-0.2
		C21,48,20.8,48,20.7,48c0,0,0,0,0-0.1c0,0,0,0,0,0c0.1,0,0.1,0,0.2,0c0,0,0,0,0,0c0,0,0-0.1,0-0.3l0-0.2l0,0l-0.6-0.2c0,0,0,0,0,0
		c0,0,0,0.1-0.1,0.1c0,0-0.1,0.1-0.1,0.1c-0.1,0.1-0.1,0.1-0.1,0.2c0,0,0,0,0,0.1c0,0,0,0,0.1,0.1c0,0,0.1,0,0.1,0.1
		C20.2,47.7,20.2,47.7,20.2,47.8C20.2,47.8,20.2,47.8,20.2,47.8z M20.4,47c0,0,0,0,0.1,0.1l0.2,0.1c0,0,0.1,0,0.1,0l0,0l0,0
		l-0.1-0.6L20.4,47L20.4,47z"/>
	<path class="st5" d="M24.2,48.6C24.2,48.6,24.3,48.6,24.2,48.6c0.1,0.1,0.1,0.1,0,0.2C24.1,48.9,24.1,49,24,49c-0.1,0-0.2,0-0.3,0
		c-0.1,0-0.2,0-0.4-0.1c-0.1,0-0.2-0.1-0.3-0.2c-0.1-0.1-0.2-0.2-0.2-0.3c-0.1-0.2-0.2-0.5-0.1-0.7c0.1-0.3,0.2-0.5,0.5-0.6
		c0.2-0.1,0.5-0.1,0.8-0.1c0.2,0.1,0.4,0.1,0.6,0.2l0,0.5c0,0,0,0,0,0c0,0,0,0-0.1,0c0,0,0,0,0,0c0-0.1,0-0.2-0.1-0.3
		c-0.1-0.1-0.2-0.2-0.4-0.3c-0.2-0.1-0.4,0-0.5,0.1c-0.1,0.1-0.2,0.3-0.3,0.5c-0.1,0.2-0.1,0.5,0,0.6c0.1,0.2,0.2,0.4,0.4,0.4
		c0.2,0.1,0.4,0,0.5-0.1C24.1,48.7,24.1,48.7,24.2,48.6C24.2,48.6,24.2,48.6,24.2,48.6z"/>
	<path class="st5" d="M25.3,47.5c0.1,0,0.3,0,0.4,0.1c0,0,0,0,0,0.1c0,0,0,0,0,0.1c-0.1,0-0.1,0-0.1,0c0,0-0.1,0-0.1,0
		c0,0,0,0.1,0,0.1c0,0,0,0.1,0,0.2L25.1,49c0,0.1,0,0.1,0,0.2c0,0,0.1,0.1,0.2,0.1l0.2,0c0.1,0,0.2,0,0.3,0c0.1,0,0.1-0.1,0.2-0.2
		c0,0,0,0,0,0c0.1,0,0.1,0,0.1,0c0,0,0,0.1-0.1,0.1c0,0,0,0.1-0.1,0.1c-0.1,0.1-0.1,0.2-0.1,0.2c-0.3-0.1-0.7-0.1-1-0.2l-0.4-0.1
		c0,0,0,0,0-0.1c0,0,0,0,0-0.1c0,0,0,0,0.1,0c0.1,0,0.1,0,0.1,0c0,0,0-0.1,0.1-0.3l0.2-1.1c0-0.1,0-0.2,0-0.3c0,0-0.1-0.1-0.2-0.1
		c0,0,0,0,0-0.1c0,0,0,0,0,0C25,47.4,25.1,47.4,25.3,47.5z"/>
	<path class="st5" d="M26.7,49.7c-0.1,0-0.2-0.1-0.3-0.1c-0.1,0-0.2,0-0.3,0c0,0,0,0,0,0c0,0,0,0,0-0.1c0,0,0.1,0,0.1,0
		c0,0,0.1,0,0.1,0c0-0.1,0.1-0.1,0.1-0.2l0.8-1.3c0,0,0,0,0.1-0.1c0,0,0.1,0,0.1,0c0,0,0,0,0,0l0.4,1.6c0,0,0,0.1,0,0.1
		c0,0,0,0.1,0,0.1c0,0,0,0.1,0,0.1c0,0,0,0,0.1,0c0,0,0.1,0,0.1,0c0,0,0,0,0,0.1c0,0,0,0,0,0c-0.2,0-0.3-0.1-0.4-0.1
		c-0.1,0-0.2,0-0.4,0c0,0,0,0,0-0.1c0,0,0,0,0,0c0.1,0,0.1,0,0.2,0c0,0,0,0,0,0c0,0,0-0.1,0-0.3l-0.1-0.2l0,0L26.8,49c0,0,0,0,0,0
		c0,0,0,0.1-0.1,0.1c0,0,0,0.1-0.1,0.1c-0.1,0.1-0.1,0.1-0.1,0.2c0,0,0,0,0,0.1c0,0,0,0,0.1,0c0,0,0.1,0,0.1,0
		C26.7,49.6,26.7,49.6,26.7,49.7C26.7,49.7,26.7,49.7,26.7,49.7z M26.8,48.9c0,0,0,0,0.2,0l0.2,0c0,0,0.1,0,0.1,0l0,0l0,0l-0.1-0.6
		L26.8,48.9L26.8,48.9z"/>
	<path class="st5" d="M29.2,48.2c-0.1,0-0.2,0-0.2,0.1c0,0,0,0.1,0,0.2l0.3,1c0.1-0.2,0.2-0.3,0.3-0.5c0.1-0.1,0.1-0.2,0.1-0.3
		c0.1-0.1,0.1-0.2,0.1-0.2c0,0,0-0.1,0-0.1c0,0,0-0.1,0-0.1c0,0,0,0-0.1-0.1c-0.1,0-0.1,0-0.2,0c0,0,0,0,0-0.1c0,0,0,0,0-0.1
		c0.2,0,0.3,0.1,0.3,0.1c0.1,0,0.1,0,0.2,0c0,0,0.1,0,0.2,0c0,0,0,0,0,0.1c0,0,0,0,0,0.1c-0.1,0-0.2,0-0.2,0c0,0-0.1,0.1-0.1,0.2
		L29.2,50c0,0,0,0-0.1,0.1c0,0-0.1,0-0.1,0c0,0,0,0,0,0c0,0,0,0,0,0l-0.5-1.6c0,0,0-0.1,0-0.1c0,0,0-0.1,0-0.1c0,0,0-0.1-0.1-0.1
		c0,0-0.1,0-0.1,0c0,0,0,0,0-0.1c0,0,0,0,0-0.1c0.1,0,0.3,0.1,0.4,0.1c0.1,0,0.3,0,0.4,0C29.2,48.1,29.2,48.1,29.2,48.2
		C29.2,48.2,29.2,48.2,29.2,48.2z"/>
	<path class="st5" d="M30.6,48.3c0.1,0,0.3,0,0.4,0.1c0.1,0,0.3,0,0.4,0c0,0,0,0,0,0.1c0,0,0,0,0,0.1c-0.1,0-0.1,0-0.1,0
		c0,0-0.1,0-0.1,0c0,0,0,0.1,0,0.1c0,0,0,0.1,0,0.2L31,49.8c0,0.1,0,0.1,0,0.2c0,0,0,0.1,0,0.1c0,0,0,0,0,0c0,0,0,0,0,0
		c0,0,0.1,0,0.1,0c0,0,0,0,0,0.1c0,0,0,0,0,0.1c-0.3-0.1-0.6-0.1-0.8-0.1c0,0,0,0,0-0.1c0,0,0,0,0-0.1c0.1,0,0.1,0,0.1,0
		c0,0,0,0,0.1,0c0,0,0-0.1,0-0.3l0.1-1.1c0-0.1,0-0.2,0-0.3c0,0-0.1-0.1-0.2-0.1C30.5,48.3,30.5,48.3,30.6,48.3
		C30.5,48.3,30.5,48.3,30.6,48.3z"/>
	<path class="st5" d="M32.1,50.2c0.1,0,0.1,0,0.2,0c0.1,0,0.1-0.1,0.1-0.2c0-0.1,0-0.2-0.1-0.3c0,0-0.1-0.1-0.1-0.1
		c0,0-0.1-0.1-0.1-0.1c0,0-0.1-0.1-0.1-0.1c0,0-0.1-0.1-0.1-0.1c-0.1-0.1-0.1-0.2-0.1-0.4c0-0.1,0.1-0.3,0.2-0.4
		c0.1-0.1,0.3-0.1,0.4-0.1c0.1,0,0.2,0,0.2,0s0.2,0,0.2,0.1c0,0.1,0,0.2,0,0.2s0,0.2,0,0.3c0,0,0,0,0,0c-0.1,0-0.1,0-0.1,0
		c0-0.1,0-0.2-0.1-0.3c-0.1-0.1-0.2-0.2-0.3-0.2c-0.1,0-0.1,0-0.2,0c-0.1,0-0.1,0.1-0.1,0.2c0,0.1,0.1,0.3,0.4,0.5
		c0,0,0.1,0.1,0.1,0.1c0,0,0.1,0.1,0.1,0.1c0.1,0.1,0.1,0.2,0.1,0.4c0,0.2-0.1,0.3-0.2,0.4c-0.1,0.1-0.3,0.1-0.4,0.1
		c-0.2,0-0.4-0.1-0.6-0.1c0-0.2,0-0.3,0-0.4c0-0.1,0-0.1,0-0.1c0,0,0,0,0,0c0,0,0,0,0.1,0c0,0,0,0,0,0c0,0.1,0.1,0.2,0.1,0.3
		C31.8,50.2,32,50.2,32.1,50.2z"/>
	<path class="st5" d="M35.1,50.7C35.1,50.7,35.1,50.7,35.1,50.7L35.1,50.7c-0.1,0.1-0.2,0.1-0.3,0.2c-0.1,0-0.2,0-0.3,0
		c-0.1,0-0.2,0-0.2-0.1c-0.1,0-0.1-0.1-0.2-0.1c-0.1,0-0.1-0.1-0.2-0.2c-0.1-0.1-0.1-0.1-0.2-0.1c-0.2-0.1-0.4-0.2-0.5-0.4
		c-0.1-0.2-0.2-0.4-0.2-0.6c0-0.1,0-0.3,0.1-0.4c0.1-0.1,0.1-0.2,0.2-0.3c0.2-0.2,0.4-0.3,0.7-0.3c0.1,0,0.3,0,0.4,0.1
		c0.1,0.1,0.2,0.1,0.3,0.2c0.1,0.1,0.2,0.2,0.2,0.3c0,0.1,0.1,0.2,0.1,0.4c0,0.1,0,0.2-0.1,0.3c0,0.1-0.1,0.2-0.2,0.3
		c-0.1,0.2-0.3,0.3-0.5,0.3c0.1,0,0.1,0.1,0.2,0.1c0,0,0.1,0.1,0.1,0.1c0.1,0,0.2,0.1,0.3,0.1C34.9,50.7,34.9,50.7,35.1,50.7
		C35,50.7,35.1,50.7,35.1,50.7z M34.2,48.7c-0.1-0.1-0.2-0.1-0.3-0.1c-0.1,0-0.2,0-0.2,0.1c-0.1,0-0.1,0.1-0.2,0.2
		c-0.1,0.1-0.1,0.3-0.1,0.5c0,0.3,0,0.5,0.1,0.7c0.1,0.2,0.2,0.3,0.4,0.3c0.2,0,0.3-0.1,0.4-0.2c0.1-0.1,0.1-0.3,0.1-0.5
		c0-0.3,0-0.5-0.1-0.7C34.3,48.9,34.3,48.8,34.2,48.7z"/>
	<path class="st5" d="M36.6,48.6c0.2,0,0.3,0,0.4,0c0.1,0,0.1,0,0.2,0c0.1,0,0.1,0,0.2,0c0,0,0,0,0,0.1c0,0,0,0,0,0.1
		c-0.1,0-0.1,0-0.2,0c0,0-0.1,0-0.1,0c0,0.1-0.1,0.2-0.1,0.4l0,0.6c0,0.3-0.1,0.5-0.3,0.6c-0.2,0.1-0.3,0.2-0.6,0.2
		c-0.1,0-0.2,0-0.3-0.1c-0.1,0-0.2-0.1-0.2-0.2c-0.1-0.1-0.1-0.2-0.1-0.3s0-0.2,0-0.4l0-0.6c0-0.1,0-0.1,0-0.2c0,0,0-0.1,0-0.1
		c0,0,0,0,0,0c0,0,0,0-0.1,0c0,0-0.1,0-0.1,0c0,0,0,0,0-0.1c0,0,0,0,0-0.1c0.1,0,0.3,0,0.4,0c0.1,0,0.3,0,0.4,0c0,0,0,0,0,0.1
		c0,0,0,0,0,0.1c-0.1,0-0.1,0-0.1,0c0,0-0.1,0-0.1,0c0,0,0,0.1,0,0.3l0,0.5c0,0.1,0,0.2,0,0.3c0,0.1,0,0.2,0,0.2
		c0,0.1,0.1,0.1,0.1,0.2c0,0,0.1,0.1,0.1,0.1c0.1,0,0.1,0.1,0.2,0.1c0.1,0,0.1,0,0.2,0c0.1,0,0.1-0.1,0.2-0.1
		c0.1-0.1,0.2-0.3,0.2-0.5l0-0.5c0-0.2,0-0.3,0-0.4c0,0,0,0-0.1,0c-0.1,0-0.1,0-0.1,0C36.5,48.7,36.5,48.7,36.6,48.6
		C36.5,48.7,36.5,48.6,36.6,48.6z"/>
	<path class="st5" d="M38.9,49C38.9,49,38.9,49,38.9,49c-0.1,0-0.1,0-0.1,0c0-0.1-0.1-0.1-0.1-0.2c0-0.1-0.1-0.1-0.2-0.1l-0.2,0
		c0,0-0.1,0-0.1,0c0,0,0,0,0,0c0,0,0,0.1,0,0.2l0,0.5c0,0,0,0,0.1,0l0.2,0c0.1,0,0.1,0,0.2,0s0,0,0.1-0.1c0,0,0-0.1,0-0.1
		c0,0,0,0,0,0c0,0,0,0,0.1,0l0,0.6c0,0,0,0-0.1,0c0,0,0,0,0,0c0-0.1-0.1-0.2-0.1-0.2c0,0-0.1,0-0.2,0c-0.1,0-0.2,0-0.2,0.1l0,0.5
		c0,0.1,0,0.1,0,0.2c0,0,0.1,0.1,0.2,0l0.2,0c0.1,0,0.2,0,0.3-0.1c0.1-0.1,0.1-0.2,0.1-0.3c0,0,0,0,0,0c0.1,0,0.1,0,0.1,0
		c0,0,0,0.1,0,0.1c0,0,0,0.1,0,0.1c0,0.1,0,0.2-0.1,0.2c-0.3,0-0.7,0-1,0.1l-0.4,0c0,0,0,0,0-0.1s0,0,0-0.1c0,0,0,0,0.1,0
		c0.1,0,0.1,0,0.1-0.1c0,0,0-0.1,0-0.3l-0.1-1.1c0-0.1,0-0.2,0-0.3c0,0-0.1,0-0.2,0c0,0,0,0,0-0.1c0,0,0,0,0-0.1c0.1,0,0.1,0,0.2,0
		l0.2,0l0.9-0.1C38.8,48.7,38.8,48.8,38.9,49z"/>
	<path class="st5" d="M40.4,49.9l-0.1-1.2c0,0,0-0.1-0.1-0.1c-0.1,0-0.1,0-0.2,0c0,0,0,0,0-0.1c0,0,0,0,0,0c0.1,0,0.1,0,0.2,0
		c0,0,0.1,0,0.2,0l0.3-0.1l0.7,1.1l0,0c0,0,0,0,0,0l0.1-0.3c0.1-0.5,0.2-0.8,0.2-0.9l0,0l0.1,0l0.1,0c0,0,0.2,0,0.4-0.1c0,0,0,0,0,0
		c0,0,0,0,0,0.1c0,0,0,0-0.1,0c0,0-0.1,0-0.1,0c0,0,0,0.1,0,0.1s0,0.1,0,0.2c0,0.1,0,0.2,0.1,0.3c0,0.1,0,0.2,0.1,0.4
		c0,0.1,0,0.2,0.1,0.3c0,0.2,0.1,0.3,0.1,0.3c0,0,0.1,0,0.2,0c0,0,0,0,0,0c0,0,0,0.1,0,0.1c-0.2,0-0.3,0-0.4,0c-0.1,0-0.2,0-0.4,0.1
		c0,0,0,0,0,0c0,0,0,0,0-0.1c0.1,0,0.1,0,0.1,0c0,0,0,0,0.1,0c0,0,0-0.1,0-0.1l0-0.2l-0.2-0.9c0-0.1,0-0.2-0.1-0.2c0,0,0,0,0,0
		l-0.3,1.5c0,0,0,0.1-0.1,0.1s0,0-0.1,0c0,0,0,0,0,0l-0.9-1.4c0,0.1,0,0.3,0,0.4s0,0.2,0,0.3c0,0.2,0,0.4,0,0.4c0,0.1,0,0.2,0,0.3
		c0,0,0.1,0.1,0.2,0.1c0,0,0,0,0,0c0,0,0,0,0,0.1c0,0,0,0,0,0.1c-0.1,0-0.1,0-0.2,0c-0.1,0-0.1,0-0.2,0c-0.1,0-0.2,0-0.4,0.1
		c0,0,0-0.1,0-0.1c0.1,0,0.1,0,0.2-0.1c0,0,0.1-0.1,0.1-0.1c0,0,0,0,0-0.1s0,0,0-0.1C40.4,50,40.4,50,40.4,49.9
		C40.4,49.9,40.4,49.9,40.4,49.9z"/>
	<path class="st5" d="M43.4,49.9c-0.2,0-0.3,0-0.3,0c-0.1,0-0.2,0-0.3,0.1c0,0,0,0,0,0c0,0,0,0,0-0.1c0,0,0.1,0,0.1-0.1
		s0.1-0.1,0.1-0.1c0-0.1,0-0.1,0.1-0.2l0.3-1.5c0,0,0,0,0-0.1c0,0,0-0.1,0.1-0.1s0,0,0.1,0l0.9,1.3c0,0,0.1,0.1,0.1,0.1
		c0,0,0,0.1,0.1,0.1c0,0,0,0,0.1,0.1c0,0,0.1,0,0.1,0c0,0,0.1,0,0.1,0c0,0,0,0,0,0.1c0,0,0,0,0,0c-0.2,0-0.3,0-0.4,0.1
		c-0.1,0-0.2,0.1-0.4,0.1c0,0,0,0,0-0.1c0,0,0,0,0,0c0.1,0,0.1,0,0.2-0.1c0,0,0,0,0,0c0,0-0.1-0.1-0.1-0.2l-0.1-0.2l0,0l-0.6,0.1
		c0,0,0,0,0,0c0,0,0,0.1,0,0.1c0,0,0,0.1,0,0.1c0,0.1,0,0.2,0,0.2c0,0,0,0,0,0.1c0,0,0,0,0.1,0c0,0,0.1,0,0.1,0
		C43.4,49.8,43.4,49.8,43.4,49.9C43.5,49.8,43.5,49.9,43.4,49.9z M43.3,49.1c0,0,0.1,0,0.2,0l0.2,0c0,0,0.1,0,0.1,0l0,0l0,0
		l-0.3-0.5L43.3,49.1L43.3,49.1z"/>
	<path class="st5" d="M44.9,47.6l0.4-0.1c0.3-0.1,0.5,0,0.6,0.2c0,0.1,0.1,0.1,0.1,0.2c0,0.1,0,0.1,0,0.2c0,0.1,0,0.1-0.1,0.2
		c-0.1,0.1-0.1,0.2-0.2,0.2l0.5,0.4c0.1,0.1,0.2,0.1,0.4,0.2c0.1,0,0.1,0,0.2,0c0,0,0,0,0,0.1c0,0,0,0,0,0.1c-0.1,0-0.2,0.1-0.3,0.1
		s-0.2,0-0.3,0c-0.1,0-0.1-0.1-0.2-0.1l-0.6-0.5c0,0,0,0,0,0c0,0,0,0,0,0l0,0l0.1,0.4c0,0.1,0,0.1,0,0.2c0,0,0,0.1,0,0.1
		c0,0,0,0,0,0c0,0,0,0,0.1,0c0,0,0.1,0,0.1,0c0,0,0,0,0,0.1c0,0,0,0,0,0.1c-0.3,0-0.5,0.1-0.8,0.2c0,0,0,0,0,0c0,0,0,0,0-0.1
		c0.1,0,0.1,0,0.1-0.1c0,0,0,0,0,0c0,0,0-0.1,0-0.3l-0.2-1c0-0.1-0.1-0.2-0.1-0.3c0,0-0.1,0-0.2,0c0,0,0,0,0-0.1c0,0,0,0,0-0.1
		c0.1,0,0.1,0,0.2,0L44.9,47.6z M45.6,47.7c-0.1-0.1-0.2-0.1-0.3-0.1c0,0-0.1,0-0.1,0c0,0,0,0,0,0c0,0,0,0.1,0,0.2l0.1,0.6l0.1,0
		c0.1,0,0.1-0.1,0.2-0.2c0-0.1,0.1-0.2,0-0.3C45.7,47.8,45.6,47.7,45.6,47.7z"/>
	<path class="st5" d="M46.7,47.2c0.1,0,0.3,0,0.4-0.1c0.1,0,0.3-0.1,0.4-0.1c0,0,0,0,0,0c0,0,0,0,0,0.1c-0.1,0-0.1,0-0.1,0
		c0,0,0,0,0,0c0,0,0,0.1,0,0.1s0,0.1,0,0.2l0.3,1c0,0.1,0,0.1,0,0.2c0,0,0,0.1,0,0.1c0,0,0,0,0,0c0,0,0,0,0.1,0c0,0,0.1,0,0.1,0
		c0,0,0,0,0,0.1c0,0,0,0,0,0.1c-0.3,0-0.5,0.1-0.8,0.2c0,0,0,0,0,0c0,0,0,0,0-0.1c0.1,0,0.1,0,0.1-0.1c0,0,0,0,0,0c0,0,0-0.1,0-0.3
		l-0.3-1c0-0.1-0.1-0.2-0.1-0.3c0,0-0.1,0-0.2,0C46.7,47.2,46.7,47.2,46.7,47.2C46.7,47.2,46.7,47.2,46.7,47.2z"/>
	<path class="st5" d="M48.8,48.5c0.1,0,0.1-0.1,0.2-0.1c0-0.1,0.1-0.1,0-0.2c0-0.1-0.1-0.2-0.2-0.2c-0.1,0-0.1-0.1-0.2-0.1
		c-0.1,0-0.1,0-0.2-0.1c-0.1,0-0.1,0-0.2-0.1c-0.1,0-0.1,0-0.2-0.1c-0.1-0.1-0.2-0.2-0.2-0.3c0-0.1,0-0.3,0.1-0.4
		c0.1-0.1,0.2-0.2,0.4-0.3c0.1,0,0.2,0,0.2,0c0.1,0,0.2,0,0.3,0c0,0.1,0.1,0.1,0.1,0.2c0,0.1,0.1,0.2,0.1,0.2c0,0,0,0,0,0
		c-0.1,0-0.1,0-0.1,0c0-0.1-0.1-0.2-0.2-0.2c-0.1-0.1-0.2-0.1-0.3-0.1c-0.1,0-0.1,0-0.1,0.1c0,0-0.1,0.1,0,0.2
		c0,0.1,0.2,0.2,0.5,0.3c0.1,0,0.1,0,0.2,0.1c0.1,0,0.1,0,0.2,0.1c0.1,0.1,0.2,0.2,0.2,0.3c0,0.2,0,0.3-0.1,0.4
		c-0.1,0.1-0.2,0.2-0.4,0.3c-0.2,0-0.4,0.1-0.6,0.1c-0.1-0.1-0.1-0.3-0.1-0.3c0-0.1,0-0.1-0.1-0.1c0,0,0,0,0,0c0,0,0,0,0,0
		c0,0,0,0,0,0c0,0.1,0.1,0.2,0.2,0.2C48.5,48.5,48.7,48.5,48.8,48.5z"/>
	<path class="st5" d="M49.8,46.3c0.1,0,0.3-0.1,0.4-0.1c0.1,0,0.2-0.1,0.4-0.2c0,0,0,0,0,0c0,0,0,0,0,0.1c-0.1,0-0.1,0-0.1,0.1
		c0,0,0,0,0,0c0,0,0,0.1,0,0.1c0,0,0,0.1,0.1,0.2l0.4,1c0,0.1,0,0.1,0.1,0.2c0,0,0,0.1,0,0.1c0,0,0,0,0,0c0,0,0,0,0.1,0
		c0,0,0.1,0,0.1,0c0,0,0,0,0,0.1c0,0,0,0,0,0.1c-0.3,0.1-0.5,0.2-0.8,0.3c0,0,0,0,0,0c0,0,0,0,0-0.1c0.1,0,0.1,0,0.1-0.1
		c0,0,0,0,0-0.1c0,0,0-0.1-0.1-0.3l-0.4-1c-0.1-0.1-0.1-0.2-0.1-0.2c0,0-0.1,0-0.2,0C49.8,46.4,49.8,46.4,49.8,46.3
		C49.8,46.4,49.8,46.3,49.8,46.3z"/>
	<path class="st5" d="M50.9,46C50.9,45.9,50.9,45.9,50.9,46c0-0.1,0.1-0.1,0.1-0.1c0.1,0,0.1,0,0.2,0c0.1,0,0.2-0.1,0.3-0.1
		c0.1,0.1,0.4,0.3,0.9,0.7c0.1,0.1,0.2,0.2,0.4,0.3c0,0,0,0,0,0L52.6,46c0-0.2-0.1-0.3-0.1-0.4c0,0-0.1,0-0.2,0c0,0,0,0,0,0
		c0,0,0,0,0-0.1c0.1,0,0.1,0,0.2,0c0.1,0,0.1,0,0.2,0c0.1,0,0.2-0.1,0.3-0.1c0,0,0,0,0,0.1c0,0,0,0,0,0.1c-0.1,0-0.1,0-0.2,0.1
		s-0.1,0-0.1,0.1s0,0,0,0.1c0,0,0,0.1,0,0.1c0,0.1,0,0.1,0,0.2l0.3,1c0,0.2,0.1,0.3,0.1,0.4c0,0,0,0,0,0l0,0c0,0-0.1,0-0.1,0
		l-1.5-1.1l0.3,1c0,0.1,0.1,0.2,0.1,0.3c0,0,0.1,0,0.2,0c0,0,0,0,0,0c0,0,0,0,0,0.1s0,0,0,0.1c-0.2,0-0.3,0.1-0.4,0.1
		c-0.1,0-0.1,0-0.2,0.1s-0.1,0-0.2,0.1c0,0,0,0,0-0.1c0,0,0,0,0,0c0.1,0,0.1,0,0.1-0.1c0,0,0.1-0.1,0.1-0.1c0-0.1,0-0.1,0-0.3
		l-0.3-1c0-0.2-0.1-0.2-0.2-0.3C51,46,51,46,50.9,46C50.9,46,50.9,46,50.9,46z"/>
	<path class="st5" d="M53.7,45.2c0.1,0,0.3,0,0.4-0.1c0.3,0,0.6,0,0.8,0.1c0.2,0.1,0.4,0.4,0.4,0.6c0,0.3,0,0.6-0.2,0.8
		c-0.2,0.2-0.4,0.3-0.8,0.4c-0.3,0-0.6,0.1-0.8,0.1c0,0,0,0,0-0.1c0,0,0,0,0-0.1c0,0,0,0,0.1,0c0.1,0,0.1,0,0.1-0.1c0,0,0-0.1,0-0.3
		l-0.2-1.1c0-0.1,0-0.2-0.1-0.3c0,0-0.1,0-0.2,0c0,0,0,0,0-0.1c0,0,0,0,0-0.1c0.1,0,0.1,0,0.2,0L53.7,45.2z M53.9,45.3
		C53.9,45.3,53.9,45.4,53.9,45.3c0,0.1,0,0.3,0.1,0.7l0.1,0.7c0,0.1,0,0.1,0.1,0.2c0,0,0,0,0.1,0c0,0,0.1,0,0.1,0
		c0.2,0,0.4-0.1,0.5-0.3c0.1-0.1,0.1-0.4,0.1-0.6c0-0.3-0.1-0.5-0.3-0.6c-0.1-0.1-0.3-0.2-0.6-0.1C54,45.3,54,45.3,53.9,45.3
		C54,45.3,53.9,45.3,53.9,45.3z"/>
	<path class="st5" d="M55.6,45c0.1,0,0.3,0,0.4,0c0.1,0,0.3,0,0.4,0c0,0,0,0,0,0.1s0,0,0,0.1c-0.1,0-0.1,0-0.1,0s0,0-0.1,0
		c0,0,0,0.1,0,0.1c0,0,0,0.1,0,0.2l0,1.1c0,0.1,0,0.1,0,0.2c0,0,0,0.1,0,0.1c0,0,0,0,0,0c0,0,0,0,0.1,0c0,0,0.1,0,0.1,0
		c0,0,0,0,0,0.1c0,0,0,0,0,0.1c-0.3,0-0.6,0-0.8,0c0,0,0,0,0-0.1c0,0,0,0,0-0.1c0.1,0,0.1,0,0.1,0c0,0,0,0,0.1,0c0,0,0-0.1,0-0.3
		l0-1.1c0-0.1,0-0.2,0-0.3c0,0-0.1,0-0.2,0C55.6,45.1,55.6,45,55.6,45C55.6,45,55.6,45,55.6,45z"/>
	<path class="st5" d="M58.4,46.4C58.5,46.4,58.5,46.4,58.4,46.4c0.1,0.1,0.1,0.1,0.1,0.2c-0.1,0.2-0.1,0.3-0.1,0.3
		c-0.1,0-0.2,0.1-0.3,0.1c-0.1,0-0.2,0-0.4,0c-0.1,0-0.3,0-0.4-0.1c-0.1-0.1-0.2-0.1-0.3-0.2c-0.2-0.2-0.3-0.4-0.3-0.7
		c0-0.3,0.1-0.5,0.3-0.7c0.2-0.2,0.5-0.3,0.7-0.2c0.2,0,0.4,0,0.6,0.1l0.1,0.4c0,0,0,0,0,0c0,0,0,0-0.1,0c0,0,0,0,0,0
		c0-0.1-0.1-0.2-0.1-0.2c-0.1-0.1-0.2-0.2-0.4-0.2c-0.2,0-0.3,0.1-0.5,0.2c-0.1,0.1-0.1,0.3-0.2,0.5c0,0.3,0,0.5,0.1,0.6
		c0.1,0.2,0.3,0.3,0.5,0.3c0.2,0,0.3-0.1,0.5-0.2C58.3,46.5,58.4,46.5,58.4,46.4C58.4,46.4,58.4,46.4,58.4,46.4z"/>
	<path class="st5" d="M59,45.1c0.1,0,0.3,0.1,0.4,0.1c0.1,0,0.3,0,0.4,0.1c0,0,0,0,0,0.1c0,0,0,0,0,0.1c-0.1,0-0.1,0-0.1,0
		c0,0-0.1,0-0.1,0c0,0,0,0.1,0,0.1c0,0,0,0.1,0,0.2l-0.2,1.1c0,0.1,0,0.1,0,0.2c0,0,0,0.1,0,0.1c0,0,0,0,0,0c0,0,0,0,0,0
		c0,0,0.1,0,0.1,0c0,0,0,0,0,0.1c0,0,0,0,0,0.1c-0.3-0.1-0.5-0.1-0.8-0.2c0,0,0,0,0-0.1c0,0,0,0,0-0.1c0.1,0,0.1,0,0.1,0
		c0,0,0.1,0,0.1,0c0,0,0-0.1,0.1-0.3l0.2-1.1c0-0.1,0-0.2,0-0.3c0,0-0.1-0.1-0.2-0.1C59,45.2,59,45.2,59,45.1
		C59,45.1,59,45.1,59,45.1z"/>
</g>
</svg>
