<svg xmlns="http://www.w3.org/2000/svg" viewBox="0 0 4466 110" width="4466" height="110"><path d="M78.9 74.8s.9-1.1-.3-3c-1.1-1.7-8.5-5.2-15.2-12.7C56.7 51.6 52.9 43 52.9 43s-.1-1-2.1-.8c-1 .1-12.9 1.2-12.9 1.2s-2.8 2.3-.4 7.1c2.3 4.5 7.3 14.4 11.9 20C54 76.1 64.9 86.2 68 86.9c3.1.7 4.1.6 5-.5l5.9-11.6z" fill="#24a550"/><path d="M100 48s-1-1-3 0c-1.8.9-6 8-14 14s-17 9-17 9-1 0-1 2v13s2 3 7 1c4.7-1.9 15-6 21-10s17-14 18-17 1-4 0-5l-11-7z" fill="#fdd515"/><path d="M70.2 29.4s-.9 1.1.2 3c1 1.7 8.4 5.4 14.9 13s10.1 16.3 10.1 16.3.1 1 2.1.9c1-.1 13-.9 13-.9s2.9-2.2.5-7.1c-2.2-4.6-7-14.6-11.4-20.3-4.4-5.7-15.1-16-18.2-16.8-3.1-.8-4.1-.7-5 .3l-6.2 11.6z" fill="#252e64"/><path d="M48 56s1 1 3 0c1.8-.9 6-8 14-14s17-9 17-9 1 0 1-2V18s-2-3-7-1c-4.7 1.9-15 6-21 10S38 41 37 44s-1 4 0 5l11 7zM47.5 9c-2.519 0-4.937 1.002-6.718 2.782C39.002 13.563 38 15.981 38 18.5s1.002 4.937 2.782 6.718C42.563 26.998 44.981 28 47.5 28s4.937-1.002 6.718-2.782C55.998 23.437 57 21.019 57 18.5s-1.002-4.937-2.782-6.718C52.437 10.002 50.019 9 47.5 9z" fill="#e6203d"/><path d="M110.5 17c-2.006 0-3.961.635-5.584 1.814-1.623 1.179-2.831 2.843-3.451 4.75-.62 1.908-.62 3.964 0 5.872.62 1.907 1.828 3.571 3.451 4.75C106.539 35.365 108.494 36 110.5 36s3.961-.635 5.584-1.814c1.623-1.179 2.831-2.843 3.451-4.75.62-1.908.62-3.964 0-5.872-.62-1.907-1.828-3.571-3.451-4.75C114.461 17.635 112.506 17 110.5 17z" fill="#252e64"/><path d="M104.5 78c-2.519 0-4.937 1.002-6.718 2.782C96.002 82.563 95 84.981 95 87.5s1.002 4.937 2.782 6.718C99.563 95.998 101.981 97 104.5 97s4.937-1.002 6.718-2.782c1.78-1.781 2.782-4.199 2.782-6.718s-1.002-4.937-2.782-6.718C109.437 79.002 107.019 78 104.5 78z" fill="#fdd515"/><path d="M38.5 68c-2.006 0-3.961.635-5.584 1.814-1.623 1.179-2.831 2.843-3.451 4.75-.62 1.908-.62 3.964 0 5.872.62 1.907 1.828 3.571 3.451 4.75C34.539 86.365 36.494 87 38.5 87s3.961-.635 5.584-1.814c1.623-1.179 2.831-2.843 3.451-4.75.62-1.908.62-3.964 0-5.872-.62-1.907-1.828-3.571-3.451-4.75C42.461 68.635 40.506 68 38.5 68zM232.9 74.8s.9-1.1-.3-3c-1.1-1.7-8.5-5.2-15.2-12.7-6.7-7.5-10.5-16.1-10.5-16.1s-.1-1-2.1-.8c-1 .1-12.9 1.2-12.9 1.2s-2.8 2.3-.4 7.1c2.3 4.5 7.3 14.4 11.9 20 4.6 5.6 15.5 15.7 18.6 16.4 3.1.7 4.1.6 5-.5l5.9-11.6z" fill="#24a550"/><path d="M254 48s-1-1-3 0c-1.8.9-6 8-14 14s-17 9-17 9-1 0-1 2v13s2 3 7 1c4.7-1.9 15-6 21-10s17-14 18-17 1-4 0-5l-11-7z" fill="#fdd515"/><path d="M224.2 29.4s-.9 1.1.2 3c1 1.7 8.4 5.4 14.9 13s10.1 16.3 10.1 16.3.1 1 2.1.9c1-.1 13-.9 13-.9s2.9-2.2.5-7.1c-2.2-4.6-7-14.6-11.4-20.3-4.4-5.7-15.1-16-18.2-16.8-3.1-.8-4.1-.7-5 .3l-6.2 11.6z" fill="#252e64"/><path d="M202 56s1 1 3 0c1.8-.9 6-8 14-14s17-9 17-9 1 0 1-2V18s-2-3-7-1c-4.7 1.9-15 6-21 10s-17 14-18 17-1 4 0 5l11 7z" fill="#e6203d"/><path d="M205.81349 21.126966c-2.519 0-4.937 1.002-6.718 2.782-1.78 1.781-2.782 4.199-2.782 6.718s1.002 4.937 2.782 6.718c1.781 1.78 4.199 2.782 6.718 2.782s4.937-1.002 6.718-2.782c1.78-1.781 2.782-4.199 2.782-6.718s-1.002-4.937-2.782-6.718c-1.781-1.78-4.199-2.782-6.718-2.782z" fill="#e6203d"/><path d="M264.5 17c-2.006 0-3.961.635-5.584 1.814-1.623 1.179-2.831 2.843-3.451 4.75-.62 1.908-.62 3.964 0 5.872.62 1.907 1.828 3.571 3.451 4.75C260.539 35.365 262.494 36 264.5 36s3.961-.635 5.584-1.814c1.623-1.179 2.831-2.843 3.451-4.75.62-1.908.62-3.964 0-5.872-.62-1.907-1.828-3.571-3.451-4.75C268.461 17.635 266.506 17 264.5 17z" fill="#252e64"/><path d="M258.5 78c-2.519 0-4.937 1.002-6.718 2.782-1.78 1.781-2.782 4.199-2.782 6.718s1.002 4.937 2.782 6.718c1.781 1.78 4.199 2.782 6.718 2.782s4.937-1.002 6.718-2.782c1.78-1.781 2.782-4.199 2.782-6.718s-1.002-4.937-2.782-6.718C263.437 79.002 261.019 78 258.5 78z" fill="#fdd515"/><path d="M192.5 68c-2.006 0-3.961.635-5.584 1.814-1.623 1.179-2.831 2.843-3.451 4.75-.62 1.908-.62 3.964 0 5.872.62 1.907 1.828 3.571 3.451 4.75C188.539 86.365 190.494 87 192.5 87s3.961-.635 5.584-1.814c1.623-1.179 2.831-2.843 3.451-4.75.62-1.908.62-3.964 0-5.872-.62-1.907-1.828-3.571-3.451-4.75C196.461 68.635 194.506 68 192.5 68zM386.9 74.8s.9-1.1-.3-3c-1.1-1.7-8.5-5.2-15.2-12.7-6.7-7.5-10.5-16.1-10.5-16.1s-.1-1-2.1-.8c-1 .1-12.9 1.2-12.9 1.2s-2.8 2.3-.4 7.1c2.3 4.5 7.3 14.4 11.9 20 4.6 5.6 15.5 15.7 18.6 16.4 3.1.7 4.1.6 5-.5l5.9-11.6z" fill="#24a550"/><path d="M408 48s-1-1-3 0c-1.8.9-6 8-14 14s-17 9-17 9-1 0-1 2v13s2 3 7 1c4.7-1.9 15-6 21-10s17-14 18-17 1-4 0-5l-11-7z" fill="#fdd515"/><path d="M378.2 29.4s-.9 1.1.2 3c1 1.7 8.4 5.4 14.9 13s10.1 16.3 10.1 16.3.1 1 2.1.9c1-.1 13-.9 13-.9s2.9-2.2.5-7.1c-2.2-4.6-7-14.6-11.4-20.3-4.4-5.7-15.1-16-18.2-16.8-3.1-.8-4.1-.7-5 .3l-6.2 11.6z" fill="#252e64"/><path d="M356 56s1 1 3 0c1.8-.9 6-8 14-14s17-9 17-9 1 0 1-2V18s-2-3-7-1c-4.7 1.9-15 6-21 10s-17 14-18 17-1 4 0 5l11 7z" fill="#e6203d"/><path d="M364.591134 25.658427c-2.519 0-4.937 1.002-6.718 2.782-1.78 1.781-2.782 4.199-2.782 6.718s1.002 4.937 2.782 6.718c1.781 1.78 4.199 2.782 6.718 2.782s4.937-1.002 6.718-2.782c1.78-1.781 2.782-4.199 2.782-6.718s-1.002-4.937-2.782-6.718c-1.781-1.78-4.199-2.782-6.718-2.782z" fill="#e6203d" fill-opacity=".946658"/><path d="M417.699875 17.800125c-2.006 0-3.961.635-5.584 1.814-1.623 1.179-2.831 2.843-3.451 4.75-.62 1.908-.62 3.964 0 5.872.62 1.907 1.828 3.571 3.451 4.75 1.623 1.179 3.578 1.814 5.584 1.814s3.961-.635 5.584-1.814c1.623-1.179 2.831-2.843 3.451-4.75.62-1.908.62-3.964 0-5.872-.62-1.907-1.828-3.571-3.451-4.75-1.623-1.179-3.578-1.814-5.584-1.814z" fill="#252e64"/><path d="M412.5 78c-2.519 0-4.937 1.002-6.718 2.782-1.78 1.781-2.782 4.199-2.782 6.718s1.002 4.937 2.782 6.718c1.781 1.78 4.199 2.782 6.718 2.782s4.937-1.002 6.718-2.782c1.78-1.781 2.782-4.199 2.782-6.718s-1.002-4.937-2.782-6.718C417.437 79.002 415.019 78 412.5 78z" fill="#fdd515"/><path d="M346.5 68c-2.006 0-3.961.635-5.584 1.814-1.623 1.179-2.831 2.843-3.451 4.75-.62 1.908-.62 3.964 0 5.872.62 1.907 1.828 3.571 3.451 4.75C342.539 86.365 344.494 87 346.5 87s3.961-.635 5.584-1.814c1.623-1.179 2.831-2.843 3.451-4.75.62-1.908.62-3.964 0-5.872-.62-1.907-1.828-3.571-3.451-4.75C350.461 68.635 348.506 68 346.5 68zM540.9 74.8s.9-1.1-.3-3c-1.1-1.7-8.5-5.2-15.2-12.7-6.7-7.5-10.5-16.1-10.5-16.1s-.1-1-2.1-.8c-1 .1-12.9 1.2-12.9 1.2s-2.8 2.3-.4 7.1c2.3 4.5 7.3 14.4 11.9 20 4.6 5.6 15.5 15.7 18.6 16.4 3.1.7 4.1.6 5-.5l5.9-11.6z" fill="#24a550"/><path d="M562 48s-1-1-3 0c-1.8.9-6 8-14 14s-17 9-17 9-1 0-1 2v13s2 3 7 1c4.7-1.9 15-6 21-10s17-14 18-17 1-4 0-5l-11-7z" fill="#fdd515"/><path d="M532.2 29.4s-.9 1.1.2 3c1 1.7 8.4 5.4 14.9 13s10.1 16.3 10.1 16.3.1 1 2.1.9c1-.1 13-.9 13-.9s2.9-2.2.5-7.1c-2.2-4.6-7-14.6-11.4-20.3-4.4-5.7-15.1-16-18.2-16.8-3.1-.8-4.1-.7-5 .3l-6.2 11.6z" fill="#252e64"/><path d="M510 56s1 1 3 0c1.8-.9 6-8 14-14s17-9 17-9 1 0 1-2V18s-2-3-7-1c-4.7 1.9-15 6-21 10s-17 14-18 17-1 4 0 5l11 7z" fill="#e6203d"/><path d="M519.49543 26.991877c-2.519 0-4.937 1.002-6.718 2.782-1.78 1.781-2.782 4.199-2.782 6.718s1.002 4.937 2.782 6.718c1.781 1.78 4.199 2.782 6.718 2.782s4.937-1.002 6.718-2.782c1.78-1.781 2.782-4.199 2.782-6.718s-1.002-4.937-2.782-6.718c-1.781-1.78-4.199-2.782-6.718-2.782z" fill="#e6203d" fill-opacity=".278973"/><g><path d="M561.6846 27.8154c-2.006 0-3.961.635-5.584 1.814-1.623 1.179-2.831 2.843-3.451 4.75-.62 1.908-.62 3.964 0 5.872.62 1.907 1.828 3.571 3.451 4.75 1.623 1.179 3.578 1.814 5.584 1.814s3.961-.635 5.584-1.814c1.623-1.179 2.831-2.843 3.451-4.75.62-1.908.62-3.964 0-5.872-.62-1.907-1.828-3.571-3.451-4.75-1.623-1.179-3.578-1.814-5.584-1.814z" fill="#252e64" fill-opacity=".991291"/></g><g><path d="M566.34323 77.860648c-2.519 0-4.937 1.002-6.718 2.782-1.78 1.781-2.782 4.199-2.782 6.718s1.002 4.937 2.782 6.718c1.781 1.78 4.199 2.782 6.718 2.782s4.937-1.002 6.718-2.782c1.78-1.781 2.782-4.199 2.782-6.718s-1.002-4.937-2.782-6.718c-1.781-1.78-4.199-2.782-6.718-2.782z" fill="#fdd515"/></g><g><path d="M500.5 68c-2.006 0-3.961.635-5.584 1.814-1.623 1.179-2.831 2.843-3.451 4.75-.62 1.908-.62 3.964 0 5.872.62 1.907 1.828 3.571 3.451 4.75C496.539 86.365 498.494 87 500.5 87s3.961-.635 5.584-1.814c1.623-1.179 2.831-2.843 3.451-4.75.62-1.908.62-3.964 0-5.872-.62-1.907-1.828-3.571-3.451-4.75C504.461 68.635 502.506 68 500.5 68z" fill="#24a550"/></g><g><path d="M694.9 74.8s.9-1.1-.3-3c-1.1-1.7-8.5-5.2-15.2-12.7-6.7-7.5-10.5-16.1-10.5-16.1s-.1-1-2.1-.8c-1 .1-12.9 1.2-12.9 1.2s-2.8 2.3-.4 7.1c2.3 4.5 7.3 14.4 11.9 20 4.6 5.6 15.5 15.7 18.6 16.4 3.1.7 4.1.6 5-.5l5.9-11.6z" fill="#24a550"/><path d="M716 48s-1-1-3 0c-1.8.9-6 8-14 14s-17 9-17 9-1 0-1 2v13s2 3 7 1c4.7-1.9 15-6 21-10s17-14 18-17 1-4 0-5l-11-7z" fill="#fdd515"/><path d="M686.2 29.4s-.9 1.1.2 3c1 1.7 8.4 5.4 14.9 13s10.1 16.3 10.1 16.3.1 1 2.1.9c1-.1 13-.9 13-.9s2.9-2.2.5-7.1c-2.2-4.6-7-14.6-11.4-20.3-4.4-5.7-15.1-16-18.2-16.8-3.1-.8-4.1-.7-5 .3l-6.2 11.6z" fill="#252e64"/><path d="M664 56s1 1 3 0c1.8-.9 6-8 14-14s17-9 17-9 1 0 1-2V18s-2-3-7-1c-4.7 1.9-15 6-21 10s-17 14-18 17-1 4 0 5l11 7z" fill="#e6203d"/><path d="M673.5 27c-2.519 0-4.937 1.002-6.718 2.782-1.78 1.781-2.782 4.199-2.782 6.718s1.002 4.937 2.782 6.718c1.781 1.78 4.199 2.782 6.718 2.782s4.937-1.002 6.718-2.782c1.78-1.781 2.782-4.199 2.782-6.718s-1.002-4.937-2.782-6.718C678.437 28.002 676.019 27 673.5 27z" fill="#e6203d" fill-opacity=".029218"/><g><path d="M711.938268 31.561732c-2.006 0-3.961.635-5.584 1.814-1.623 1.179-2.831 2.843-3.451 4.75-.62 1.908-.62 3.964 0 5.872.62 1.907 1.828 3.571 3.451 4.75 1.623 1.179 3.578 1.814 5.584 1.814s3.961-.635 5.584-1.814c1.623-1.179 2.831-2.843 3.451-4.75.62-1.908.62-3.964 0-5.872-.62-1.907-1.828-3.571-3.451-4.75-1.623-1.179-3.578-1.814-5.584-1.814z" fill="#252e64" fill-opacity=".419568"/></g><g><path d="M710.052223 68.713087c-2.519 0-4.937 1.002-6.718 2.782-1.78 1.781-2.782 4.199-2.782 6.718s1.002 4.937 2.782 6.718c1.781 1.78 4.199 2.782 6.718 2.782s4.937-1.002 6.718-2.782c1.78-1.781 2.782-4.199 2.782-6.718s-1.002-4.937-2.782-6.718c-1.781-1.78-4.199-2.782-6.718-2.782z" fill="#fdd515"/></g><g><path d="M654.5 68c-2.006 0-3.961.635-5.584 1.814-1.623 1.179-2.831 2.843-3.451 4.75-.62 1.908-.62 3.964 0 5.872.62 1.907 1.828 3.571 3.451 4.75C650.539 86.365 652.494 87 654.5 87s3.961-.635 5.584-1.814c1.623-1.179 2.831-2.843 3.451-4.75.62-1.908.62-3.964 0-5.872-.62-1.907-1.828-3.571-3.451-4.75C658.461 68.635 656.506 68 654.5 68z" fill="#24a550"/></g></g><g><path d="M848.9 74.8s.9-1.1-.3-3c-1.1-1.7-8.5-5.2-15.2-12.7-6.7-7.5-10.5-16.1-10.5-16.1s-.1-1-2.1-.8c-1 .1-12.9 1.2-12.9 1.2s-2.8 2.3-.4 7.1c2.3 4.5 7.3 14.4 11.9 20 4.6 5.6 15.5 15.7 18.6 16.4 3.1.7 4.1.6 5-.5l5.9-11.6z" fill="#24a550"/><path d="M870 48s-1-1-3 0c-1.8.9-6 8-14 14s-17 9-17 9-1 0-1 2v13s2 3 7 1c4.7-1.9 15-6 21-10s17-14 18-17 1-4 0-5l-11-7z" fill="#fdd515"/><path d="M840.2 29.4s-.9 1.1.2 3c1 1.7 8.4 5.4 14.9 13s10.1 16.3 10.1 16.3.1 1 2.1.9c1-.1 13-.9 13-.9s2.9-2.2.5-7.1c-2.2-4.6-7-14.6-11.4-20.3-4.4-5.7-15.1-16-18.2-16.8-3.1-.8-4.1-.7-5 .3l-6.2 11.6z" fill="#252e64"/><path d="M818 56s1 1 3 0c1.8-.9 6-8 14-14s17-9 17-9 1 0 1-2V18s-2-3-7-1c-4.7 1.9-15 6-21 10s-17 14-18 17-1 4 0 5l11 7z" fill="#e6203d"/><g><path d="M865.5 32c-2.006 0-3.961.635-5.584 1.814-1.623 1.179-2.831 2.843-3.451 4.75-.62 1.908-.62 3.964 0 5.872.62 1.907 1.828 3.571 3.451 4.75C861.539 50.365 863.494 51 865.5 51s3.961-.635 5.584-1.814c1.623-1.179 2.831-2.843 3.451-4.75.62-1.908.62-3.964 0-5.872-.62-1.907-1.828-3.571-3.451-4.75C869.461 32.635 867.506 32 865.5 32z" fill="#252e64" fill-opacity=".058052"/></g><g><path d="M857.544929 62.928826c-2.519 0-4.937 1.002-6.718 2.782-1.78 1.781-2.782 4.199-2.782 6.718s1.002 4.937 2.782 6.718c1.781 1.78 4.199 2.782 6.718 2.782s4.937-1.002 6.718-2.782c1.78-1.781 2.782-4.199 2.782-6.718s-1.002-4.937-2.782-6.718c-1.781-1.78-4.199-2.782-6.718-2.782z" fill="#fdd515" fill-opacity=".852298"/></g><g><path d="M810.863226 66.22758c-2.006 0-3.961.635-5.584 1.814-1.623 1.179-2.831 2.843-3.451 4.75-.62 1.908-.62 3.964 0 5.872.62 1.907 1.828 3.571 3.451 4.75 1.623 1.179 3.578 1.814 5.584 1.814s3.961-.635 5.584-1.814c1.623-1.179 2.831-2.843 3.451-4.75.62-1.908.62-3.964 0-5.872-.62-1.907-1.828-3.571-3.451-4.75-1.623-1.179-3.578-1.814-5.584-1.814z" fill="#24a550"/></g></g><g><path d="M1002.9 74.8s.9-1.1-.3-3c-1.1-1.7-8.5-5.2-15.2-12.7-6.7-7.5-10.5-16.1-10.5-16.1s-.1-1-2.1-.8c-1 .1-12.9 1.2-12.9 1.2s-2.8 2.3-.4 7.1c2.3 4.5 7.3 14.4 11.9 20 4.6 5.6 15.5 15.7 18.6 16.4 3.1.7 4.1.6 5-.5l5.9-11.6z" fill="#24a550"/><path d="M1024 48s-1-1-3 0c-1.8.9-6 8-14 14s-17 9-17 9-1 0-1 2v13s2 3 7 1c4.7-1.9 15-6 21-10s17-14 18-17 1-4 0-5l-11-7z" fill="#fdd515"/><path d="M994.2 29.4s-.9 1.1.2 3c1 1.7 8.4 5.4 14.9 13s10.1 16.3 10.1 16.3.1 1 2.1.9c1-.1 13-.9 13-.9s2.9-2.2.5-7.1c-2.2-4.6-7-14.6-11.4-20.3-4.4-5.7-15.1-16-18.2-16.8-3.1-.8-4.1-.7-5 .3l-6.2 11.6z" fill="#252e64"/><path d="M972 56s1 1 3 0c1.8-.9 6-8 14-14s17-9 17-9 1 0 1-2V18s-2-3-7-1c-4.7 1.9-15 6-21 10s-17 14-18 17-1 4 0 5l11 7z" fill="#e6203d"/><g><path d="M1010.5 62c-2.519 0-4.937 1.002-6.718 2.782-1.78 1.781-2.782 4.199-2.782 6.718s1.002 4.937 2.782 6.718c1.781 1.78 4.199 2.782 6.718 2.782s4.937-1.002 6.718-2.782c1.78-1.781 2.782-4.199 2.782-6.718s-1.002-4.937-2.782-6.718c-1.781-1.78-4.199-2.782-6.718-2.782z" fill="#fdd515" fill-opacity=".187627"/></g><g><path d="M975.497966 58.251526c-2.006 0-3.961.635-5.584 1.814-1.623 1.179-2.831 2.843-3.451 4.75-.62 1.908-.62 3.964 0 5.872.62 1.907 1.828 3.571 3.451 4.75 1.623 1.179 3.578 1.814 5.584 1.814s3.961-.635 5.584-1.814c1.623-1.179 2.831-2.843 3.451-4.75.62-1.908.62-3.964 0-5.872-.62-1.907-1.828-3.571-3.451-4.75-1.623-1.179-3.578-1.814-5.584-1.814z" fill="#24a550" fill-opacity=".997808"/></g></g><g><path d="M1156.9 74.8s.9-1.1-.3-3c-1.1-1.7-8.5-5.2-15.2-12.7-6.7-7.5-10.5-16.1-10.5-16.1s-.1-1-2.1-.8c-1 .1-12.9 1.2-12.9 1.2s-2.8 2.3-.4 7.1c2.3 4.5 7.3 14.4 11.9 20 4.6 5.6 15.5 15.7 18.6 16.4 3.1.7 4.1.6 5-.5l5.9-11.6z" fill="#24a550"/><path d="M1178 48s-1-1-3 0c-1.8.9-6 8-14 14s-17 9-17 9-1 0-1 2v13s2 3 7 1c4.7-1.9 15-6 21-10s17-14 18-17 1-4 0-5l-11-7z" fill="#fdd515"/><path d="M1148.2 29.4s-.9 1.1.2 3c1 1.7 8.4 5.4 14.9 13s10.1 16.3 10.1 16.3.1 1 2.1.9c1-.1 13-.9 13-.9s2.9-2.2.5-7.1c-2.2-4.6-7-14.6-11.4-20.3-4.4-5.7-15.1-16-18.2-16.8-3.1-.8-4.1-.7-5 .3l-6.2 11.6z" fill="#252e64"/><path d="M1126 56s1 1 3 0c1.8-.9 6-8 14-14s17-9 17-9 1 0 1-2V18s-2-3-7-1c-4.7 1.9-15 6-21 10s-17 14-18 17-1 4 0 5l11 7z" fill="#e6203d"/><g><path d="M1164.5 62c-2.519 0-4.937 1.002-6.718 2.782-1.78 1.781-2.782 4.199-2.782 6.718s1.002 4.937 2.782 6.718c1.781 1.78 4.199 2.782 6.718 2.782s4.937-1.002 6.718-2.782c1.78-1.781 2.782-4.199 2.782-6.718s-1.002-4.937-2.782-6.718c-1.781-1.78-4.199-2.782-6.718-2.782z" fill="#fdd515" fill-opacity=".012349"/></g><g><path d="M1132.302419 56.148186c-2.006 0-3.961.635-5.584 1.814-1.623 1.179-2.831 2.843-3.451 4.75-.62 1.908-.62 3.964 0 5.872.62 1.907 1.828 3.571 3.451 4.75 1.623 1.179 3.578 1.814 5.584 1.814s3.961-.635 5.584-1.814c1.623-1.179 2.831-2.843 3.451-4.75.62-1.908.62-3.964 0-5.872-.62-1.907-1.828-3.571-3.451-4.75-1.623-1.179-3.578-1.814-5.584-1.814z" fill="#24a550" fill-opacity=".487606"/></g></g><g><path d="M1310.9 74.8s.9-1.1-.3-3c-1.1-1.7-8.5-5.2-15.2-12.7-6.7-7.5-10.5-16.1-10.5-16.1s-.1-1-2.1-.8c-1 .1-12.9 1.2-12.9 1.2s-2.8 2.3-.4 7.1c2.3 4.5 7.3 14.4 11.9 20 4.6 5.6 15.5 15.7 18.6 16.4 3.1.7 4.1.6 5-.5l5.9-11.6z" fill="#24a550"/><path d="M1332 48s-1-1-3 0c-1.8.9-6 8-14 14s-17 9-17 9-1 0-1 2v13s2 3 7 1c4.7-1.9 15-6 21-10s17-14 18-17 1-4 0-5l-11-7z" fill="#fdd515"/><path d="M1302.2 29.4s-.9 1.1.2 3c1 1.7 8.4 5.4 14.9 13s10.1 16.3 10.1 16.3.1 1 2.1.9c1-.1 13-.9 13-.9s2.9-2.2.5-7.1c-2.2-4.6-7-14.6-11.4-20.3-4.4-5.7-15.1-16-18.2-16.8-3.1-.8-4.1-.7-5 .3l-6.2 11.6z" fill="#252e64"/><path d="M1280 56s1 1 3 0c1.8-.9 6-8 14-14s17-9 17-9 1 0 1-2V18s-2-3-7-1c-4.7 1.9-15 6-21 10s-17 14-18 17-1 4 0 5l11 7z" fill="#e6203d"/><g><path d="M1286.5 56c-2.006 0-3.961.635-5.584 1.814-1.623 1.179-2.831 2.843-3.451 4.75-.62 1.908-.62 3.964 0 5.872.62 1.907 1.828 3.571 3.451 4.75 1.623 1.179 3.578 1.814 5.584 1.814s3.961-.635 5.584-1.814c1.623-1.179 2.831-2.843 3.451-4.75.62-1.908.62-3.964 0-5.872-.62-1.907-1.828-3.571-3.451-4.75-1.623-1.179-3.578-1.814-5.584-1.814z" fill="#24a550" fill-opacity=".072646"/></g></g><g><path d="M1464.9 74.8s.9-1.1-.3-3c-1.1-1.7-8.5-5.2-15.2-12.7-6.7-7.5-10.5-16.1-10.5-16.1s-.1-1-2.1-.8c-1 .1-12.9 1.2-12.9 1.2s-2.8 2.3-.4 7.1c2.3 4.5 7.3 14.4 11.9 20 4.6 5.6 15.5 15.7 18.6 16.4 3.1.7 4.1.6 5-.5l5.9-11.6z" fill="#24a550"/><path d="M1486 48s-1-1-3 0c-1.8.9-6 8-14 14s-17 9-17 9-1 0-1 2v13s2 3 7 1c4.7-1.9 15-6 21-10s17-14 18-17 1-4 0-5l-11-7z" fill="#fdd515"/><path d="M1456.2 29.4s-.9 1.1.2 3c1 1.7 8.4 5.4 14.9 13s10.1 16.3 10.1 16.3.1 1 2.1.9c1-.1 13-.9 13-.9s2.9-2.2.5-7.1c-2.2-4.6-7-14.6-11.4-20.3-4.4-5.7-15.1-16-18.2-16.8-3.1-.8-4.1-.7-5 .3l-6.2 11.6z" fill="#252e64"/><path d="M1434 56s1 1 3 0c1.8-.9 6-8 14-14s17-9 17-9 1 0 1-2V18s-2-3-7-1c-4.7 1.9-15 6-21 10s-17 14-18 17-1 4 0 5l11 7z" fill="#e6203d"/></g><g><path d="M1594.834282 66.484091s1.400664.241125 2.462683-1.739308c.93726-1.794865.336486-9.958754 3.561316-19.484533 3.22483-9.52578 8.83583-17.070094 8.83583-17.070094s.820893-.57977-.338645-2.221558c-.57977-.820895-7.40071-10.633884-7.40071-10.633884s-3.381097-1.303145-6.375305 3.150474c-2.782432 4.218776-8.933349 13.447873-11.539637 20.210067-2.606288 6.762193-6.023999 21.22384-5.105585 24.266293.918414 3.042452 1.498184 3.863347 2.898847 4.104472l13.001206-.581929z" fill="#24a550"/><path d="M1628.551903 71.638903s.377417-1.362922-1.478258-2.610509c-1.670107-1.122827-9.91787-1.278997-19.080907-5.283839-9.163037-4.004841-16.208318-10.35811-16.208318-10.35811s-.492752-.87017-2.233091.115335l-11.312204 6.405782s-1.625004 3.218597 2.579097 6.58394c3.969259 3.153567 12.612304 10.096028 19.049497 13.346035 6.437193 3.250008 20.559165 7.894348 23.662426 7.28626 3.103261-.608087 3.97343-1.10084 4.350848-2.463762l.67091-13.021132z" fill="#fdd515"/><path d="M1630.053033 36.542655s-1.400664-.241125-2.511958 1.652292c-.986536 1.707848-.559795 9.970287-3.970192 19.371308-3.410398 9.40102-9.206964 16.820577-9.206964 16.820577s-.820895.57977.251627 2.270833c.57977.820894 7.188935 10.868727 7.188935 10.868727s3.343355 1.439436 6.42458-3.063458c2.918724-4.181034 9.255208-13.285372 12.047063-19.922807 2.791856-6.637435 6.482151-21.0236 5.650754-24.115327-.831397-3.091727-1.411166-3.912622-2.724813-4.203022l-13.149032.320877z" fill="#252e64"/><path d="M1595.96742 30.332107s-.377418 1.362922 1.478256 2.610508c1.670107 1.122828 9.917871 1.278998 19.080908 5.28384 9.163037 4.004841 16.208318 10.35811 16.208318 10.35811s.492752.87017 2.233091-.115336l11.312204-6.405781s1.625004-3.218597-2.579097-6.58394c-3.969259-3.153567-12.612304-10.096028-19.049497-13.346036-6.437193-3.250007-20.559165-7.894347-23.662426-7.28626-3.103261.608088-3.97343 1.10084-4.350848 2.463763l-.67091 13.021132z" fill="#e6203d"/></g><g><path d="M1753.911693 29.01025s-.405956 1.362057 1.434151 2.65202c1.67069 1.144025 9.848098 1.518216 18.922861 5.852806 9.074764 4.334589 15.8984 10.802819 15.8984 10.802819s.47805.884007 2.246063-.072094c.884007-.47805 11.438408-6.083817 11.438408-6.083817s1.69592-3.202165-2.370087-6.704677c-3.85801-3.264315-12.290279-10.468956-18.694608-13.860795-6.404329-3.391839-20.357012-8.504826-23.487082-7.954682-3.13007.550145-4.014077 1.028195-4.420034 2.390252l-.968072 12.978168z" fill="#24a550"/><path d="M1744.78435 61.875758s1.308378.536794 2.767758-1.157376c1.313442-1.524752 2.449181-9.695437 7.515118-18.317287 5.065936-8.62185 12.211834-14.861733 12.211834-14.861733s.922586-.385791.151002-2.230963l-5.015293-11.993617s-3.002547-1.996174-6.843893 1.777957c-3.603149 3.566134-11.524037 11.322392-15.516386 17.327486-3.992348 6.005094-10.282875 19.474662-10.048085 22.628212.23479 3.15355.62058 4.076135 1.928958 4.612929l12.848988 2.214392z" fill="#fdd515"/><path d="M1779.453137 67.53926s.405956-1.362057-1.341893-2.690599c-1.578432-1.182604-9.832997-1.741313-18.761822-6.245319-8.928826-4.504006-15.606524-11.141653-15.606524-11.141653s-.47805-.884007-2.284643-.020165c-.884006.47805-11.646403 5.84562-11.646403 5.84562s-1.826758 3.148486 2.277828 6.743256c3.804331 3.395154 12.090661 10.769212 18.349052 14.330468 6.258391 3.561255 20.103715 8.935918 23.272365 8.478032 3.16865-.457886 4.052656-.935936 4.497192-2.205734l1.244848-13.093906z" fill="#252e64"/><path d="M1789.672482 34.433899s-1.308377-.536794-2.767757 1.157375c-1.313442 1.524752-2.449181 9.695438-7.515118 18.317287-5.065936 8.62185-12.211834 14.861733-12.211834 14.861733s-.922586.385792-.151002 2.230964l5.015293 11.993616s3.002547 1.996174 6.843893-1.777956c3.603149-3.566135 11.524037-11.322392 15.516385-17.327486 3.992349-6.005094 10.282876-19.474663 10.048086-22.628212-.23479-3.15355-.62058-4.076135-1.928959-4.61293l-12.848987-2.214391z" fill="#e6203d"/></g><g><path d="M1939.596574 31.850328s-1.41673-.113478-2.295311 1.954878c-.771115 1.872266.565442 9.94838-1.78478 19.726747s-7.256016 17.799164-7.256016 17.799164-.765104.651626.538148 2.181833c.651626.765104 8.33199 9.921087 8.33199 9.921087s3.485084.99206 6.064294-3.714073c2.389537-4.4531 7.680685-14.2006 9.664804-21.17077 1.98412-6.97017 4.080091-21.681626 2.890318-24.628563-1.189774-2.946937-1.8414-3.71204-3.25813-3.825519l-12.895317 1.755216z" fill="#24a550"/><path d="M1905.550956 29.76565s-.252625 1.391467 1.708263 2.466137c1.7648.967204 9.992895.376905 19.48054 3.536745 9.487646 3.15984 17.078575 8.849989 17.078575 8.849989s.56942.822046 2.213513-.316797l10.686596-7.402476s1.327295-3.352356-3.163903-6.323742c-4.238167-2.781716-13.473594-8.914161-20.178305-11.568752-6.70471-2.65459-21.188803-6.002882-24.224362-5.116664-3.03556.886218-3.857605 1.455639-4.11023 2.847106l.509313 13.028453z" fill="#fdd515"/><path d="M1907.229655 64.853852s1.41673.113478 2.352254-1.872673c.828057-1.790062-.34409-9.98006 2.20222-19.65096 2.54631-9.6709 7.648193-17.58423 7.648193-17.58423s.765104-.651625-.455943-2.238775c-.651626-.765104-8.142318-10.174118-8.142318-10.174118s-3.459822-1.131206-6.121236 3.631868c-2.528684 4.42784-8.015921 14.067872-10.19613 20.930575-2.180207 6.862703-4.554473 21.523633-3.446904 24.527512 1.10757 3.00388 1.759195 3.768983 3.09372 3.939403l13.066144-1.508602z" fill="#252e64"/><path d="M1941.737228 67.956666s.252624-1.391468-1.708264-2.466138c-1.7648-.967204-9.992895-.376905-19.48054-3.536745s-17.078574-8.849989-17.078574-8.849989-.569421-.822046-2.213513.316797l-10.686597 7.402476s-1.327295 3.352356 3.163903 6.323742c4.238167 2.781716 13.473594 8.914161 20.178305 11.568752 6.704711 2.65459 21.188804 6.002882 24.224363 5.116664 3.035559-.886218 3.857605-1.455639 4.11023-2.847106l-.509313-13.028453z" fill="#e6203d"/></g><g><path d="M2100.606396 55.794418s-.629348-1.274332-2.85552-.967475c-2.00272.298516-8.249618 5.58872-17.848982 8.587423-9.599363 2.998703-19.000994 2.902103-19.000994 2.902103s-.95184-.322491-1.596824 1.581188c-.322491.95184-4.242086 12.241516-4.242086 12.241516s.936205 3.500503 6.299033 3.30033c5.04833-.233186 16.12984-.691567 23.130846-2.563976 7.001006-1.87241 20.704502-7.619948 22.623817-10.152976 1.919315-2.533028 2.241806-3.484868 1.612458-4.7592l-8.121748-10.168933z" fill="#24a550"/><path d="M2084.931075 25.500288s-1.324026.496945-1.24062 2.731457c.075064 2.011061 4.802644 8.771237 6.957237 18.536366 2.154593 9.765128 1.164188 19.200121 1.164188 19.200121s-.41354.910486 1.407432 1.737567l11.836316 5.376023s3.558538-.58035 3.805267-5.95986c.213716-5.06501.74019-16.13853-.420513-23.255606-1.160701-7.117076-5.716617-21.267823-8.034534-23.41893-2.317917-2.151106-3.228403-2.564646-4.55243-2.0677l-10.922343 7.120562z" fill="#fdd515"/><path d="M2055.672539 44.940917s.629348 1.274331 2.814165 1.058523c1.961367-.207467 8.390362-5.414963 17.998066-8.190215 9.607704-2.775252 19.017676-2.4552 19.017676-2.4552s.95184.32249 1.687872-1.539835c.322491-.95184 4.556586-12.208502 4.556586-12.208502s-.803802-3.550197-6.25768-3.391379c-5.098023.100784-16.187874.335713-23.19722 1.984672-7.009347 1.648958-20.812232 7.131691-22.822596 9.623365-2.010363 2.491674-2.332855 3.443514-1.794555 4.676492l7.997686 10.442079z" fill="#252e64"/><path d="M2070.710868 76.153873s1.324026-.496945 1.24062-2.731457c-.075064-2.011061-4.802644-8.771237-6.957237-18.536366-2.154593-9.765128-1.164188-19.200121-1.164188-19.200121s.41354-.910486-1.407431-1.737566l-11.836316-5.376024s-3.558538.580351-3.805268 5.95986c-.213716 5.06501-.740189 16.13853.420513 23.255606 1.160702 7.117076 5.716617 21.267823 8.034534 23.41893 2.317918 2.151106 3.228403 2.564646 4.55243 2.0677l10.922343-7.120562z" fill="#e6203d"/></g><g><path d="M2245.021738 70.332176s.344038-1.378999-1.552441-2.584555c-1.720646-1.067417-9.906608-1.071973-19.167846-4.992365-9.261237-3.920393-16.369988-10.073901-16.369988-10.073901s-.51748-.861518-2.240518.173443c-.861518.51748-11.152022 6.594117-11.152022 6.594117s-1.549595 3.275478 2.670422 6.590815c4.001477 3.086776 12.750473 9.903305 19.301429 13.002494 6.550956 3.099189 20.720286 7.57692 23.822322 6.885998 3.102036-.690923 3.963554-1.208404 4.307592-2.587402l.38105-13.008644z" fill="#24a550"/><path d="M2252.655714 37.088043s-1.331283-.477167-2.712673 1.281174c-1.243251 1.582506-2.008881 9.796142-6.680327 18.637951-4.671445 8.84181-11.528289 15.398005-11.528289 15.398005s-.904224.427058-.050108 2.235506l5.551754 11.754915s3.089623 1.858557 6.756628-2.085182c3.438443-3.725199 11.001015-11.831216 14.718128-18.01046 3.717113-6.179246 9.393-19.919126 9.01605-23.058857-.37695-3.13973-.804009-4.043955-2.13529-4.521121l-12.935873-1.631931z" fill="#fdd515"/><path d="M2217.766552 32.995802s-.344037 1.378999 1.46202 2.62726c1.630222 1.110124 9.901596 1.295524 19.024695 5.39175 9.123098 4.096228 16.09371 10.42557 16.09371 10.42557s.51748.861518 2.283223-.08302c.861519-.517481 11.370563-6.365557 11.370563-6.365557s1.682722-3.227762-2.58-6.63352c-3.95376-3.219905-12.564617-10.212268-18.977434-13.48729-6.412818-3.275024-20.486714-8.019012-23.631456-7.418512-3.144741.600501-4.00626 1.117981-4.393004 2.406558l-.652317 13.13676z" fill="#252e64"/><path d="M2209.052519 66.528854s1.331282.477166 2.712672-1.281174c1.243252-1.582506 2.008881-9.796142 6.680327-18.637951 4.671445-8.84181 11.52829-15.398005 11.52829-15.398005s.904223-.427058.050107-2.235506l-5.551754-11.754915s-3.089623-1.858557-6.756628 2.085182c-3.438443 3.725199-11.001015 11.831216-14.718128 18.01046-3.717113 6.179246-9.393 19.919126-9.01605 23.058857.37695 3.13973.804009 4.043955 2.13529 4.521121l12.935874 1.631931z" fill="#e6203d"/></g><g><path d="M2390.5478 74.416722s.82441-1.157734-.499987-2.973216c-1.211242-1.622618-8.828772-4.619824-16.015413-11.654893-7.186641-7.035068-11.553351-15.361643-11.553351-15.361643s-.166662-.991072-2.148806-.657748c-.991072.166662-12.79085 2.060142-12.79085 2.060142s-2.639891 2.48213.075787 7.110855c2.595837 4.336085 8.246811 13.879485 13.211071 19.15927 4.96426 5.279783 16.5154 14.628108 19.655278 15.119194 3.139878.491086 4.13095.324424 4.95536-.83331l5.11091-11.96865z" fill="#24a550"/><path d="M2409.808004 46.265443s-1.064646-.930875-2.993282.200658c-1.735771 1.01838-5.451475 8.383401-13.032245 14.905053-7.580769 6.521651-16.359956 10.116907-16.359956 10.116907s-.99776.066886-.863989 2.062407l.869518 12.970888s2.19618 2.85951 7.05121.52956c4.562392-2.21011 14.565094-6.989854 20.284114-11.382213 5.71902-4.392358 16.025526-15.10571 16.822629-18.165878.797103-3.060168.730217-4.057929-.33443-4.988803l-11.443569-6.248579z" fill="#fdd515"/><path d="M2378.830658 29.700298s-.82441 1.157734.40021 2.979905c1.111467 1.629307 8.742374 4.826065 15.736152 11.974286 6.993777 7.148222 11.167623 15.58795 11.167623 15.58795s.166662.991072 2.155495.757524c.991072-.166662 12.91069-1.767502 12.91069-1.767502s2.746357-2.389043.02399-7.117544c-2.502748-4.44255-7.96086-14.099103-12.732256-19.49204-4.771397-5.392937-16.136361-14.954192-19.282928-15.545054-3.146567-.590862-4.137639-.4242-4.968737.633759l-5.410239 11.988716z" fill="#252e64"/><path d="M2358.45954 57.7256s1.064646.930874 2.993282-.200659c1.735771-1.018379 5.451475-8.3834 13.032244-14.905052 7.58077-6.521652 16.359957-10.116908 16.359957-10.116908s.99776-.066886.863989-2.062407l-.869518-12.970888s-2.19618-2.85951-7.05121-.529559c-4.562392 2.21011-14.565094 6.989854-20.284114 11.382212-5.71902 4.392359-16.025526 15.10571-16.822629 18.165879-.797103 3.060168-.730217 4.057928.33443 4.988803l11.443569 6.248578z" fill="#e6203d"/></g><g><path d="M2542.9 74.8s.9-1.1-.3-3c-1.1-1.7-8.5-5.2-15.2-12.7-6.7-7.5-10.5-16.1-10.5-16.1s-.1-1-2.1-.8c-1 .1-12.9 1.2-12.9 1.2s-2.8 2.3-.4 7.1c2.3 4.5 7.3 14.4 11.9 20 4.6 5.6 15.5 15.7 18.6 16.4 3.1.7 4.1.6 5-.5l5.9-11.6z" fill="#24a550"/><path d="M2564 48s-1-1-3 0c-1.8.9-6 8-14 14s-17 9-17 9-1 0-1 2v13s2 3 7 1c4.7-1.9 15-6 21-10s17-14 18-17 1-4 0-5l-11-7z" fill="#fdd515"/><path d="M2534.2 29.4s-.9 1.1.2 3c1 1.7 8.4 5.4 14.9 13s10.1 16.3 10.1 16.3.1 1 2.1.9c1-.1 13-.9 13-.9s2.9-2.2.5-7.1c-2.2-4.6-7-14.6-11.4-20.3-4.4-5.7-15.1-16-18.2-16.8-3.1-.8-4.1-.7-5 .3l-6.2 11.6z" fill="#252e64"/><path d="M2512 56s1 1 3 0c1.8-.9 6-8 14-14s17-9 17-9 1 0 1-2V18s-2-3-7-1c-4.7 1.9-15 6-21 10s-17 14-18 17-1 4 0 5l11 7z" fill="#e6203d"/><path d="M2523.055949 20.555949c-2.519 0-4.937 1.002-6.718 2.782-1.78 1.781-2.782 4.199-2.782 6.718s1.002 4.937 2.782 6.718c1.781 1.78 4.199 2.782 6.718 2.782s4.937-1.002 6.718-2.782c1.78-1.781 2.782-4.199 2.782-6.718s-1.002-4.937-2.782-6.718c-1.781-1.78-4.199-2.782-6.718-2.782z" fill="#e6203d" fill-opacity=".037004"/></g><g><path d="M2696.9 74.8s.9-1.1-.3-3c-1.1-1.7-8.5-5.2-15.2-12.7-6.7-7.5-10.5-16.1-10.5-16.1s-.1-1-2.1-.8c-1 .1-12.9 1.2-12.9 1.2s-2.8 2.3-.4 7.1c2.3 4.5 7.3 14.4 11.9 20 4.6 5.6 15.5 15.7 18.6 16.4 3.1.7 4.1.6 5-.5l5.9-11.6z" fill="#24a550"/><path d="M2718 48s-1-1-3 0c-1.8.9-6 8-14 14s-17 9-17 9-1 0-1 2v13s2 3 7 1c4.7-1.9 15-6 21-10s17-14 18-17 1-4 0-5l-11-7z" fill="#fdd515"/><path d="M2688.2 29.4s-.9 1.1.2 3c1 1.7 8.4 5.4 14.9 13s10.1 16.3 10.1 16.3.1 1 2.1.9c1-.1 13-.9 13-.9s2.9-2.2.5-7.1c-2.2-4.6-7-14.6-11.4-20.3-4.4-5.7-15.1-16-18.2-16.8-3.1-.8-4.1-.7-5 .3l-6.2 11.6z" fill="#252e64"/><path d="M2666 56s1 1 3 0c1.8-.9 6-8 14-14s17-9 17-9 1 0 1-2V18s-2-3-7-1c-4.7 1.9-15 6-21 10s-17 14-18 17-1 4 0 5l11 7z" fill="#e6203d"/><path d="M2669.231635 12.731635c-2.519 0-4.937 1.002-6.718 2.782-1.78 1.781-2.782 4.199-2.782 6.718s1.002 4.937 2.782 6.718c1.781 1.78 4.199 2.782 6.718 2.782s4.937-1.002 6.718-2.782c1.78-1.781 2.782-4.199 2.782-6.718s-1.002-4.937-2.782-6.718c-1.781-1.78-4.199-2.782-6.718-2.782z" fill="#e6203d" fill-opacity=".68903"/></g><g><path d="M2850.9 74.8s.9-1.1-.3-3c-1.1-1.7-8.5-5.2-15.2-12.7-6.7-7.5-10.5-16.1-10.5-16.1s-.1-1-2.1-.8c-1 .1-12.9 1.2-12.9 1.2s-2.8 2.3-.4 7.1c2.3 4.5 7.3 14.4 11.9 20 4.6 5.6 15.5 15.7 18.6 16.4 3.1.7 4.1.6 5-.5l5.9-11.6z" fill="#24a550"/><path d="M2872 48s-1-1-3 0c-1.8.9-6 8-14 14s-17 9-17 9-1 0-1 2v13s2 3 7 1c4.7-1.9 15-6 21-10s17-14 18-17 1-4 0-5l-11-7z" fill="#fdd515"/><path d="M2842.2 29.4s-.9 1.1.2 3c1 1.7 8.4 5.4 14.9 13s10.1 16.3 10.1 16.3.1 1 2.1.9c1-.1 13-.9 13-.9s2.9-2.2.5-7.1c-2.2-4.6-7-14.6-11.4-20.3-4.4-5.7-15.1-16-18.2-16.8-3.1-.8-4.1-.7-5 .3l-6.2 11.6z" fill="#252e64"/><path d="M2820 56s1 1 3 0c1.8-.9 6-8 14-14s17-9 17-9 1 0 1-2V18s-2-3-7-1c-4.7 1.9-15 6-21 10s-17 14-18 17-1 4 0 5l11 7z" fill="#e6203d"/><path d="M2819.927132 9.427132c-2.519 0-4.937 1.002-6.718 2.782-1.78 1.781-2.782 4.199-2.782 6.718s1.002 4.937 2.782 6.718c1.781 1.78 4.199 2.782 6.718 2.782s4.937-1.002 6.718-2.782c1.78-1.781 2.782-4.199 2.782-6.718s-1.002-4.937-2.782-6.718c-1.781-1.78-4.199-2.782-6.718-2.782z" fill="#e6203d" fill-opacity=".964406"/></g><g><path d="M3004.9 74.8s.9-1.1-.3-3c-1.1-1.7-8.5-5.2-15.2-12.7-6.7-7.5-10.5-16.1-10.5-16.1s-.1-1-2.1-.8c-1 .1-12.9 1.2-12.9 1.2s-2.8 2.3-.4 7.1c2.3 4.5 7.3 14.4 11.9 20 4.6 5.6 15.5 15.7 18.6 16.4 3.1.7 4.1.6 5-.5l5.9-11.6z" fill="#24a550"/><path d="M3026 48s-1-1-3 0c-1.8.9-6 8-14 14s-17 9-17 9-1 0-1 2v13s2 3 7 1c4.7-1.9 15-6 21-10s17-14 18-17 1-4 0-5l-11-7z" fill="#fdd515"/><path d="M2996.2 29.4s-.9 1.1.2 3c1 1.7 8.4 5.4 14.9 13s10.1 16.3 10.1 16.3.1 1 2.1.9c1-.1 13-.9 13-.9s2.9-2.2.5-7.1c-2.2-4.6-7-14.6-11.4-20.3-4.4-5.7-15.1-16-18.2-16.8-3.1-.8-4.1-.7-5 .3l-6.2 11.6z" fill="#252e64"/><path d="M2974 56s1 1 3 0c1.8-.9 6-8 14-14s17-9 17-9 1 0 1-2V18s-2-3-7-1c-4.7 1.9-15 6-21 10s-17 14-18 17-1 4 0 5l11 7zM2973.5 9c-2.519 0-4.937 1.002-6.718 2.782-1.78 1.781-2.782 4.199-2.782 6.718s1.002 4.937 2.782 6.718c1.781 1.78 4.199 2.782 6.718 2.782s4.937-1.002 6.718-2.782c1.78-1.781 2.782-4.199 2.782-6.718s-1.002-4.937-2.782-6.718c-1.781-1.78-4.199-2.782-6.718-2.782z" fill="#e6203d"/><g><path d="M3021.790967 31.709033c-2.006 0-3.961.635-5.584 1.814-1.623 1.179-2.831 2.843-3.451 4.75-.62 1.908-.62 3.964 0 5.872.62 1.907 1.828 3.571 3.451 4.75 1.623 1.179 3.578 1.814 5.584 1.814s3.961-.635 5.584-1.814c1.623-1.179 2.831-2.843 3.451-4.75.62-1.908.62-3.964 0-5.872-.62-1.907-1.828-3.571-3.451-4.75-1.623-1.179-3.578-1.814-5.584-1.814z" fill="#252e64" fill-opacity=".019398"/></g></g><g><path d="M3158.9 74.8s.9-1.1-.3-3c-1.1-1.7-8.5-5.2-15.2-12.7-6.7-7.5-10.5-16.1-10.5-16.1s-.1-1-2.1-.8c-1 .1-12.9 1.2-12.9 1.2s-2.8 2.3-.4 7.1c2.3 4.5 7.3 14.4 11.9 20 4.6 5.6 15.5 15.7 18.6 16.4 3.1.7 4.1.6 5-.5l5.9-11.6z" fill="#24a550"/><path d="M3180 48s-1-1-3 0c-1.8.9-6 8-14 14s-17 9-17 9-1 0-1 2v13s2 3 7 1c4.7-1.9 15-6 21-10s17-14 18-17 1-4 0-5l-11-7z" fill="#fdd515"/><path d="M3150.2 29.4s-.9 1.1.2 3c1 1.7 8.4 5.4 14.9 13s10.1 16.3 10.1 16.3.1 1 2.1.9c1-.1 13-.9 13-.9s2.9-2.2.5-7.1c-2.2-4.6-7-14.6-11.4-20.3-4.4-5.7-15.1-16-18.2-16.8-3.1-.8-4.1-.7-5 .3l-6.2 11.6z" fill="#252e64"/><path d="M3128 56s1 1 3 0c1.8-.9 6-8 14-14s17-9 17-9 1 0 1-2V18s-2-3-7-1c-4.7 1.9-15 6-21 10s-17 14-18 17-1 4 0 5l11 7zM3127.5 9c-2.519 0-4.937 1.002-6.718 2.782-1.78 1.781-2.782 4.199-2.782 6.718s1.002 4.937 2.782 6.718c1.781 1.78 4.199 2.782 6.718 2.782s4.937-1.002 6.718-2.782c1.78-1.781 2.782-4.199 2.782-6.718s-1.002-4.937-2.782-6.718c-1.781-1.78-4.199-2.782-6.718-2.782z" fill="#e6203d"/><g><path d="M3185.043868 22.456132c-2.006 0-3.961.635-5.584 1.814-1.623 1.179-2.831 2.843-3.451 4.75-.62 1.908-.62 3.964 0 5.872.62 1.907 1.828 3.571 3.451 4.75 1.623 1.179 3.578 1.814 5.584 1.814s3.961-.635 5.584-1.814c1.623-1.179 2.831-2.843 3.451-4.75.62-1.908.62-3.964 0-5.872-.62-1.907-1.828-3.571-3.451-4.75-1.623-1.179-3.578-1.814-5.584-1.814z" fill="#252e64" fill-opacity=".636258"/></g></g><g><path d="M3312.9 74.8s.9-1.1-.3-3c-1.1-1.7-8.5-5.2-15.2-12.7-6.7-7.5-10.5-16.1-10.5-16.1s-.1-1-2.1-.8c-1 .1-12.9 1.2-12.9 1.2s-2.8 2.3-.4 7.1c2.3 4.5 7.3 14.4 11.9 20 4.6 5.6 15.5 15.7 18.6 16.4 3.1.7 4.1.6 5-.5l5.9-11.6z" fill="#24a550"/><path d="M3334 48s-1-1-3 0c-1.8.9-6 8-14 14s-17 9-17 9-1 0-1 2v13s2 3 7 1c4.7-1.9 15-6 21-10s17-14 18-17 1-4 0-5l-11-7z" fill="#fdd515"/><path d="M3304.2 29.4s-.9 1.1.2 3c1 1.7 8.4 5.4 14.9 13s10.1 16.3 10.1 16.3.1 1 2.1.9c1-.1 13-.9 13-.9s2.9-2.2.5-7.1c-2.2-4.6-7-14.6-11.4-20.3-4.4-5.7-15.1-16-18.2-16.8-3.1-.8-4.1-.7-5 .3l-6.2 11.6z" fill="#252e64"/><path d="M3282 56s1 1 3 0c1.8-.9 6-8 14-14s17-9 17-9 1 0 1-2V18s-2-3-7-1c-4.7 1.9-15 6-21 10s-17 14-18 17-1 4 0 5l11 7zM3281.5 9c-2.519 0-4.937 1.002-6.718 2.782-1.78 1.781-2.782 4.199-2.782 6.718s1.002 4.937 2.782 6.718c1.781 1.78 4.199 2.782 6.718 2.782s4.937-1.002 6.718-2.782c1.78-1.781 2.782-4.199 2.782-6.718s-1.002-4.937-2.782-6.718c-1.781-1.78-4.199-2.782-6.718-2.782z" fill="#e6203d"/><g><path d="M3343.804304 17.695696c-2.006 0-3.961.635-5.584 1.814-1.623 1.179-2.831 2.843-3.451 4.75-.62 1.908-.62 3.964 0 5.872.62 1.907 1.828 3.571 3.451 4.75 1.623 1.179 3.578 1.814 5.584 1.814s3.961-.635 5.584-1.814c1.623-1.179 2.831-2.843 3.451-4.75.62-1.908.62-3.964 0-5.872-.62-1.907-1.828-3.571-3.451-4.75-1.623-1.179-3.578-1.814-5.584-1.814z" fill="#252e64" fill-opacity=".95362"/></g></g><g><path d="M3466.9 74.8s.9-1.1-.3-3c-1.1-1.7-8.5-5.2-15.2-12.7-6.7-7.5-10.5-16.1-10.5-16.1s-.1-1-2.1-.8c-1 .1-12.9 1.2-12.9 1.2s-2.8 2.3-.4 7.1c2.3 4.5 7.3 14.4 11.9 20 4.6 5.6 15.5 15.7 18.6 16.4 3.1.7 4.1.6 5-.5l5.9-11.6z" fill="#24a550"/><path d="M3488 48s-1-1-3 0c-1.8.9-6 8-14 14s-17 9-17 9-1 0-1 2v13s2 3 7 1c4.7-1.9 15-6 21-10s17-14 18-17 1-4 0-5l-11-7z" fill="#fdd515"/><path d="M3458.2 29.4s-.9 1.1.2 3c1 1.7 8.4 5.4 14.9 13s10.1 16.3 10.1 16.3.1 1 2.1.9c1-.1 13-.9 13-.9s2.9-2.2.5-7.1c-2.2-4.6-7-14.6-11.4-20.3-4.4-5.7-15.1-16-18.2-16.8-3.1-.8-4.1-.7-5 .3l-6.2 11.6z" fill="#252e64"/><path d="M3436 56s1 1 3 0c1.8-.9 6-8 14-14s17-9 17-9 1 0 1-2V18s-2-3-7-1c-4.7 1.9-15 6-21 10s-17 14-18 17-1 4 0 5l11 7zM3435.5 9c-2.519 0-4.937 1.002-6.718 2.782-1.78 1.781-2.782 4.199-2.782 6.718s1.002 4.937 2.782 6.718c1.781 1.78 4.199 2.782 6.718 2.782s4.937-1.002 6.718-2.782c1.78-1.781 2.782-4.199 2.782-6.718s-1.002-4.937-2.782-6.718c-1.781-1.78-4.199-2.782-6.718-2.782z" fill="#e6203d"/><g><path d="M3498.5 17c-2.006 0-3.961.635-5.584 1.814-1.623 1.179-2.831 2.843-3.451 4.75-.62 1.908-.62 3.964 0 5.872.62 1.907 1.828 3.571 3.451 4.75 1.623 1.179 3.578 1.814 5.584 1.814s3.961-.635 5.584-1.814c1.623-1.179 2.831-2.843 3.451-4.75.62-1.908.62-3.964 0-5.872-.62-1.907-1.828-3.571-3.451-4.75-1.623-1.179-3.578-1.814-5.584-1.814z" fill="#252e64"/></g><g><path d="M3474.645213 62.129078c-2.519 0-4.937 1.002-6.718 2.782-1.78 1.781-2.782 4.199-2.782 6.718s1.002 4.937 2.782 6.718c1.781 1.78 4.199 2.782 6.718 2.782s4.937-1.002 6.718-2.782c1.78-1.781 2.782-4.199 2.782-6.718s-1.002-4.937-2.782-6.718c-1.781-1.78-4.199-2.782-6.718-2.782z" fill="#fdd515" fill-opacity=".008067"/></g></g><g><path d="M3620.9 74.8s.9-1.1-.3-3c-1.1-1.7-8.5-5.2-15.2-12.7-6.7-7.5-10.5-16.1-10.5-16.1s-.1-1-2.1-.8c-1 .1-12.9 1.2-12.9 1.2s-2.8 2.3-.4 7.1c2.3 4.5 7.3 14.4 11.9 20 4.6 5.6 15.5 15.7 18.6 16.4 3.1.7 4.1.6 5-.5l5.9-11.6z" fill="#24a550"/><path d="M3642 48s-1-1-3 0c-1.8.9-6 8-14 14s-17 9-17 9-1 0-1 2v13s2 3 7 1c4.7-1.9 15-6 21-10s17-14 18-17 1-4 0-5l-11-7z" fill="#fdd515"/><path d="M3612.2 29.4s-.9 1.1.2 3c1 1.7 8.4 5.4 14.9 13s10.1 16.3 10.1 16.3.1 1 2.1.9c1-.1 13-.9 13-.9s2.9-2.2.5-7.1c-2.2-4.6-7-14.6-11.4-20.3-4.4-5.7-15.1-16-18.2-16.8-3.1-.8-4.1-.7-5 .3l-6.2 11.6z" fill="#252e64"/><path d="M3590 56s1 1 3 0c1.8-.9 6-8 14-14s17-9 17-9 1 0 1-2V18s-2-3-7-1c-4.7 1.9-15 6-21 10s-17 14-18 17-1 4 0 5l11 7zM3589.5 9c-2.519 0-4.937 1.002-6.718 2.782-1.78 1.781-2.782 4.199-2.782 6.718s1.002 4.937 2.782 6.718c1.781 1.78 4.199 2.782 6.718 2.782s4.937-1.002 6.718-2.782c1.78-1.781 2.782-4.199 2.782-6.718s-1.002-4.937-2.782-6.718c-1.781-1.78-4.199-2.782-6.718-2.782z" fill="#e6203d"/><g><path d="M3652.5 17c-2.006 0-3.961.635-5.584 1.814-1.623 1.179-2.831 2.843-3.451 4.75-.62 1.908-.62 3.964 0 5.872.62 1.907 1.828 3.571 3.451 4.75 1.623 1.179 3.578 1.814 5.584 1.814s3.961-.635 5.584-1.814c1.623-1.179 2.831-2.843 3.451-4.75.62-1.908.62-3.964 0-5.872-.62-1.907-1.828-3.571-3.451-4.75-1.623-1.179-3.578-1.814-5.584-1.814z" fill="#252e64"/></g><g><path d="M3638.863099 71.211643c-2.519 0-4.937 1.002-6.718 2.782-1.78 1.781-2.782 4.199-2.782 6.718s1.002 4.937 2.782 6.718c1.781 1.78 4.199 2.782 6.718 2.782s4.937-1.002 6.718-2.782c1.78-1.781 2.782-4.199 2.782-6.718s-1.002-4.937-2.782-6.718c-1.781-1.78-4.199-2.782-6.718-2.782z" fill="#fdd515" fill-opacity=".575728"/></g></g><g><path d="M3774.9 74.8s.9-1.1-.3-3c-1.1-1.7-8.5-5.2-15.2-12.7-6.7-7.5-10.5-16.1-10.5-16.1s-.1-1-2.1-.8c-1 .1-12.9 1.2-12.9 1.2s-2.8 2.3-.4 7.1c2.3 4.5 7.3 14.4 11.9 20 4.6 5.6 15.5 15.7 18.6 16.4 3.1.7 4.1.6 5-.5l5.9-11.6z" fill="#24a550"/><path d="M3796 48s-1-1-3 0c-1.8.9-6 8-14 14s-17 9-17 9-1 0-1 2v13s2 3 7 1c4.7-1.9 15-6 21-10s17-14 18-17 1-4 0-5l-11-7z" fill="#fdd515"/><path d="M3766.2 29.4s-.9 1.1.2 3c1 1.7 8.4 5.4 14.9 13s10.1 16.3 10.1 16.3.1 1 2.1.9c1-.1 13-.9 13-.9s2.9-2.2.5-7.1c-2.2-4.6-7-14.6-11.4-20.3-4.4-5.7-15.1-16-18.2-16.8-3.1-.8-4.1-.7-5 .3l-6.2 11.6z" fill="#252e64"/><path d="M3744 56s1 1 3 0c1.8-.9 6-8 14-14s17-9 17-9 1 0 1-2V18s-2-3-7-1c-4.7 1.9-15 6-21 10s-17 14-18 17-1 4 0 5l11 7zM3743.5 9c-2.519 0-4.937 1.002-6.718 2.782-1.78 1.781-2.782 4.199-2.782 6.718s1.002 4.937 2.782 6.718c1.781 1.78 4.199 2.782 6.718 2.782s4.937-1.002 6.718-2.782c1.78-1.781 2.782-4.199 2.782-6.718s-1.002-4.937-2.782-6.718c-1.781-1.78-4.199-2.782-6.718-2.782z" fill="#e6203d"/><g><path d="M3806.5 17c-2.006 0-3.961.635-5.584 1.814-1.623 1.179-2.831 2.843-3.451 4.75-.62 1.908-.62 3.964 0 5.872.62 1.907 1.828 3.571 3.451 4.75 1.623 1.179 3.578 1.814 5.584 1.814s3.961-.635 5.584-1.814c1.623-1.179 2.831-2.843 3.451-4.75.62-1.908.62-3.964 0-5.872-.62-1.907-1.828-3.571-3.451-4.75-1.623-1.179-3.578-1.814-5.584-1.814z" fill="#252e64"/></g><g><path d="M3799.437162 77.055255c-2.519 0-4.937 1.002-6.718 2.782-1.78 1.781-2.782 4.199-2.782 6.718s1.002 4.937 2.782 6.718c1.781 1.78 4.199 2.782 6.718 2.782s4.937-1.002 6.718-2.782c1.78-1.781 2.782-4.199 2.782-6.718s-1.002-4.937-2.782-6.718c-1.781-1.78-4.199-2.782-6.718-2.782z" fill="#fdd515" fill-opacity=".940953"/></g></g><g><path d="M3928.9 74.8s.9-1.1-.3-3c-1.1-1.7-8.5-5.2-15.2-12.7-6.7-7.5-10.5-16.1-10.5-16.1s-.1-1-2.1-.8c-1 .1-12.9 1.2-12.9 1.2s-2.8 2.3-.4 7.1c2.3 4.5 7.3 14.4 11.9 20 4.6 5.6 15.5 15.7 18.6 16.4 3.1.7 4.1.6 5-.5l5.9-11.6z" fill="#24a550"/><path d="M3950 48s-1-1-3 0c-1.8.9-6 8-14 14s-17 9-17 9-1 0-1 2v13s2 3 7 1c4.7-1.9 15-6 21-10s17-14 18-17 1-4 0-5l-11-7z" fill="#fdd515"/><path d="M3920.2 29.4s-.9 1.1.2 3c1 1.7 8.4 5.4 14.9 13s10.1 16.3 10.1 16.3.1 1 2.1.9c1-.1 13-.9 13-.9s2.9-2.2.5-7.1c-2.2-4.6-7-14.6-11.4-20.3-4.4-5.7-15.1-16-18.2-16.8-3.1-.8-4.1-.7-5 .3l-6.2 11.6z" fill="#252e64"/><path d="M3898 56s1 1 3 0c1.8-.9 6-8 14-14s17-9 17-9 1 0 1-2V18s-2-3-7-1c-4.7 1.9-15 6-21 10s-17 14-18 17-1 4 0 5l11 7zM3897.5 9c-2.519 0-4.937 1.002-6.718 2.782-1.78 1.781-2.782 4.199-2.782 6.718s1.002 4.937 2.782 6.718c1.781 1.78 4.199 2.782 6.718 2.782s4.937-1.002 6.718-2.782c1.78-1.781 2.782-4.199 2.782-6.718s-1.002-4.937-2.782-6.718c-1.781-1.78-4.199-2.782-6.718-2.782z" fill="#e6203d"/><g><path d="M3960.5 17c-2.006 0-3.961.635-5.584 1.814-1.623 1.179-2.831 2.843-3.451 4.75-.62 1.908-.62 3.964 0 5.872.62 1.907 1.828 3.571 3.451 4.75 1.623 1.179 3.578 1.814 5.584 1.814s3.961-.635 5.584-1.814c1.623-1.179 2.831-2.843 3.451-4.75.62-1.908.62-3.964 0-5.872-.62-1.907-1.828-3.571-3.451-4.75-1.623-1.179-3.578-1.814-5.584-1.814z" fill="#252e64"/></g><g><path d="M3954.5 78c-2.519 0-4.937 1.002-6.718 2.782-1.78 1.781-2.782 4.199-2.782 6.718s1.002 4.937 2.782 6.718c1.781 1.78 4.199 2.782 6.718 2.782s4.937-1.002 6.718-2.782c1.78-1.781 2.782-4.199 2.782-6.718s-1.002-4.937-2.782-6.718c-1.781-1.78-4.199-2.782-6.718-2.782z" fill="#fdd515"/></g><g><path d="M3904.469683 56.022738c-2.006 0-3.961.635-5.584 1.814-1.623 1.179-2.831 2.843-3.451 4.75-.62 1.908-.62 3.964 0 5.872.62 1.907 1.828 3.571 3.451 4.75 1.623 1.179 3.578 1.814 5.584 1.814s3.961-.635 5.584-1.814c1.623-1.179 2.831-2.843 3.451-4.75.62-1.908.62-3.964 0-5.872-.62-1.907-1.828-3.571-3.451-4.75-1.623-1.179-3.578-1.814-5.584-1.814z" fill="#24a550" fill-opacity=".001895"/></g></g><g><path d="M4082.9 74.8s.9-1.1-.3-3c-1.1-1.7-8.5-5.2-15.2-12.7-6.7-7.5-10.5-16.1-10.5-16.1s-.1-1-2.1-.8c-1 .1-12.9 1.2-12.9 1.2s-2.8 2.3-.4 7.1c2.3 4.5 7.3 14.4 11.9 20 4.6 5.6 15.5 15.7 18.6 16.4 3.1.7 4.1.6 5-.5l5.9-11.6z" fill="#24a550"/><path d="M4104 48s-1-1-3 0c-1.8.9-6 8-14 14s-17 9-17 9-1 0-1 2v13s2 3 7 1c4.7-1.9 15-6 21-10s17-14 18-17 1-4 0-5l-11-7z" fill="#fdd515"/><path d="M4074.2 29.4s-.9 1.1.2 3c1 1.7 8.4 5.4 14.9 13s10.1 16.3 10.1 16.3.1 1 2.1.9c1-.1 13-.9 13-.9s2.9-2.2.5-7.1c-2.2-4.6-7-14.6-11.4-20.3-4.4-5.7-15.1-16-18.2-16.8-3.1-.8-4.1-.7-5 .3l-6.2 11.6z" fill="#252e64"/><path d="M4052 56s1 1 3 0c1.8-.9 6-8 14-14s17-9 17-9 1 0 1-2V18s-2-3-7-1c-4.7 1.9-15 6-21 10s-17 14-18 17-1 4 0 5l11 7zM4051.5 9c-2.519 0-4.937 1.002-6.718 2.782-1.78 1.781-2.782 4.199-2.782 6.718s1.002 4.937 2.782 6.718c1.781 1.78 4.199 2.782 6.718 2.782s4.937-1.002 6.718-2.782c1.78-1.781 2.782-4.199 2.782-6.718s-1.002-4.937-2.782-6.718c-1.781-1.78-4.199-2.782-6.718-2.782z" fill="#e6203d"/><g><path d="M4114.5 17c-2.006 0-3.961.635-5.584 1.814-1.623 1.179-2.831 2.843-3.451 4.75-.62 1.908-.62 3.964 0 5.872.62 1.907 1.828 3.571 3.451 4.75 1.623 1.179 3.578 1.814 5.584 1.814s3.961-.635 5.584-1.814c1.623-1.179 2.831-2.843 3.451-4.75.62-1.908.62-3.964 0-5.872-.62-1.907-1.828-3.571-3.451-4.75-1.623-1.179-3.578-1.814-5.584-1.814z" fill="#252e64"/></g><g><path d="M4108.5 78c-2.519 0-4.937 1.002-6.718 2.782-1.78 1.781-2.782 4.199-2.782 6.718s1.002 4.937 2.782 6.718c1.781 1.78 4.199 2.782 6.718 2.782s4.937-1.002 6.718-2.782c1.78-1.781 2.782-4.199 2.782-6.718s-1.002-4.937-2.782-6.718c-1.781-1.78-4.199-2.782-6.718-2.782z" fill="#fdd515"/></g><g><path d="M4050.386264 62.085302c-2.006 0-3.961.635-5.584 1.814-1.623 1.179-2.831 2.843-3.451 4.75-.62 1.908-.62 3.964 0 5.872.62 1.907 1.828 3.571 3.451 4.75 1.623 1.179 3.578 1.814 5.584 1.814s3.961-.635 5.584-1.814c1.623-1.179 2.831-2.843 3.451-4.75.62-1.908.62-3.964 0-5.872-.62-1.907-1.828-3.571-3.451-4.75-1.623-1.179-3.578-1.814-5.584-1.814z" fill="#24a550" fill-opacity=".507109"/></g></g><g><path d="M4236.9 74.8s.9-1.1-.3-3c-1.1-1.7-8.5-5.2-15.2-12.7-6.7-7.5-10.5-16.1-10.5-16.1s-.1-1-2.1-.8c-1 .1-12.9 1.2-12.9 1.2s-2.8 2.3-.4 7.1c2.3 4.5 7.3 14.4 11.9 20 4.6 5.6 15.5 15.7 18.6 16.4 3.1.7 4.1.6 5-.5l5.9-11.6z" fill="#24a550"/><path d="M4258 48s-1-1-3 0c-1.8.9-6 8-14 14s-17 9-17 9-1 0-1 2v13s2 3 7 1c4.7-1.9 15-6 21-10s17-14 18-17 1-4 0-5l-11-7z" fill="#fdd515"/><path d="M4228.2 29.4s-.9 1.1.2 3c1 1.7 8.4 5.4 14.9 13s10.1 16.3 10.1 16.3.1 1 2.1.9c1-.1 13-.9 13-.9s2.9-2.2.5-7.1c-2.2-4.6-7-14.6-11.4-20.3-4.4-5.7-15.1-16-18.2-16.8-3.1-.8-4.1-.7-5 .3l-6.2 11.6z" fill="#252e64"/><path d="M4206 56s1 1 3 0c1.8-.9 6-8 14-14s17-9 17-9 1 0 1-2V18s-2-3-7-1c-4.7 1.9-15 6-21 10s-17 14-18 17-1 4 0 5l11 7zM4205.5 9c-2.519 0-4.937 1.002-6.718 2.782-1.78 1.781-2.782 4.199-2.782 6.718s1.002 4.937 2.782 6.718c1.781 1.78 4.199 2.782 6.718 2.782s4.937-1.002 6.718-2.782c1.78-1.781 2.782-4.199 2.782-6.718s-1.002-4.937-2.782-6.718c-1.781-1.78-4.199-2.782-6.718-2.782z" fill="#e6203d"/><g><path d="M4268.5 17c-2.006 0-3.961.635-5.584 1.814-1.623 1.179-2.831 2.843-3.451 4.75-.62 1.908-.62 3.964 0 5.872.62 1.907 1.828 3.571 3.451 4.75 1.623 1.179 3.578 1.814 5.584 1.814s3.961-.635 5.584-1.814c1.623-1.179 2.831-2.843 3.451-4.75.62-1.908.62-3.964 0-5.872-.62-1.907-1.828-3.571-3.451-4.75-1.623-1.179-3.578-1.814-5.584-1.814z" fill="#252e64"/></g><g><path d="M4262.5 78c-2.519 0-4.937 1.002-6.718 2.782-1.78 1.781-2.782 4.199-2.782 6.718s1.002 4.937 2.782 6.718c1.781 1.78 4.199 2.782 6.718 2.782s4.937-1.002 6.718-2.782c1.78-1.781 2.782-4.199 2.782-6.718s-1.002-4.937-2.782-6.718c-1.781-1.78-4.199-2.782-6.718-2.782z" fill="#fdd515"/></g><g><path d="M4197.68082 67.114385c-2.006 0-3.961.635-5.584 1.814-1.623 1.179-2.831 2.843-3.451 4.75-.62 1.908-.62 3.964 0 5.872.62 1.907 1.828 3.571 3.451 4.75 1.623 1.179 3.578 1.814 5.584 1.814s3.961-.635 5.584-1.814c1.623-1.179 2.831-2.843 3.451-4.75.62-1.908.62-3.964 0-5.872-.62-1.907-1.828-3.571-3.451-4.75-1.623-1.179-3.578-1.814-5.584-1.814z" fill="#24a550" fill-opacity=".926199"/></g></g><g><path d="M4390.9 74.8s.9-1.1-.3-3c-1.1-1.7-8.5-5.2-15.2-12.7-6.7-7.5-10.5-16.1-10.5-16.1s-.1-1-2.1-.8c-1 .1-12.9 1.2-12.9 1.2s-2.8 2.3-.4 7.1c2.3 4.5 7.3 14.4 11.9 20 4.6 5.6 15.5 15.7 18.6 16.4 3.1.7 4.1.6 5-.5l5.9-11.6z" fill="#24a550"/><path d="M4412 48s-1-1-3 0c-1.8.9-6 8-14 14s-17 9-17 9-1 0-1 2v13s2 3 7 1c4.7-1.9 15-6 21-10s17-14 18-17 1-4 0-5l-11-7z" fill="#fdd515"/><path d="M4382.2 29.4s-.9 1.1.2 3c1 1.7 8.4 5.4 14.9 13s10.1 16.3 10.1 16.3.1 1 2.1.9c1-.1 13-.9 13-.9s2.9-2.2.5-7.1c-2.2-4.6-7-14.6-11.4-20.3-4.4-5.7-15.1-16-18.2-16.8-3.1-.8-4.1-.7-5 .3l-6.2 11.6z" fill="#252e64"/><path d="M4360 56s1 1 3 0c1.8-.9 6-8 14-14s17-9 17-9 1 0 1-2V18s-2-3-7-1c-4.7 1.9-15 6-21 10s-17 14-18 17-1 4 0 5l11 7zM4359.5 9c-2.519 0-4.937 1.002-6.718 2.782-1.78 1.781-2.782 4.199-2.782 6.718s1.002 4.937 2.782 6.718c1.781 1.78 4.199 2.782 6.718 2.782s4.937-1.002 6.718-2.782c1.78-1.781 2.782-4.199 2.782-6.718s-1.002-4.937-2.782-6.718c-1.781-1.78-4.199-2.782-6.718-2.782z" fill="#e6203d"/><g><path d="M4422.5 17c-2.006 0-3.961.635-5.584 1.814-1.623 1.179-2.831 2.843-3.451 4.75-.62 1.908-.62 3.964 0 5.872.62 1.907 1.828 3.571 3.451 4.75 1.623 1.179 3.578 1.814 5.584 1.814s3.961-.635 5.584-1.814c1.623-1.179 2.831-2.843 3.451-4.75.62-1.908.62-3.964 0-5.872-.62-1.907-1.828-3.571-3.451-4.75-1.623-1.179-3.578-1.814-5.584-1.814z" fill="#252e64"/></g><g><path d="M4416.5 78c-2.519 0-4.937 1.002-6.718 2.782-1.78 1.781-2.782 4.199-2.782 6.718s1.002 4.937 2.782 6.718c1.781 1.78 4.199 2.782 6.718 2.782s4.937-1.002 6.718-2.782c1.78-1.781 2.782-4.199 2.782-6.718s-1.002-4.937-2.782-6.718c-1.781-1.78-4.199-2.782-6.718-2.782z" fill="#fdd515"/></g><g><path d="M4350.5 68c-2.006 0-3.961.635-5.584 1.814-1.623 1.179-2.831 2.843-3.451 4.75-.62 1.908-.62 3.964 0 5.872.62 1.907 1.828 3.571 3.451 4.75 1.623 1.179 3.578 1.814 5.584 1.814s3.961-.635 5.584-1.814c1.623-1.179 2.831-2.843 3.451-4.75.62-1.908.62-3.964 0-5.872-.62-1.907-1.828-3.571-3.451-4.75-1.623-1.179-3.578-1.814-5.584-1.814z" fill="#24a550"/></g></g></svg>