<?xml version="1.0" encoding="utf-8"?>
<!-- Generator: Adobe Illustrator 22.0.1, SVG Export Plug-In . SVG Version: 6.00 Build 0)  -->
<svg version="1.1" id="Layer_1" xmlns="http://www.w3.org/2000/svg" xmlns:xlink="http://www.w3.org/1999/xlink" x="0px" y="0px"
	 viewBox="0 0 154 110" style="enable-background:new 0 0 154 110;" xml:space="preserve">
<style type="text/css">
	.st0{fill-rule:evenodd;clip-rule:evenodd;fill:#02AFEF;}
	.st1{fill:#02AFEF;}
</style>
<path class="st0" d="M95.8,77.1c0,0.7-0.5,1.2-1.2,1.2H59.5c-0.7,0-1.2-0.5-1.2-1.2V39.8h11c1.7,0,3.1-1.4,3.1-3.1V25.7h22.2
	c0.7,0,1.2,0.6,1.2,1.2V77.1z M71.2,27.4v9.2c0,1-0.9,1.9-1.9,1.9H60L71.2,27.4z M94.5,24.5H72.4L57,39.8v37.3
	c0,1.3,1.1,2.4,2.5,2.4h35.1c1.3,0,2.5-1.1,2.5-2.4V26.9C97,25.6,95.9,24.5,94.5,24.5z"/>
<rect x="63.2" y="70.6" class="st1" width="27.7" height="1.2"/>
<rect x="63.2" y="64.5" class="st1" width="27.7" height="1.2"/>
<rect x="63.2" y="58.4" class="st1" width="27.7" height="1.2"/>
<rect x="63.2" y="52.3" class="st1" width="27.7" height="1.2"/>
<rect x="63.2" y="46.2" class="st1" width="27.7" height="1.2"/>
</svg>
