<?xml version="1.0" encoding="utf-8"?>
<!-- Generator: Adobe Illustrator 22.0.1, SVG Export Plug-In . SVG Version: 6.00 Build 0)  -->
<svg version="1.1" id="Layer_1" xmlns="http://www.w3.org/2000/svg" xmlns:xlink="http://www.w3.org/1999/xlink" x="0px" y="0px"
	 viewBox="0 0 154 110" style="enable-background:new 0 0 154 110;" xml:space="preserve">
<style type="text/css">
	.st0{fill:#24A550;}
	.st1{fill:#E6203D;}
	.st2{fill:#252E64;}
	.st3{fill:#FDD515;}
</style>
<path class="st0" d="M78.9,74.8c0,0,0.9-1.1-0.3-3c-1.1-1.7-8.5-5.2-15.2-12.7S52.9,43,52.9,43s-0.1-1-2.1-0.8
	c-1,0.1-12.9,1.2-12.9,1.2s-2.8,2.3-0.4,7.1c2.3,4.5,7.3,14.4,11.9,20s15.5,15.7,18.6,16.4c3.1,0.7,4.1,0.6,5-0.5
	C78.9,74.8,78.9,74.8,78.9,74.8z"/>
<circle class="st1" cx="47.5" cy="18.5" r="9.5"/>
<circle class="st2" cx="110.5" cy="26.5" r="9.5"/>
<circle class="st3" cx="104.5" cy="87.5" r="9.5"/>
<circle class="st0" cx="38.5" cy="77.5" r="9.5"/>
<path class="st3" d="M100,48c0,0-1-1-3,0c-1.8,0.9-6,8-14,14s-17,9-17,9s-1,0-1,2c0,1,0,13,0,13s2,3,7,1c4.7-1.9,15-6,21-10
	s17-14,18-17s1-4,0-5C100,48,100,48,100,48z"/>
<path class="st2" d="M70.2,29.4c0,0-0.9,1.1,0.2,3c1,1.7,8.4,5.4,14.9,13s10.1,16.3,10.1,16.3s0.1,1,2.1,0.9c1-0.1,13-0.9,13-0.9
	s2.9-2.2,0.5-7.1c-2.2-4.6-7-14.6-11.4-20.3c-4.4-5.7-15.1-16-18.2-16.8c-3.1-0.8-4.1-0.7-5,0.3C70.2,29.4,70.2,29.4,70.2,29.4z"/>
<path class="st1" d="M48,56c0,0,1,1,3,0c1.8-0.9,6-8,14-14s17-9,17-9s1,0,1-2c0-1,0-13,0-13s-2-3-7-1c-4.7,1.9-15,6-21,10
	S38,41,37,44s-1,4,0,5C48,56,48,56,48,56z"/>
</svg>
