<?xml version="1.0" encoding="utf-8"?>
<!-- Generator: Adobe Illustrator 22.0.1, SVG Export Plug-In . SVG Version: 6.00 Build 0)  -->
<svg version="1.1" id="Layer_1" xmlns="http://www.w3.org/2000/svg" xmlns:xlink="http://www.w3.org/1999/xlink" x="0px" y="0px"
	 viewBox="0 0 154 110" style="enable-background:new 0 0 154 110;" xml:space="preserve">
<style type="text/css">
	.st0{fill-rule:evenodd;clip-rule:evenodd;fill:#449E1A;}
	.st1{fill-rule:evenodd;clip-rule:evenodd;fill:#338E02;}
	.st2{fill:#E7E7E8;}
</style>
<path class="st0" d="M79,4.5c0,0-19.4,17.8-19.6,30.9c-0.3,13.8,9.7,24.3,20.1,24c10.5-0.3,20.9-11.4,19.3-25.1
	C96.9,19.4,79,4.5,79,4.5z"/>
<path class="st1" d="M41.4,32.2c0,0,19.5,1.3,25.8,8.7c6.6,7.8,5.9,18.4-0.3,23S49.5,67,44.1,58.4C38.1,49,41.4,32.2,41.4,32.2z"/>
<path class="st1" d="M115.6,31.8c0,0-19.5,1.3-25.8,8.7c-6.6,7.8-5.9,18.4,0.3,23c6.1,4.6,17.4,3.1,22.8-5.6
	C118.9,48.6,115.6,31.8,115.6,31.8z"/>
<path class="st2" d="M40.1,94.8c-0.3,0-0.6-0.1-0.7-0.2c-0.1,0-0.2-0.2-0.2-0.3s0-0.3,0.1-0.3c0.1-0.1,0.1-0.2,0.1-0.3
	c0-0.1,0-0.1-0.1-0.1c-0.1,0.1-0.2,0.2-0.3,0.3s-0.2,0.3-0.3,0.5l-0.3,0.6c-0.1,0.2-0.3,0.4-0.4,0.5c-0.1,0.1-0.3,0.4-0.4,0.5
	c-0.1,0.1-0.2,0.6-0.2,0.9c0,0.4,0.1,0.9,0.2,1.1c0.1,0.2,0.3,0.3,0.4,0.1c0.1-0.1,0.3-0.3,0.3-0.4l0.4-0.3c0.1-0.1,0.4-0.2,0.6-0.2
	c0.2,0,0.7-0.1,1.1-0.1c0.4,0,0.8,0.2,0.9,0.4l0.3,0.5c0,0.1,0.1,0.4,0.3,0.6c0.1,0.3,0.3,0.5,0.4,0.6c0.1,0.1,0.3,0.1,0.4,0.2
	s0.2,0.1,0.3,0.2l0.1,0.4c0,0.1,0.4,0.4,0.8,0.6c0.4,0.2,0.9,0.4,1.1,0.4s0.4-0.1,0.4-0.2l0.3,0.1c0.3,0.2,0.2,0.3,0.1,0.4l0.3,0.1
	c0.3,0.1,0.5,0.4,0.7,0.4h0.2c0.2,0.1,0.5,0.2,0.7,0.2c0.2,0,0.5,0.1,0.6,0.1c0.1,0,0.3,0.4,0.3,0.8l0.5,0.2l0.5,0.2
	c0.4,0.2,0.9,0.4,1,0.4s0.4-0.1,0.8-0.2l0.3,0.1c0.3,0.1,0.8,0.1,1,0.1c0.2,0,0.2,0.1,0.6,0c0.4-0.2,0.8-0.2,0.8-0.2
	c0.3-0.3,0.3-0.3,0.3-0.4c0,0,0,0,0.2-0.1c0.3-0.1,0.2-0.2,0.2-0.2c0,0,0,0,0.3,0c0.3,0,0.3,0,0.3-0.1c0,0,0,0,0.3,0.1
	c0.5,0.1,0.4,0.3,0.8,0.4l0.4,0.2c0.3,0.2,1.1,0.4,1.6,0.4l0.7,0.4l0.6,0.4c0.3,0.1,0.6,0.3,0.8,0.3l0.4-0.1
	c0.4-0.2,0.6-0.2,0.9-0.2c0.3,0,0.6,0,0.8,0.1s0.4,0.2,0.5,0.2c0.1,0,0.3,0,0.5,0h0.2H64c0.2,0,0.1-0.1,0.6,0.2
	c0.3,0.1,0.4,0.2,0.4,0.2c0,0,0,0,0.2,0h0.4c0.4,0,0.9,0,1.2-0.1c0.3,0,0.6-0.2,0.8-0.3s0.4-0.2,0.6-0.3l1.3-0.3
	c0.5-0.1,1.3-0.4,1.7-0.7h0.7c0.7,0,0.9-0.1,1.2-0.1c0.2-0.1,0.7-0.3,0.9-0.4c0.3-0.2,0.7-0.4,1-0.5l0.2-0.2
	c0.2-0.1,0.9-0.5,1.1-0.5h0.2l0.5-0.3l0.4-0.2c0.4-0.1,0.6-0.4,0.9-0.4h0.5c0.8,0,2-0.3,2.7-0.7l0.1-0.1c0.7-0.4,1.6-0.9,2-1.1
	c0.4-0.2,0.8-0.5,0.9-0.6c0-0.1,0.2-0.3,0.3-0.4c0.1-0.1,0.3-0.3,0.3-0.4c0.1-0.2,0.3-0.4,0.5-0.6c0.2-0.2,0.4-0.4,0.4-0.4l0.3-0.5
	c0.1-0.2,0.3-0.4,0.5-0.4s0.3-0.1,0.3-0.2s0.2-0.2,0.4-0.3c0.2,0,0.4-0.2,0.4-0.3c0-0.1-0.1-0.2-0.3-0.3c-0.1,0-0.4-0.2-0.5-0.4h0.2
	h0.7c0.2,0,0.6,0,0.8,0.1c0.2,0.1,0.5,0.1,0.7,0.1c0.2,0,0.4,0,0.5-0.1c0.1-0.1,0.2-0.3,0.3-0.5c0.1-0.2,0.2-0.4,0.2-0.5
	c0-0.2,0.1-0.5,0.1-0.7c0.1-0.3,0.1-0.5,0.1-0.6c0-0.1-0.1-0.2-0.1-0.3c-0.1-0.1-0.2-0.2-0.3-0.3c-0.1-0.1-0.2-0.3-0.3-0.4
	s-0.3-0.1-0.4,0H89h-0.2c-0.2,0-0.2-0.2-0.1-0.3c0.1-0.2,0.3-0.5,0.3-0.7c0-0.2-0.1-0.5-0.3-0.6s-0.4-0.2-0.5-0.3
	c-0.1-0.1-0.4-0.2-0.6-0.2c-0.3-0.1-0.5-0.2-0.5-0.4c0-0.1-0.3-0.3-0.6-0.5c-0.3-0.1-0.6-0.3-0.5-0.4c0-0.1,0.2-0.2,0.4-0.2
	c0.2,0,0.4-0.2,0.5-0.6c0.1-0.4,0.2-0.7,0.3-0.8c0.1-0.1,0.2-0.3,0.2-0.6c0-0.3,0-0.6,0-0.9c0-0.2,0.1-0.4,0.2-0.4s0.3,0,0.5,0
	c0.1,0,0.3,0.1,0.4,0.2l0.1,0.4c0.1,0.4,0.2,0.4,0.3,0.5c0.1,0.1,0.5,0.1,0.7,0c0.2-0.1,0.6-0.2,0.9-0.3c0.3,0,0.5-0.1,0.5-0.2
	s0.3-0.5,0.8-0.9c0.4-0.4,0.9-1,0.9-1.4c0.1-0.3,0.4-0.7,0.7-0.8l0.3,0.1l0.3,0.1c0.5,0,1,0,1.1-0.1c0.1-0.1,0.4-0.4,0.5-0.6
	c0.2-0.2,0.2-0.5,0.1-0.7c-0.1-0.2-0.1-0.3,0.1-0.4c0.2-0.1,0.4-0.1,0.5-0.1c0.1,0,0.3,0,0.5-0.1s0.3-0.2,0.3-0.3s-0.1-0.2-0.2-0.3
	s-0.3-0.1-0.4-0.1c-0.1,0-0.2-0.1-0.3-0.2c-0.1-0.1-0.1-0.2,0-0.3c0-0.1,0.1-0.3,0.1-0.5s0.1-0.4,0.1-0.5s0.3-0.3,0.5-0.4
	c0.2-0.1,0.5-0.8,0.7-1.6c0,0,0,0-0.5-0.6c-0.1-0.5,0-1.2,0.2-1.5c0.4-0.1,0.5,0,0.6,0s0.4,0.1,0.6,0c0.2-0.1,0.5-0.2,0.5-0.3
	c0.1-0.1,0.1-0.3,0-0.4c0-0.1-0.1-0.2-0.2-0.3c-0.1-0.1-0.1-0.2-0.1-0.3l0.2-0.7c0.1-0.3,0.2-0.7,0.3-0.8l0.2-0.4
	c0.1-0.1,0.1-0.3,0-0.4c0-0.1-0.1-0.3-0.2-0.4c-0.1-0.1,0-0.3,0-0.4c0.1-0.1,0.2-0.4,0.2-0.5c0-0.1,0.1-0.3,0-0.4
	c0-0.1-0.1-0.3-0.2-0.3c-0.1-0.1-0.1-0.3-0.1-0.4s-0.1-0.3-0.3-0.3s-0.3-0.1-0.4-0.2c0-0.1,0-0.2,0.1-0.3s0.3-0.2,0.4-0.3h0.2
	c0.2,0,1.9-0.6,1.2-1.6c0-0.2-0.3-0.5-0.5-0.7c-0.3-0.2-0.4-0.4-0.4-0.5c0.1-0.1,0-0.2-0.1-0.3c-0.1-0.1-0.3-0.2-0.5-0.3
	c-0.1-0.1-0.3-0.4-0.4-0.6c-0.1-0.2-0.2-0.5-0.4-0.6c-0.1-0.1-0.5-0.4-0.8-0.7c-0.3-0.3-0.6-0.6-0.8-0.7l0.1-0.2l0.1-0.2
	c-0.2-0.7-0.4-1.6-0.5-1.8c-0.1-0.3-0.2-0.6-0.2-0.7c0-0.1,0-0.3,0-0.4c0-0.1-0.1-0.2-0.2-0.3c-0.1-0.1-0.2-0.2-0.3-0.3
	c0-0.1-0.2-0.3-0.4-0.4c-0.2-0.1-0.5-0.2-0.5-0.3c-0.1,0-0.2,0.1-0.2,0.2c0,0.1-0.1,0.3-0.2,0.4s-0.2,0.1-0.4,0s-0.3-0.2-0.5-0.1
	s-0.4,0-0.7-0.2c-0.2-0.1-0.4-0.4-0.4-0.5c0-0.1,0.2-0.3,0.4-0.3c0.2,0,0.4-0.2,0.4-0.4c0-0.2-0.1-0.4-0.3-0.5c-0.2,0-0.6-0.1-1-0.1
	c-0.4,0-0.7-0.1-0.7-0.2s0.2-0.2,0.4-0.2c0.2,0,0.5-0.1,0.6-0.2c0.1-0.1,0.2-0.3,0.3-0.3c0-0.1,0.3-0.2,0.5-0.2
	c0.2,0,0.5-0.1,0.6-0.3s0.2-0.4,0.2-0.4s0-0.5,0.1-0.9l0.4-0.2c-0.2-0.7-0.5-1.5-0.6-1.8c-0.1-0.3-0.3-0.6-0.4-0.7
	c-0.1-0.1-0.3-0.3-0.6-0.4c-0.3-0.1-0.6-0.3-0.7-0.3c-0.1,0-0.6-0.1-1.1-0.1c-0.5,0-1.1-0.1-1.4-0.1l-0.2-0.1L89,48.6
	c-0.2-0.3-0.3-0.5-0.4-0.6c-0.1-0.1-0.2-0.3-0.3-0.4c-0.1-0.2,0-0.4,0.2-0.6s0.2-0.4,0-0.5c-0.2-0.1-0.5-0.2-0.6-0.3
	c-0.1,0-0.4-0.2-0.5-0.4l-0.4-0.5C87,45.2,86.8,45,86.7,45c-0.1,0-0.3,0-0.4,0l0.1-0.3l0.1-0.3v-0.5c0-0.1-0.1-0.2-0.1-0.3
	c-0.1-0.1-0.3-0.3-0.6-0.4c-0.2-0.1-0.3-0.3-0.3-0.4s0-0.2-0.2-0.3c-0.2-0.1-0.3-0.3-0.4-0.4c0-0.1,0.2-0.3,0.5-0.5v-0.2v-0.2
	c0-0.4,0-1-0.1-1.3c0-0.3-0.3-0.8-0.5-1.1l0.2-0.3c0.2-0.3,0.1-0.4,0-0.4c-0.1-0.1-0.2-0.2-0.3-0.3c0-0.1-0.2-0.3-0.4-0.5l0.2-0.2
	l0.2-0.1c0-0.2,0-0.5-0.1-0.7c-0.1-0.2-0.2-0.4-0.4-0.4c-0.2-0.1-0.5-0.2-0.8-0.2c-0.3,0-0.8-0.2-1.3-0.4l-0.1-0.5
	c-0.2-0.5-0.5-0.5-0.9-0.4L81,34.5c-0.3,0-0.7,0-0.9,0c-0.1,0-0.3-0.1-0.5-0.3c-0.1-0.1-0.3-0.3-0.3-0.4l-0.1-0.3
	c0-0.1-0.2-0.2-0.3-0.3s-0.5-0.2-0.8-0.3c-0.3-0.1-0.8-0.2-0.9-0.3c-0.2-0.1-0.4-0.2-0.5-0.2c-0.1,0-0.3,0-0.6,0
	c-0.2,0-0.6,0.1-0.8,0.2c-0.2,0.1-0.5,0.2-0.6,0.2h-0.6L74,33.1l-0.2,0.2c-0.1,0.2-0.1,0.6,0,0.9l-0.4,0.1c-0.4,0.1-0.8,0-1.3,0
	l-0.1,0.3L72,34.8c-0.2,0.6-0.2,1.2,0.1,1.3l0.1,0.2c0.1,0.2,0.1,0.3,0.1,0.4c0,0.1-0.3,0.1-0.7,0c-0.4-0.1-0.8-0.1-1.1-0.1
	s-0.3-0.1-0.3-0.3c0.1-0.1,0.2-0.5,0.3-0.9l-0.5-0.2c-0.2,0-0.6-0.1-0.9-0.3c-0.3-0.1-0.7-0.3-0.8-0.3c-0.1,0-0.3,0.2-0.4,0.5
	l0.4,0.2c0.4,0.2,0.4,0.2,0.4,0.5v0.3c-0.2,0.5-0.7,1.5-1.2,2.1c0,0,0,0-0.2,0.8c-0.2,0.7-1,1.5-2.2,2c0,0-1.2,0.7-1.2,1
	s-0.2,1-0.2,1.2c0,0.2-0.3,1.1-0.3,1.1c-0.2,0.8-0.6,1.4-0.9,1.3l0.3,0.4c0.3,0.4,0.3,0.5,0.3,0.6c0,0.1-0.1,0.3-0.2,0.4
	c-0.1,0.1-0.1,0.3-0.1,0.6c0,0.2,0.1,0.5,0.1,0.5c0.1,0.1,0.2,0.2,0.3,0.3c0.1,0.1,0.2,0.3,0.2,0.4c0,0.1-0.6,0.5-1.3,0.7
	c0,0-0.4,0.1-0.8,1.5l-0.4,1.4c0.1,0.4,0.4,0.9,0.8,1.2h0.2c0.1,0,0.2-0.2,0.2-0.2c0,0,0,0.1,0,0.2l-0.1,0.4
	c-0.2,0.2-0.3,0.5-0.4,0.7c-0.1,0.1-0.1,0.4-0.1,0.5c0,0.2,0.1,0.5,0.2,0.6c0.1,0.2,0,0.4-0.3,0.4c-0.3,0.1-0.7,0.2-0.9,0.2
	l-0.2-0.1l-0.2-0.1c-0.3-0.1-0.6-0.3-0.5-0.4c0-0.1-0.2-0.1-0.5,0.1s-0.5,0.4-0.5,0.4c0,0.1-0.2,0.4-0.4,0.7
	c-0.2,0.3-0.4,0.4-0.5,0.2c-0.1-0.2-0.3-0.3-0.5-0.3c-0.2,0-0.5,0-0.6-0.1l-0.2,0.2l-0.2,0.1c-0.2,0-0.5,0.2-0.8,0.3
	c-0.3,0.1-0.6,0.3-0.8,0.4c-0.2,0.1-0.8,0.2-1.3,0.3c-0.5,0.1-1,0.4-1.1,0.7c-0.1,0.3-0.4,0.6-0.8,0.7c-0.3,0.1-0.7,0.4-0.9,0.6
	s-0.8,0.9-1.4,1.4l0,0v0.7c0,0.2-0.1,0.4-0.1,0.5c0,0.1-0.1,0.3-0.1,0.4c0,0.1-0.1,0.2-0.2,0.2c-0.1,0-0.4,0.1-0.6,0.2
	c-0.3,0.1-0.6,0.5-0.7,0.9c-0.1,0.4-0.4,0.9-0.5,1.1l-0.2,0.6l-0.1,0.6c0,0.4,0,0.9,0.1,1c0,0.1,0,0.4,0,0.7
	c-0.1,0.2-0.2,0.6-0.3,0.8c-0.1,0.2-0.4,0.5-0.7,0.8l-0.1,0.2l-0.1,0.2c-0.3,0.5-0.6,1.1-0.6,1.4c0,0.3-0.3,1.1-0.6,1.8
	c0,0-0.1,0.2-0.1,0.8c0,0.6,0.4,2.2,0.4,2.2c0.7,1,0.7,0.9,0.9,1.1c0.1,0.1,0.1,0,0.1,0c0,0,0,0,0.1,0.2c0.2,0.4,1.2,0.8-0.1,1.2
	c-1.3,0.4-1.4,1.2-1.4,1.5v0.9c0,0.3-0.2,0.9-0.1,1.2c0.1,0.3,1.1,0.3,1.2,0.7c0.1,0.4,0.4,0.6,0.1,0.7l-0.3,0.2L44.4,85
	c-0.1,0.1-0.3,0.3-0.4,0.4l0.2,0.2c0.2,0.2,0.4,0.4,0.7,0.6c0.3,0.2,0.8,0.3,1.1,0.3v0.3c0,0.3,0.4,0.9,0,1.2
	c-0.4,0.3-0.8,0.4-0.8,0.4c-0.1,0.3-0.1,1.1-0.1,1.4s-0.1,0.7-0.2,0.9c-0.2,0.2-1.2,2-2,2.9c-0.8,0.9-0.9,1.1-0.9,1.3h-0.6
	c-0.6,0-0.8,0.1-1.1-0.1L40.1,94.8z"/>
</svg>
