<?xml version="1.0" encoding="utf-8"?>
<!-- Generator: Adobe Illustrator 22.0.1, SVG Export Plug-In . SVG Version: 6.00 Build 0)  -->
<svg version="1.1" id="Layer_1" xmlns="http://www.w3.org/2000/svg" xmlns:xlink="http://www.w3.org/1999/xlink" x="0px" y="0px"
	 viewBox="0 0 154 110" style="enable-background:new 0 0 154 110;" xml:space="preserve">
<style type="text/css">
	.st0{fill:#02AFEF;}
</style>
<path class="st0" d="M97.5,49.4c-0.1-3.2-1.8-5.1-4.5-5.1c-1.6,0-2.6,0.7-3.3,1.6V45c0-0.8-0.8-4.7-4.8-4.7c-1.8,0-3,0.9-3.7,2
	c-0.3-1.7-1.6-4.4-5.2-4.4c-1.9,0-3.2,1-4,2.1V27.7c0-5-2.5-6.1-4.6-6.1c-1.4,0-2.5,0.4-3.3,1.3c-1.6,1.6-1.6,4.2-1.6,4.3V45
	c-0.3-0.4-0.7-0.8-1.2-1c-0.6-0.3-1.3-0.3-2,0c-1.4,0.6-2.8,3.6-3.5,5.4c-0.3,0.8-0.8,1.7-1.2,2.6c-0.9,1.8-1.8,3.6-1.9,5.3
	c-0.4,5.2,1.2,10.4,4.5,14.6c1.8,2.3,3.9,4.6,6,6.8c2.3,2.5,4.5,4.8,5.5,6.5c0.2,0.3,0.3,0.7,0.4,1v8.5c0,0.3,0.2,0.5,0.5,0.5
	c0.3,0,0.5-0.2,0.5-0.5v-8.5c0-0.1,0-0.1,0-0.2c0-0.1-0.3-0.8-0.5-1.2c-1.1-1.8-3.3-4.2-5.7-6.7c-2.1-2.2-4.2-4.4-6-6.7
	c-3.1-4-4.7-9-4.3-13.9c0.1-1.5,1-3.2,1.8-4.9c0.4-0.9,0.9-1.8,1.2-2.7c1-2.6,2.2-4.5,2.9-4.8c0.4-0.2,0.8-0.2,1.2,0
	c0.8,0.4,1.4,1.7,1.6,2.2v11.5c0,0,0,0.1,0,0.3c-0.1,0.3-0.3,0.9-0.6,1.4c-0.5,0.6-0.9,0.8-0.9,0.8c-0.2,0.1-0.3,0.4-0.2,0.7
	c0.1,0.2,0.4,0.3,0.7,0.2c0.5-0.2,0.9-0.6,1.3-1.1c0.5-0.6,0.7-1.3,0.8-1.8c0.1-0.2,0.1-0.4,0.1-0.5V27.2c0,0,0-2.3,1.3-3.6
	c0.7-0.7,1.5-1,2.6-1c2.4,0,3.6,1.7,3.6,5.1v23.9c0,0.3,0.2,0.5,0.5,0.5c0.3,0,0.5-0.2,0.5-0.5v-8.9c0.1-0.4,0.7-3.9,4-3.9
	c4.1,0,4.3,4.2,4.3,4.2v7.8c0,0.3,0.2,0.5,0.5,0.5c0.3,0,0.5-0.2,0.5-0.5v-6.3c0.1-0.4,0.7-3.3,3.6-3.3c3.3,0,3.8,3.7,3.8,3.7v6.2
	c0,0.3,0.2,0.5,0.5,0.5s0.5-0.2,0.5-0.5v-2.7c0.1-0.3,0.6-3.1,3.3-3.1c3,0,3.5,2.9,3.5,4.1c0,1.6-0.2,25.6-0.2,25.8l-0.1,0.4
	c-0.2,1.8-0.7,3.3-1,4.3l-0.2,0.5c-0.3,1-0.3,2.1-0.3,2.3l0,0.1l0,11.8c0,0.3,0.2,0.5,0.5,0.5s0.5-0.2,0.5-0.5l0-11.8c0,0,0-1,0.3-2
	l0.1-0.4c0.3-1,0.8-2.6,1.1-4.5l0.1-0.5C97.3,74.3,97.5,51.1,97.5,49.4z"/>
<path class="st0" d="M58.7,28.6c0.1,0,0.2,0,0.3-0.1c0.2-0.2,0.3-0.5,0.1-0.7c-1.3-1.7-2-3.8-2-5.9c0-5.4,4.5-9.9,10-9.9
	c5.5,0,10,4.4,10,9.9c0,1.7-0.4,3.4-1.3,4.8c-0.1,0.2-0.1,0.5,0.2,0.7c0.2,0.1,0.6,0.1,0.7-0.2c0.9-1.6,1.4-3.5,1.4-5.3
	c0-6-4.9-10.9-11-10.9s-11,4.9-11,10.9c0,2.4,0.8,4.6,2.2,6.5C58.4,28.5,58.5,28.6,58.7,28.6z"/>
</svg>
