<?xml version="1.0" encoding="utf-8"?>
<!-- Generator: Adobe Illustrator 22.0.1, SVG Export Plug-In . SVG Version: 6.00 Build 0)  -->
<svg version="1.1" id="Layer_1" xmlns="http://www.w3.org/2000/svg" xmlns:xlink="http://www.w3.org/1999/xlink" x="0px" y="0px"
	 viewBox="0 0 50 47" style="enable-background:new 0 0 50 47;" xml:space="preserve">
<style type="text/css">
	.st0{fill-rule:evenodd;clip-rule:evenodd;fill:#CCCCCF;}
</style>
<path class="st0" d="M41.1,45.6V38h7.4L41.1,45.6z M1.3,42.2V15.9h47.3v20.8h-8.2c-0.4,0-0.7,0.3-0.7,0.7v8.4H4.7
	C2.8,45.7,1.3,44.1,1.3,42.2z M4.7,5h1.6v3.6h4.9V5h27.4v3.6h4.9V5h1.8c1.8,0,3.3,1.5,3.3,3.4v6.1H1.3V8.4C1.3,6.5,2.8,5,4.7,5z
	 M7.6,1.3h2.3v5.9H7.6V1.3z M40,1.3h2.3v5.9H40V1.3L40,1.3z M45.3,3.6h-1.8V0h-4.9v3.6H11.2V0H6.3v3.6H4.7C2.1,3.6,0,5.8,0,8.4v33.9
	C0,44.9,2.1,47,4.7,47h36.9l8.4-8.7v-30C50,5.8,47.9,3.6,45.3,3.6z"/>
</svg>
