<?xml version="1.0" encoding="utf-8"?>
<!-- Generator: Adobe Illustrator 22.0.1, SVG Export Plug-In . SVG Version: 6.00 Build 0)  -->
<svg version="1.1" id="Layer_1" xmlns="http://www.w3.org/2000/svg" xmlns:xlink="http://www.w3.org/1999/xlink" x="0px" y="0px"
	 viewBox="0 0 154 110" style="enable-background:new 0 0 154 110;" xml:space="preserve">
<style type="text/css">
	.st0{fill:#02AFEF;}
	.st1{fill-rule:evenodd;clip-rule:evenodd;fill:#02AFEF;}
</style>
<path class="st0" d="M117.1,38.6H92.9c-0.6,0-1.1,0.5-1.1,1.1s0.5,1.1,1.1,1.1h24.2c0.6,0,1.1-0.5,1.1-1.1
	C118.2,39.1,117.8,38.6,117.1,38.6z"/>
<path class="st0" d="M104.3,30.8H92.9c-0.6,0-1.1,0.5-1.1,1.1c0,0.6,0.5,1.1,1.1,1.1h11.4c0.6,0,1.1-0.5,1.1-1.1
	C105.4,31.3,104.9,30.8,104.3,30.8z"/>
<path class="st0" d="M117.1,46.1H92.9c-0.6,0-1.1,0.5-1.1,1.1s0.5,1.1,1.1,1.1h24.2c0.6,0,1.1-0.5,1.1-1.1
	C118.2,46.5,117.8,46.1,117.1,46.1z"/>
<path class="st1" d="M99.9,46.6v32.8H44.1V46.6L71.5,63c0.2,0.1,0.4,0.1,0.5,0.1s0.3,0,0.6-0.1L99.9,46.6z M53.5,49.8V22.5h37.1
	v27.1L72,60.9L53.5,49.8z M92.7,48.5v-6.2l6,2.5L92.7,48.5z M45.3,44.9l6-2.5v6.2L45.3,44.9z M102,44.7c-0.1-0.3-0.3-0.6-0.6-0.8
	l-8.8-3.6V21.6c0-0.6-0.5-1.1-1.1-1.1H52.4c-0.6,0-1.1,0.5-1.1,1.1v18.6l-8.6,3.5c-0.4,0.1-0.7,0.5-0.7,1v35.7
	c0,0.6,0.5,1.1,1.1,1.1h57.9c0.6,0,1.1-0.5,1.1-1.1V44.7L102,44.7z"/>
</svg>
