<?xml version="1.0" encoding="utf-8"?>
<!-- Generator: Adobe Illustrator 22.0.1, SVG Export Plug-In . SVG Version: 6.00 Build 0)  -->
<svg version="1.1" id="Layer_1" xmlns="http://www.w3.org/2000/svg" xmlns:xlink="http://www.w3.org/1999/xlink" x="0px" y="0px"
	 viewBox="0 0 154 110" style="enable-background:new 0 0 154 110;" xml:space="preserve">
<style type="text/css">
	.st0{fill-rule:evenodd;clip-rule:evenodd;fill:#02AFEF;}
</style>
<path class="st0" d="M80,47.7l-0.3,4.6c-0.1,0.8-0.8,1.5-1.6,1.5H65.6c-0.8,0-1.6-0.6-1.6-1.5l-0.3-4.6c-0.2-2.7,1.4-5.2,3.9-6.2
	c0.5,1.6,2.3,2.7,4.3,2.7c2.1,0,3.8-1.1,4.3-2.7C78.7,42.6,80.2,45,80,47.7z M76,40.4c-0.1-0.1-0.3,0-0.4,0.1
	c-0.1,0.1-0.2,0.2-0.2,0.3c-0.2,1.4-1.7,2.5-3.5,2.5c-1.8,0-3.3-1.1-3.5-2.5c0-0.1-0.1-0.2-0.2-0.3c-0.1-0.1-0.3-0.1-0.4-0.1
	c-3.1,1.1-5.2,4.1-4.9,7.4l0.2,4.6c0.1,1.3,1.2,2.4,2.5,2.4h12.5c1.3,0,2.4-1.1,2.5-2.4l0.3-4.6C81.2,44.5,79.1,41.5,76,40.4z"/>
<path class="st0" d="M71.9,30.2c2.4,0,4.3,2,4.3,4.6c0,2.5-1.9,4.6-4.3,4.6c-2.4,0-4.3-2.1-4.3-4.6C67.6,32.2,69.5,30.2,71.9,30.2z
	 M71.9,40.3c2.9,0,5.2-2.5,5.2-5.5c0-3.1-2.4-5.6-5.2-5.6c-2.9,0-5.2,2.5-5.2,5.6C66.6,37.8,69,40.3,71.9,40.3z"/>
<path class="st0" d="M85.5,53.8c-0.4,0.5-0.8,0.9-1.3,1.4c-0.4,0.4-0.9,0.9-1.4,1.3c-3,2.5-6.9,3.8-10.9,3.8c-4.7,0-9-1.8-12.3-5.1
	c-6.8-6.8-6.8-17.8,0-24.6c3.3-3.3,7.7-5.1,12.3-5.1c4.7,0,9,1.8,12.3,5.1C90.5,36.9,91,46.9,85.5,53.8z M84.8,30
	c-3.5-3.5-8-5.4-13-5.4c-4.9,0-9.5,1.9-13,5.4c-7.2,7.2-7.2,18.8,0,25.9c3.4,3.4,8,5.4,13,5.4c4.2,0,8.2-1.4,11.5-4l1.5-1.3
	c0.5-0.5,0.9-0.9,1.3-1.5C92,47.1,91.4,36.6,84.8,30z"/>
<path class="st0" d="M114.5,81.7l-3.9,3.9c-0.4,0.4-0.9,0.6-1.5,0.6c-0.6,0-1.1-0.3-1.5-0.8L87.1,61.3c0.1-0.1,0.3-0.3,0.4-0.4
	l0.3-0.2c0.2-0.2,0.4-0.4,0.6-0.6c0.1-0.1,0.1-0.1,0.3-0.2l0.2-0.2l0.7-0.7c0.1-0.1,0.1-0.2,0.3-0.3c0.1-0.1,0.3-0.3,0.4-0.4
	l24.2,20.4c0.4,0.4,0.7,0.9,0.8,1.5C115.1,80.7,114.9,81.3,114.5,81.7z M55.7,59.1c-2.3-2.2-4-4.9-5.2-7.9c-1.1-2.7-1.6-5.5-1.6-8.4
	c0-1.1,0.1-2.1,0.3-3.1c0.3-1.6,0.6-3.2,1.2-4.7c1.1-3.1,2.9-5.9,5.3-8.3C60,22.4,65.8,20,71.9,20s11.9,2.4,16.2,6.7
	c2.4,2.4,4.2,5.2,5.3,8.3c0.6,1.5,0.9,3,1.2,4.7c0.1,1,0.3,2.1,0.3,3.2c0,2.9-0.5,5.7-1.6,8.4c-0.9,2.2-2,4.2-3.5,6
	c-0.2,0.3-0.4,0.6-0.7,0.8l-0.1,0.1c-0.1,0.1-0.3,0.3-0.4,0.4c-0.2,0.2-0.3,0.4-0.5,0.5c-0.3,0.3-0.7,0.7-1.1,1
	c-0.3,0.3-0.6,0.5-0.8,0.7C77.1,68.2,64,67.4,55.7,59.1z M90.8,57.5c1.4-1.8,2.5-3.7,3.4-5.9c1.1-2.8,1.6-5.7,1.6-8.8
	c0-1.1-0.1-2.3-0.3-3.3c-0.3-1.6-0.6-3.3-1.2-4.9c-1.2-3.2-3.1-6.2-5.6-8.6c-4.5-4.5-10.5-7-16.8-7S59.5,21.5,55,26
	c-2.5,2.5-4.3,5.4-5.5,8.6c-0.6,1.5-1,3.2-1.3,4.9c-0.1,1.1-0.3,2.1-0.3,3.2c0,3.1,0.6,6,1.6,8.8c1.2,3.1,3,5.9,5.4,8.2
	c4.6,4.6,10.7,7,16.8,7c5.1,0,10.2-1.7,14.5-5l20.5,24.2c0.6,0.6,1.3,1,2.1,1.1h0.1c0.8,0,1.6-0.3,2.1-0.9l3.9-3.9
	c0.6-0.6,0.9-1.4,0.9-2.2c-0.1-0.8-0.4-1.6-1.1-2.1L90.8,57.5z"/>
</svg>
